{"glyphs":{"0":{"ha":850,"x_min":83,"x_max":767,"o":"m 425 -19 q 676 83 586 -19 q 767 378 767 185 l 767 594 q 676 887 767 782 q 425 992 586 992 q 174 887 265 992 q 83 594 83 782 l 83 378 q 174 83 83 185 q 425 -19 265 -19 m 425 86 q 256 165 313 86 q 200 386 200 244 l 200 586 q 256 803 200 719 q 425 886 313 886 q 594 803 538 886 q 650 586 650 719 l 650 386 q 594 165 650 244 q 425 86 538 86 m 425 397 q 488 424 461 397 q 514 486 514 451 q 488 549 514 522 q 425 575 461 575 q 363 549 390 575 q 336 486 336 522 q 363 424 336 451 q 425 397 390 397 "},"1":{"ha":850,"x_min":82,"x_max":765,"o":"m 99 0 l 765 0 l 765 108 l 490 108 l 490 972 l 264 972 l 82 564 l 82 556 l 197 556 l 357 921 l 374 921 l 374 108 l 99 108 l 99 0 "},"2":{"ha":850,"x_min":89,"x_max":764,"o":"m 97 0 l 756 0 l 756 108 l 214 108 l 214 150 q 277 290 214 242 q 472 367 340 338 q 694 479 625 400 q 764 668 764 558 l 764 693 q 727 836 764 768 q 617 948 690 904 q 431 992 543 992 q 243 944 319 992 q 128 819 167 896 q 89 653 89 742 l 89 583 l 206 583 l 206 644 q 265 818 206 753 q 431 883 325 883 q 555 853 507 883 q 625 777 603 824 q 647 681 647 731 l 647 672 q 592 547 647 599 q 414 467 538 494 q 246 409 317 446 q 136 314 175 372 q 97 167 97 256 l 97 0 "},"3":{"ha":850,"x_min":88,"x_max":771,"o":"m 440 -19 q 610 19 535 -19 q 728 126 685 58 q 771 276 771 193 l 771 301 q 730 451 771 390 q 624 543 689 511 q 485 575 558 575 l 429 575 l 429 592 l 746 794 l 746 972 l 96 972 l 96 864 l 646 864 l 646 847 l 329 644 l 329 483 l 460 483 q 599 434 543 483 q 654 297 654 385 l 654 289 q 626 188 654 233 q 548 116 597 143 q 438 89 499 89 q 271 148 338 89 q 204 311 204 207 l 204 378 l 88 378 l 88 303 q 130 141 88 214 q 251 24 172 68 q 440 -19 331 -19 "},"4":{"ha":850,"x_min":68,"x_max":785,"o":"m 518 0 l 635 0 l 635 183 l 785 183 l 785 292 l 635 292 l 635 972 l 408 972 l 68 344 l 68 183 l 518 183 l 518 0 m 168 292 l 168 308 l 501 922 l 518 922 l 518 292 l 168 292 "},"5":{"ha":850,"x_min":92,"x_max":783,"o":"m 442 -19 q 629 28 553 -19 q 744 155 706 76 q 783 325 783 233 l 783 350 q 744 513 783 443 q 635 620 704 582 q 478 658 567 658 q 327 616 386 658 q 239 517 268 574 l 222 517 l 222 864 l 717 864 l 717 972 l 108 972 l 108 458 l 328 458 q 374 520 336 490 q 469 550 411 550 q 572 522 528 550 q 642 448 617 494 q 667 344 667 401 l 667 336 q 642 215 667 271 q 567 124 617 158 q 442 89 517 89 q 273 147 338 89 q 208 319 208 206 l 208 350 l 92 350 l 92 311 q 132 142 92 217 q 251 24 172 67 q 442 -19 329 -19 "},"6":{"ha":850,"x_min":88,"x_max":763,"o":"m 425 -19 q 597 22 521 -19 q 718 137 674 64 q 763 306 763 210 l 763 322 q 723 494 763 422 q 614 603 683 565 q 454 642 544 642 q 316 607 378 642 q 221 511 254 572 l 204 511 l 204 656 q 265 824 204 760 q 419 889 326 889 q 574 834 518 889 q 629 689 629 779 l 746 689 q 703 850 746 782 q 588 955 661 918 q 422 992 515 992 q 255 951 331 992 q 133 834 179 910 q 88 656 88 758 l 88 301 q 132 135 88 207 q 253 22 176 63 q 425 -19 329 -19 m 425 83 q 264 144 324 83 q 204 299 204 206 l 204 325 q 233 433 204 385 q 313 510 263 482 q 425 539 363 539 q 539 511 489 539 q 617 434 589 483 q 646 319 646 385 l 646 303 q 586 145 646 207 q 425 83 526 83 "},"7":{"ha":850,"x_min":100,"x_max":750,"o":"m 167 0 l 281 0 l 281 42 q 296 108 281 75 q 340 183 311 140 l 750 803 l 750 972 l 100 972 l 100 864 l 650 864 l 650 847 l 251 250 q 188 142 208 185 q 167 50 167 100 l 167 0 "},"8":{"ha":850,"x_min":88,"x_max":763,"o":"m 413 -19 l 438 -19 q 609 15 536 -19 q 722 110 682 50 q 763 244 763 169 l 763 261 q 736 376 763 328 q 669 453 710 424 q 582 496 628 483 l 582 513 q 691 588 644 533 q 738 722 738 642 l 738 739 q 699 869 738 813 q 590 959 660 926 q 429 992 521 992 l 421 992 q 260 959 329 992 q 151 869 190 926 q 113 739 113 813 l 113 722 q 159 588 113 642 q 268 513 206 533 l 268 496 q 181 453 222 483 q 114 376 140 424 q 88 261 88 328 l 88 244 q 128 110 88 169 q 242 15 168 50 q 413 -19 315 -19 m 425 558 q 284 605 339 558 q 229 719 229 651 l 229 728 q 283 842 229 799 q 425 886 336 886 q 567 842 514 886 q 621 728 621 799 l 621 719 q 566 605 621 651 q 425 558 511 558 m 417 86 q 264 135 324 86 q 204 261 204 185 l 204 269 q 265 403 204 356 q 421 450 325 450 l 429 450 q 585 403 525 450 q 646 269 646 356 l 646 261 q 587 135 646 185 q 433 86 528 86 l 417 86 "},"9":{"ha":850,"x_min":88,"x_max":763,"o":"m 428 -19 q 598 22 522 -19 q 718 138 674 63 q 763 317 763 214 l 763 667 q 719 835 763 761 q 599 950 675 908 q 425 992 524 992 q 251 949 328 992 q 131 833 175 907 q 88 663 88 758 l 88 646 q 128 476 88 546 q 238 368 168 406 q 399 331 308 331 q 538 366 478 331 q 629 461 599 401 l 646 461 l 646 317 q 585 148 646 213 q 431 83 525 83 q 277 139 333 83 q 221 283 221 194 l 104 283 q 145 122 104 190 q 259 17 186 54 q 428 -19 332 -19 m 425 433 q 267 492 329 433 q 204 649 204 551 l 204 665 q 264 825 204 761 q 425 889 324 889 q 542 860 493 889 q 619 781 592 831 q 646 669 646 732 l 646 643 q 617 536 646 583 q 538 461 588 489 q 425 433 488 433 "},"A":{"ha":850,"x_min":21,"x_max":829,"o":"m 21 0 l 146 0 l 217 242 l 633 242 l 704 0 l 829 0 l 535 972 l 315 972 l 21 0 m 249 350 l 417 922 l 433 922 l 601 350 l 249 350 "},"Á":{"ha":850,"x_min":21,"x_max":829,"o":"m 21 0 l 146 0 l 217 242 l 633 242 l 704 0 l 829 0 l 535 972 l 315 972 l 21 0 m 249 350 l 417 922 l 433 922 l 601 350 l 249 350 m 385 1075 l 485 1075 l 601 1239 l 476 1239 l 385 1075 "},"Ă":{"ha":850,"x_min":21,"x_max":829,"o":"m 21 0 l 146 0 l 217 242 l 633 242 l 704 0 l 829 0 l 535 972 l 315 972 l 21 0 m 249 350 l 417 922 l 433 922 l 601 350 l 249 350 m 425 1075 q 535 1117 494 1075 q 575 1225 575 1158 l 575 1239 l 479 1239 l 479 1222 q 465 1184 479 1200 q 425 1168 451 1168 q 385 1184 399 1168 q 371 1222 371 1200 l 371 1239 l 275 1239 l 275 1225 q 316 1117 275 1158 q 425 1075 357 1075 "},"Ắ":{"ha":850,"x_min":21,"x_max":829,"o":"m 21 0 l 146 0 l 217 242 l 633 242 l 704 0 l 829 0 l 535 972 l 315 972 l 21 0 m 249 350 l 417 922 l 433 922 l 601 350 l 249 350 m 425 1014 q 535 1056 494 1014 q 575 1164 575 1097 l 575 1178 l 479 1178 l 479 1161 q 465 1123 479 1139 q 425 1107 451 1107 q 385 1123 399 1107 q 371 1161 371 1139 l 371 1178 l 275 1178 l 275 1164 q 316 1056 275 1097 q 425 1014 357 1014 m 390 1246 l 490 1246 l 607 1410 l 482 1410 l 390 1246 "},"Ặ":{"ha":850,"x_min":21,"x_max":829,"o":"m 21 0 l 146 0 l 217 242 l 633 242 l 704 0 l 829 0 l 535 972 l 315 972 l 21 0 m 249 350 l 417 922 l 433 922 l 601 350 l 249 350 m 425 -283 q 494 -254 465 -283 q 522 -186 522 -225 q 494 -117 522 -146 q 425 -89 465 -89 q 357 -117 386 -89 q 328 -186 328 -146 q 357 -254 328 -225 q 425 -283 386 -283 m 425 1075 q 535 1117 494 1075 q 575 1225 575 1158 l 575 1239 l 479 1239 l 479 1222 q 465 1184 479 1200 q 425 1168 451 1168 q 385 1184 399 1168 q 371 1222 371 1200 l 371 1239 l 275 1239 l 275 1225 q 316 1117 275 1158 q 425 1075 357 1075 "},"Ằ":{"ha":850,"x_min":21,"x_max":829,"o":"m 21 0 l 146 0 l 217 242 l 633 242 l 704 0 l 829 0 l 535 972 l 315 972 l 21 0 m 249 350 l 417 922 l 433 922 l 601 350 l 249 350 m 425 1014 q 535 1056 494 1014 q 575 1164 575 1097 l 575 1178 l 479 1178 l 479 1161 q 465 1123 479 1139 q 425 1107 451 1107 q 385 1123 399 1107 q 371 1161 371 1139 l 371 1178 l 275 1178 l 275 1164 q 316 1056 275 1097 q 425 1014 357 1014 m 383 1246 l 483 1246 l 392 1410 l 267 1410 l 383 1246 "},"Ẳ":{"ha":850,"x_min":21,"x_max":829,"o":"m 21 0 l 146 0 l 217 242 l 633 242 l 704 0 l 829 0 l 535 972 l 315 972 l 21 0 m 249 350 l 417 922 l 433 922 l 601 350 l 249 350 m 425 1014 q 535 1056 494 1014 q 575 1164 575 1097 l 575 1178 l 479 1178 l 479 1161 q 465 1123 479 1139 q 425 1107 451 1107 q 385 1123 399 1107 q 371 1161 371 1139 l 371 1178 l 275 1178 l 275 1164 q 316 1056 275 1097 q 425 1014 357 1014 m 383 1213 l 451 1213 l 431 1307 l 439 1307 q 514 1263 457 1263 q 591 1298 563 1263 q 619 1381 619 1333 q 582 1472 619 1438 q 490 1507 544 1507 q 399 1479 431 1507 q 356 1410 367 1451 l 422 1385 q 442 1423 426 1406 q 489 1440 458 1440 q 527 1426 510 1440 q 544 1382 544 1413 q 530 1343 544 1357 q 496 1329 515 1329 q 461 1349 471 1329 l 356 1349 l 356 1340 l 383 1213 "},"Ẵ":{"ha":850,"x_min":21,"x_max":829,"o":"m 21 0 l 146 0 l 217 242 l 633 242 l 704 0 l 829 0 l 535 972 l 315 972 l 21 0 m 249 350 l 417 922 l 433 922 l 601 350 l 249 350 m 425 1014 q 535 1056 494 1014 q 575 1164 575 1097 l 575 1178 l 479 1178 l 479 1161 q 465 1123 479 1139 q 425 1107 451 1107 q 385 1123 399 1107 q 371 1161 371 1139 l 371 1178 l 275 1178 l 275 1164 q 316 1056 275 1097 q 425 1014 357 1014 m 501 1219 q 562 1236 535 1219 q 610 1278 589 1253 l 667 1346 l 599 1404 l 539 1335 q 522 1318 529 1322 q 507 1314 514 1314 q 487 1324 497 1314 q 460 1360 476 1333 q 421 1408 442 1390 q 360 1426 400 1426 q 297 1409 322 1426 q 251 1368 271 1392 l 193 1300 l 261 1242 l 318 1310 q 339 1328 331 1325 q 354 1332 347 1332 q 400 1285 375 1332 q 443 1236 419 1253 q 501 1219 467 1219 "},"Ǎ":{"ha":850,"x_min":21,"x_max":829,"o":"m 21 0 l 146 0 l 217 242 l 633 242 l 704 0 l 829 0 l 535 972 l 315 972 l 21 0 m 249 350 l 417 922 l 433 922 l 601 350 l 249 350 m 339 1075 l 511 1075 l 622 1239 l 506 1239 l 433 1117 l 417 1117 l 344 1239 l 228 1239 l 339 1075 "},"Â":{"ha":850,"x_min":21,"x_max":829,"o":"m 21 0 l 146 0 l 217 242 l 633 242 l 704 0 l 829 0 l 535 972 l 315 972 l 21 0 m 249 350 l 417 922 l 433 922 l 601 350 l 249 350 m 228 1075 l 344 1075 l 417 1197 l 433 1197 l 506 1075 l 622 1075 l 511 1239 l 339 1239 l 228 1075 "},"Ấ":{"ha":850,"x_min":21,"x_max":829,"o":"m 21 0 l 146 0 l 217 242 l 633 242 l 704 0 l 829 0 l 535 972 l 315 972 l 21 0 m 249 350 l 417 922 l 433 922 l 601 350 l 249 350 m 228 1075 l 344 1075 l 417 1197 l 433 1197 l 506 1075 l 622 1075 l 511 1239 l 339 1239 l 228 1075 m 574 1197 l 674 1197 l 790 1361 l 665 1361 l 574 1197 "},"Ậ":{"ha":850,"x_min":21,"x_max":829,"o":"m 21 0 l 146 0 l 217 242 l 633 242 l 704 0 l 829 0 l 535 972 l 315 972 l 21 0 m 249 350 l 417 922 l 433 922 l 601 350 l 249 350 m 425 -283 q 494 -254 465 -283 q 522 -186 522 -225 q 494 -117 522 -146 q 425 -89 465 -89 q 357 -117 386 -89 q 328 -186 328 -146 q 357 -254 328 -225 q 425 -283 386 -283 m 228 1075 l 344 1075 l 417 1197 l 433 1197 l 506 1075 l 622 1075 l 511 1239 l 339 1239 l 228 1075 "},"Ầ":{"ha":850,"x_min":21,"x_max":829,"o":"m 21 0 l 146 0 l 217 242 l 633 242 l 704 0 l 829 0 l 535 972 l 315 972 l 21 0 m 249 350 l 417 922 l 433 922 l 601 350 l 249 350 m 228 1075 l 344 1075 l 417 1197 l 433 1197 l 506 1075 l 622 1075 l 511 1239 l 339 1239 l 228 1075 m 164 1197 l 264 1197 l 172 1361 l 47 1361 l 164 1197 "},"Ẩ":{"ha":850,"x_min":21,"x_max":829,"o":"m 21 0 l 146 0 l 217 242 l 633 242 l 704 0 l 829 0 l 535 972 l 315 972 l 21 0 m 249 350 l 417 922 l 433 922 l 601 350 l 249 350 m 228 1075 l 344 1075 l 417 1197 l 433 1197 l 506 1075 l 622 1075 l 511 1239 l 339 1239 l 228 1075 m 590 1192 l 658 1192 l 638 1286 l 646 1286 q 721 1242 664 1242 q 798 1277 769 1242 q 826 1360 826 1313 q 789 1451 826 1417 q 697 1486 751 1486 q 606 1458 638 1486 q 563 1389 574 1431 l 629 1364 q 649 1402 633 1385 q 696 1419 665 1419 q 734 1406 717 1419 q 751 1361 751 1392 q 737 1322 751 1336 q 703 1308 722 1308 q 668 1328 678 1308 l 563 1328 l 563 1319 l 590 1192 "},"Ẫ":{"ha":850,"x_min":21,"x_max":829,"o":"m 21 0 l 146 0 l 217 242 l 633 242 l 704 0 l 829 0 l 535 972 l 315 972 l 21 0 m 249 350 l 417 922 l 433 922 l 601 350 l 249 350 m 228 1014 l 344 1014 l 417 1136 l 433 1136 l 506 1014 l 622 1014 l 511 1178 l 339 1178 l 228 1014 m 501 1213 q 562 1229 535 1213 q 610 1271 589 1246 l 667 1339 l 599 1397 l 539 1328 q 522 1311 529 1315 q 507 1307 514 1307 q 487 1317 497 1307 q 460 1353 476 1326 q 421 1401 442 1383 q 360 1419 400 1419 q 297 1402 322 1419 q 251 1361 271 1385 l 193 1293 l 261 1235 l 318 1303 q 339 1322 331 1318 q 354 1325 347 1325 q 400 1278 375 1325 q 443 1229 419 1246 q 501 1213 467 1213 "},"Ä":{"ha":850,"x_min":21,"x_max":829,"o":"m 21 0 l 146 0 l 217 242 l 633 242 l 704 0 l 829 0 l 535 972 l 315 972 l 21 0 m 249 350 l 417 922 l 433 922 l 601 350 l 249 350 m 564 1081 q 633 1110 604 1081 q 661 1178 661 1139 q 633 1247 661 1218 q 564 1275 604 1275 q 496 1247 525 1275 q 467 1178 467 1218 q 496 1110 467 1139 q 564 1081 525 1081 m 286 1081 q 355 1110 326 1081 q 383 1178 383 1139 q 355 1247 383 1218 q 286 1275 326 1275 q 218 1247 247 1275 q 189 1178 189 1218 q 218 1110 189 1139 q 286 1081 247 1081 "},"Ạ":{"ha":850,"x_min":21,"x_max":829,"o":"m 21 0 l 146 0 l 217 242 l 633 242 l 704 0 l 829 0 l 535 972 l 315 972 l 21 0 m 249 350 l 417 922 l 433 922 l 601 350 l 249 350 m 425 -283 q 494 -254 465 -283 q 522 -186 522 -225 q 494 -117 522 -146 q 425 -89 465 -89 q 357 -117 386 -89 q 328 -186 328 -146 q 357 -254 328 -225 q 425 -283 386 -283 "},"À":{"ha":850,"x_min":21,"x_max":829,"o":"m 21 0 l 146 0 l 217 242 l 633 242 l 704 0 l 829 0 l 535 972 l 315 972 l 21 0 m 249 350 l 417 922 l 433 922 l 601 350 l 249 350 m 378 1075 l 478 1075 l 386 1239 l 261 1239 l 378 1075 "},"Ả":{"ha":850,"x_min":21,"x_max":829,"o":"m 21 0 l 146 0 l 217 242 l 633 242 l 704 0 l 829 0 l 535 972 l 315 972 l 21 0 m 249 350 l 417 922 l 433 922 l 601 350 l 249 350 m 378 1042 l 446 1042 l 425 1136 l 433 1136 q 508 1092 451 1092 q 585 1127 557 1092 q 614 1210 614 1163 q 576 1301 614 1267 q 485 1336 539 1336 q 393 1308 425 1336 q 350 1239 361 1281 l 417 1214 q 437 1252 421 1235 q 483 1269 453 1269 q 522 1256 504 1269 q 539 1211 539 1242 q 524 1172 539 1186 q 490 1158 510 1158 q 456 1178 465 1158 l 350 1178 l 350 1169 l 378 1042 "},"Ā":{"ha":850,"x_min":21,"x_max":829,"o":"m 21 0 l 146 0 l 217 242 l 633 242 l 704 0 l 829 0 l 535 972 l 315 972 l 21 0 m 249 350 l 417 922 l 433 922 l 601 350 l 249 350 m 243 1075 l 607 1075 l 607 1167 l 243 1167 l 243 1075 "},"Ą":{"ha":850,"x_min":21,"x_max":867,"o":"m 789 -228 l 867 -228 l 867 -136 l 808 -136 q 776 -106 776 -136 q 776 -102 776 -104 q 778 -94 776 -100 l 800 0 l 829 0 l 535 972 l 315 972 l 21 0 l 146 0 l 217 242 l 633 242 l 704 0 l 685 -92 q 681 -125 681 -112 q 715 -202 681 -176 q 789 -228 749 -228 m 249 350 l 417 922 l 433 922 l 601 350 l 249 350 "},"Å":{"ha":850,"x_min":21,"x_max":829,"o":"m 21 0 l 146 0 l 217 242 l 633 242 l 704 0 l 829 0 l 535 972 l 315 972 l 21 0 m 249 350 l 417 922 l 433 922 l 601 350 l 249 350 m 425 1075 q 526 1116 485 1075 q 567 1217 567 1157 q 526 1317 567 1276 q 425 1358 485 1358 q 324 1317 365 1358 q 283 1217 283 1276 q 324 1116 283 1157 q 425 1075 365 1075 m 425 1158 q 383 1175 400 1158 q 367 1217 367 1192 q 383 1258 367 1242 q 425 1275 400 1275 q 467 1258 450 1275 q 483 1217 483 1242 q 467 1175 483 1192 q 425 1158 450 1158 "},"Ã":{"ha":850,"x_min":21,"x_max":829,"o":"m 21 0 l 146 0 l 217 242 l 633 242 l 704 0 l 829 0 l 535 972 l 315 972 l 21 0 m 249 350 l 417 922 l 433 922 l 601 350 l 249 350 m 496 1049 q 556 1065 529 1049 q 604 1107 583 1082 l 661 1175 l 593 1233 l 533 1164 q 516 1147 524 1151 q 501 1143 508 1143 q 481 1153 492 1143 q 454 1189 471 1163 q 415 1238 436 1219 q 354 1256 394 1256 q 291 1238 317 1256 q 246 1197 265 1221 l 188 1129 l 256 1071 l 313 1139 q 333 1158 325 1154 q 349 1161 342 1161 q 394 1114 369 1161 q 438 1065 414 1082 q 496 1049 461 1049 "},"Æ":{"ha":850,"x_min":21,"x_max":758,"o":"m 21 0 l 146 0 l 217 242 l 417 242 l 417 0 l 758 0 l 758 108 l 533 108 l 533 433 l 742 433 l 742 542 l 533 542 l 533 864 l 750 864 l 750 972 l 315 972 l 21 0 m 249 350 l 400 864 l 417 864 l 417 350 l 249 350 "},"B":{"ha":850,"x_min":79,"x_max":760,"o":"m 79 0 l 472 0 q 686 72 613 0 q 760 254 760 144 l 760 271 q 713 405 760 349 q 596 479 665 461 l 596 496 q 713 569 665 515 q 760 703 760 624 l 760 719 q 686 900 760 828 q 472 972 613 972 l 79 972 l 79 864 l 163 864 l 163 108 l 79 108 l 79 0 m 279 542 l 279 864 l 464 864 q 597 823 546 864 q 649 711 649 782 l 649 703 q 600 585 649 628 q 468 542 551 542 l 279 542 m 279 108 l 279 433 l 468 433 q 600 389 551 433 q 649 271 649 344 l 649 263 q 597 149 649 190 q 464 108 546 108 l 279 108 "},"Ƀ":{"ha":850,"x_min":79,"x_max":760,"o":"m 79 0 l 472 0 q 686 72 613 0 q 760 254 760 144 l 760 271 q 713 405 760 349 q 596 479 665 461 l 596 496 q 713 569 665 515 q 760 703 760 624 l 760 719 q 686 900 760 828 q 472 972 613 972 l 79 972 l 79 864 l 163 864 l 163 325 l 79 325 l 79 217 l 163 217 l 163 108 l 79 108 l 79 0 m 279 542 l 279 864 l 464 864 q 597 823 546 864 q 649 711 649 782 l 649 703 q 600 585 649 628 q 468 542 551 542 l 279 542 m 279 108 l 279 217 l 429 217 l 429 325 l 279 325 l 279 433 l 468 433 q 600 389 551 433 q 649 271 649 344 l 649 263 q 597 149 649 190 q 464 108 546 108 l 279 108 "},"C":{"ha":850,"x_min":89,"x_max":772,"o":"m 431 -19 q 618 28 542 -19 q 733 155 694 75 q 772 333 772 235 l 772 350 l 656 350 l 656 333 q 633 214 656 269 q 560 124 610 158 q 431 89 510 89 q 262 167 318 89 q 206 386 206 244 l 206 586 q 262 801 206 719 q 431 883 318 883 q 559 849 510 883 q 631 758 608 814 q 656 639 654 703 l 656 622 l 772 622 l 772 639 q 733 817 772 738 q 618 944 694 897 q 431 992 542 992 q 180 887 271 992 q 89 594 89 782 l 89 378 q 180 83 89 185 q 431 -19 271 -19 "},"Ć":{"ha":850,"x_min":89,"x_max":772,"o":"m 431 -19 q 618 28 542 -19 q 733 155 694 75 q 772 333 772 235 l 772 350 l 656 350 l 656 333 q 633 214 656 269 q 560 124 610 158 q 431 89 510 89 q 262 167 318 89 q 206 386 206 244 l 206 586 q 262 801 206 719 q 431 883 318 883 q 559 849 510 883 q 631 758 608 814 q 656 639 654 703 l 656 622 l 772 622 l 772 639 q 733 817 772 738 q 618 944 694 897 q 431 992 542 992 q 180 887 271 992 q 89 594 89 782 l 89 378 q 180 83 89 185 q 431 -19 271 -19 m 385 1075 l 485 1075 l 601 1239 l 476 1239 l 385 1075 "},"Č":{"ha":850,"x_min":89,"x_max":772,"o":"m 431 -19 q 618 28 542 -19 q 733 155 694 75 q 772 333 772 235 l 772 350 l 656 350 l 656 333 q 633 214 656 269 q 560 124 610 158 q 431 89 510 89 q 262 167 318 89 q 206 386 206 244 l 206 586 q 262 801 206 719 q 431 883 318 883 q 559 849 510 883 q 631 758 608 814 q 656 639 654 703 l 656 622 l 772 622 l 772 639 q 733 817 772 738 q 618 944 694 897 q 431 992 542 992 q 180 887 271 992 q 89 594 89 782 l 89 378 q 180 83 89 185 q 431 -19 271 -19 m 339 1075 l 511 1075 l 622 1239 l 506 1239 l 433 1117 l 417 1117 l 344 1239 l 228 1239 l 339 1075 "},"Ç":{"ha":850,"x_min":89,"x_max":772,"o":"m 463 -294 q 554 -260 517 -294 q 592 -168 592 -225 q 563 -85 592 -119 q 486 -50 535 -50 q 411 -94 429 -50 l 403 -94 l 419 -19 l 431 -19 q 618 28 542 -19 q 733 155 694 75 q 772 333 772 235 l 772 350 l 656 350 l 656 333 q 633 214 656 269 q 560 124 610 158 q 431 89 510 89 q 262 167 318 89 q 206 386 206 244 l 206 586 q 262 801 206 719 q 431 883 318 883 q 559 849 510 883 q 631 758 608 814 q 656 639 654 703 l 656 622 l 772 622 l 772 639 q 733 817 772 738 q 618 944 694 897 q 431 992 542 992 q 180 887 271 992 q 89 594 89 782 l 89 378 q 158 109 89 208 q 353 -12 228 10 l 328 -128 l 328 -136 l 433 -136 q 468 -117 443 -117 q 502 -131 488 -117 q 517 -169 517 -144 q 499 -214 517 -200 q 461 -228 482 -228 q 415 -210 431 -228 q 394 -172 399 -193 l 328 -197 q 371 -267 339 -239 q 463 -294 403 -294 "},"Ĉ":{"ha":850,"x_min":89,"x_max":772,"o":"m 431 -19 q 618 28 542 -19 q 733 155 694 75 q 772 333 772 235 l 772 350 l 656 350 l 656 333 q 633 214 656 269 q 560 124 610 158 q 431 89 510 89 q 262 167 318 89 q 206 386 206 244 l 206 586 q 262 801 206 719 q 431 883 318 883 q 559 849 510 883 q 631 758 608 814 q 656 639 654 703 l 656 622 l 772 622 l 772 639 q 733 817 772 738 q 618 944 694 897 q 431 992 542 992 q 180 887 271 992 q 89 594 89 782 l 89 378 q 180 83 89 185 q 431 -19 271 -19 m 228 1075 l 344 1075 l 417 1197 l 433 1197 l 506 1075 l 622 1075 l 511 1239 l 339 1239 l 228 1075 "},"Ċ":{"ha":850,"x_min":89,"x_max":772,"o":"m 431 -19 q 618 28 542 -19 q 733 155 694 75 q 772 333 772 235 l 772 350 l 656 350 l 656 333 q 633 214 656 269 q 560 124 610 158 q 431 89 510 89 q 262 167 318 89 q 206 386 206 244 l 206 586 q 262 801 206 719 q 431 883 318 883 q 559 849 510 883 q 631 758 608 814 q 656 639 654 703 l 656 622 l 772 622 l 772 639 q 733 817 772 738 q 618 944 694 897 q 431 992 542 992 q 180 887 271 992 q 89 594 89 782 l 89 378 q 180 83 89 185 q 431 -19 271 -19 m 425 1081 q 494 1110 465 1081 q 522 1178 522 1139 q 494 1247 522 1218 q 425 1275 465 1275 q 357 1247 386 1275 q 328 1178 328 1218 q 357 1110 328 1139 q 425 1081 386 1081 "},"D":{"ha":850,"x_min":101,"x_max":768,"o":"m 101 0 l 421 0 q 684 87 600 0 q 768 361 768 174 l 768 611 q 684 885 768 799 q 421 972 600 972 l 101 972 l 101 864 l 185 864 l 185 110 l 101 110 l 101 0 m 301 108 l 301 864 l 404 864 q 544 841 489 864 q 625 761 599 818 q 651 603 651 704 l 651 369 q 625 211 651 268 q 544 131 599 154 q 404 108 489 108 l 301 108 "},"Ď":{"ha":850,"x_min":101,"x_max":768,"o":"m 101 0 l 421 0 q 684 87 600 0 q 768 361 768 174 l 768 611 q 684 885 768 799 q 421 972 600 972 l 101 972 l 101 864 l 185 864 l 185 110 l 101 110 l 101 0 m 301 108 l 301 864 l 404 864 q 544 841 489 864 q 625 761 599 818 q 651 603 651 704 l 651 369 q 625 211 651 268 q 544 131 599 154 q 404 108 489 108 l 301 108 m 339 1075 l 511 1075 l 622 1239 l 506 1239 l 433 1117 l 417 1117 l 344 1239 l 228 1239 l 339 1075 "},"Đ":{"ha":850,"x_min":101,"x_max":768,"o":"m 101 0 l 421 0 q 684 87 600 0 q 768 361 768 174 l 768 611 q 684 885 768 799 q 421 972 600 972 l 101 972 l 101 864 l 185 864 l 185 540 l 101 540 l 101 432 l 185 432 l 185 108 l 101 108 l 101 0 m 301 108 l 301 432 l 451 432 l 451 540 l 301 540 l 301 864 l 404 864 q 544 841 489 864 q 625 761 599 818 q 651 603 651 704 l 651 369 q 625 211 651 268 q 544 131 599 154 q 404 108 489 108 l 301 108 "},"Ḍ":{"ha":850,"x_min":101,"x_max":768,"o":"m 101 0 l 421 0 q 684 87 600 0 q 768 361 768 174 l 768 611 q 684 885 768 799 q 421 972 600 972 l 101 972 l 101 864 l 185 864 l 185 110 l 101 110 l 101 0 m 301 108 l 301 864 l 404 864 q 544 841 489 864 q 625 761 599 818 q 651 603 651 704 l 651 369 q 625 211 651 268 q 544 131 599 154 q 404 108 489 108 l 301 108 m 425 -283 q 494 -254 465 -283 q 522 -186 522 -225 q 494 -117 522 -146 q 425 -89 465 -89 q 357 -117 386 -89 q 328 -186 328 -146 q 357 -254 328 -225 q 425 -283 386 -283 "},"Ḏ":{"ha":850,"x_min":101,"x_max":768,"o":"m 101 0 l 421 0 q 684 87 600 0 q 768 361 768 174 l 768 611 q 684 885 768 799 q 421 972 600 972 l 101 972 l 101 864 l 185 864 l 185 110 l 101 110 l 101 0 m 301 108 l 301 864 l 404 864 q 544 841 489 864 q 625 761 599 818 q 651 603 651 704 l 651 369 q 625 211 651 268 q 544 131 599 154 q 404 108 489 108 l 301 108 m 229 -181 l 621 -181 l 621 -89 l 229 -89 l 229 -181 "},"Ð":{"ha":850,"x_min":101,"x_max":768,"o":"m 101 0 l 421 0 q 684 87 600 0 q 768 361 768 174 l 768 611 q 684 885 768 799 q 421 972 600 972 l 101 972 l 101 864 l 185 864 l 185 540 l 101 540 l 101 432 l 185 432 l 185 108 l 101 108 l 101 0 m 301 108 l 301 432 l 451 432 l 451 540 l 301 540 l 301 864 l 404 864 q 544 841 489 864 q 625 761 599 818 q 651 603 651 704 l 651 369 q 625 211 651 268 q 544 131 599 154 q 404 108 489 108 l 301 108 "},"E":{"ha":850,"x_min":131,"x_max":728,"o":"m 131 0 l 728 0 l 728 108 l 247 108 l 247 433 l 711 433 l 711 542 l 247 542 l 247 864 l 719 864 l 719 972 l 131 972 l 131 0 "},"É":{"ha":850,"x_min":131,"x_max":728,"o":"m 131 0 l 728 0 l 728 108 l 247 108 l 247 433 l 711 433 l 711 542 l 247 542 l 247 864 l 719 864 l 719 972 l 131 972 l 131 0 m 385 1075 l 485 1075 l 601 1239 l 476 1239 l 385 1075 "},"Ĕ":{"ha":850,"x_min":131,"x_max":728,"o":"m 131 0 l 728 0 l 728 108 l 247 108 l 247 433 l 711 433 l 711 542 l 247 542 l 247 864 l 719 864 l 719 972 l 131 972 l 131 0 m 425 1075 q 535 1117 494 1075 q 575 1225 575 1158 l 575 1239 l 479 1239 l 479 1222 q 465 1184 479 1200 q 425 1168 451 1168 q 385 1184 399 1168 q 371 1222 371 1200 l 371 1239 l 275 1239 l 275 1225 q 316 1117 275 1158 q 425 1075 357 1075 "},"Ě":{"ha":850,"x_min":131,"x_max":728,"o":"m 131 0 l 728 0 l 728 108 l 247 108 l 247 433 l 711 433 l 711 542 l 247 542 l 247 864 l 719 864 l 719 972 l 131 972 l 131 0 m 339 1075 l 511 1075 l 622 1239 l 506 1239 l 433 1117 l 417 1117 l 344 1239 l 228 1239 l 339 1075 "},"Ê":{"ha":850,"x_min":131,"x_max":728,"o":"m 131 0 l 728 0 l 728 108 l 247 108 l 247 433 l 711 433 l 711 542 l 247 542 l 247 864 l 719 864 l 719 972 l 131 972 l 131 0 m 228 1075 l 344 1075 l 417 1197 l 433 1197 l 506 1075 l 622 1075 l 511 1239 l 339 1239 l 228 1075 "},"Ế":{"ha":850,"x_min":131,"x_max":790,"o":"m 131 0 l 728 0 l 728 108 l 247 108 l 247 433 l 711 433 l 711 542 l 247 542 l 247 864 l 719 864 l 719 972 l 131 972 l 131 0 m 228 1075 l 344 1075 l 417 1197 l 433 1197 l 506 1075 l 622 1075 l 511 1239 l 339 1239 l 228 1075 m 574 1197 l 674 1197 l 790 1361 l 665 1361 l 574 1197 "},"Ệ":{"ha":850,"x_min":131,"x_max":728,"o":"m 131 0 l 728 0 l 728 108 l 247 108 l 247 433 l 711 433 l 711 542 l 247 542 l 247 864 l 719 864 l 719 972 l 131 972 l 131 0 m 425 -283 q 494 -254 465 -283 q 522 -186 522 -225 q 494 -117 522 -146 q 425 -89 465 -89 q 357 -117 386 -89 q 328 -186 328 -146 q 357 -254 328 -225 q 425 -283 386 -283 m 228 1075 l 344 1075 l 417 1197 l 433 1197 l 506 1075 l 622 1075 l 511 1239 l 339 1239 l 228 1075 "},"Ề":{"ha":850,"x_min":47,"x_max":728,"o":"m 131 0 l 728 0 l 728 108 l 247 108 l 247 433 l 711 433 l 711 542 l 247 542 l 247 864 l 719 864 l 719 972 l 131 972 l 131 0 m 228 1075 l 344 1075 l 417 1197 l 433 1197 l 506 1075 l 622 1075 l 511 1239 l 339 1239 l 228 1075 m 164 1197 l 264 1197 l 172 1361 l 47 1361 l 164 1197 "},"Ể":{"ha":850,"x_min":131,"x_max":826,"o":"m 131 0 l 728 0 l 728 108 l 247 108 l 247 433 l 711 433 l 711 542 l 247 542 l 247 864 l 719 864 l 719 972 l 131 972 l 131 0 m 228 1075 l 344 1075 l 417 1197 l 433 1197 l 506 1075 l 622 1075 l 511 1239 l 339 1239 l 228 1075 m 590 1192 l 658 1192 l 638 1286 l 646 1286 q 721 1242 664 1242 q 798 1277 769 1242 q 826 1360 826 1313 q 789 1451 826 1417 q 697 1486 751 1486 q 606 1458 638 1486 q 563 1389 574 1431 l 629 1364 q 649 1402 633 1385 q 696 1419 665 1419 q 734 1406 717 1419 q 751 1361 751 1392 q 737 1322 751 1336 q 703 1308 722 1308 q 668 1328 678 1308 l 563 1328 l 563 1319 l 590 1192 "},"Ễ":{"ha":850,"x_min":131,"x_max":728,"o":"m 131 0 l 728 0 l 728 108 l 247 108 l 247 433 l 711 433 l 711 542 l 247 542 l 247 864 l 719 864 l 719 972 l 131 972 l 131 0 m 228 1015 l 344 1015 l 417 1138 l 433 1138 l 506 1015 l 622 1015 l 511 1179 l 339 1179 l 228 1015 m 501 1214 q 562 1231 535 1214 q 610 1272 589 1247 l 667 1340 l 599 1399 l 539 1329 q 522 1313 529 1317 q 507 1308 514 1308 q 487 1318 497 1308 q 460 1354 476 1328 q 421 1403 442 1385 q 360 1421 400 1421 q 297 1403 322 1421 q 251 1363 271 1386 l 193 1294 l 261 1236 l 318 1304 q 339 1323 331 1319 q 354 1326 347 1326 q 400 1279 375 1326 q 443 1231 419 1247 q 501 1214 467 1214 "},"Ë":{"ha":850,"x_min":131,"x_max":728,"o":"m 131 0 l 728 0 l 728 108 l 247 108 l 247 433 l 711 433 l 711 542 l 247 542 l 247 864 l 719 864 l 719 972 l 131 972 l 131 0 m 564 1081 q 633 1110 604 1081 q 661 1178 661 1139 q 633 1247 661 1218 q 564 1275 604 1275 q 496 1247 525 1275 q 467 1178 467 1218 q 496 1110 467 1139 q 564 1081 525 1081 m 286 1081 q 355 1110 326 1081 q 383 1178 383 1139 q 355 1247 383 1218 q 286 1275 326 1275 q 218 1247 247 1275 q 189 1178 189 1218 q 218 1110 189 1139 q 286 1081 247 1081 "},"Ė":{"ha":850,"x_min":131,"x_max":728,"o":"m 131 0 l 728 0 l 728 108 l 247 108 l 247 433 l 711 433 l 711 542 l 247 542 l 247 864 l 719 864 l 719 972 l 131 972 l 131 0 m 425 1081 q 494 1110 465 1081 q 522 1178 522 1139 q 494 1247 522 1218 q 425 1275 465 1275 q 357 1247 386 1275 q 328 1178 328 1218 q 357 1110 328 1139 q 425 1081 386 1081 "},"Ẹ":{"ha":850,"x_min":131,"x_max":728,"o":"m 131 0 l 728 0 l 728 108 l 247 108 l 247 433 l 711 433 l 711 542 l 247 542 l 247 864 l 719 864 l 719 972 l 131 972 l 131 0 m 425 -283 q 494 -254 465 -283 q 522 -186 522 -225 q 494 -117 522 -146 q 425 -89 465 -89 q 357 -117 386 -89 q 328 -186 328 -146 q 357 -254 328 -225 q 425 -283 386 -283 "},"È":{"ha":850,"x_min":131,"x_max":728,"o":"m 131 0 l 728 0 l 728 108 l 247 108 l 247 433 l 711 433 l 711 542 l 247 542 l 247 864 l 719 864 l 719 972 l 131 972 l 131 0 m 378 1075 l 478 1075 l 386 1239 l 261 1239 l 378 1075 "},"Ẻ":{"ha":850,"x_min":131,"x_max":728,"o":"m 131 0 l 728 0 l 728 108 l 247 108 l 247 433 l 711 433 l 711 542 l 247 542 l 247 864 l 719 864 l 719 972 l 131 972 l 131 0 m 378 1042 l 446 1042 l 425 1136 l 433 1136 q 508 1092 451 1092 q 585 1127 557 1092 q 614 1210 614 1163 q 576 1301 614 1267 q 485 1336 539 1336 q 393 1308 425 1336 q 350 1239 361 1281 l 417 1214 q 437 1252 421 1235 q 483 1269 453 1269 q 522 1256 504 1269 q 539 1211 539 1242 q 524 1172 539 1186 q 490 1158 510 1158 q 456 1178 465 1158 l 350 1178 l 350 1169 l 378 1042 "},"Ē":{"ha":850,"x_min":131,"x_max":728,"o":"m 131 0 l 728 0 l 728 108 l 247 108 l 247 433 l 711 433 l 711 542 l 247 542 l 247 864 l 719 864 l 719 972 l 131 972 l 131 0 m 243 1075 l 607 1075 l 607 1167 l 243 1167 l 243 1075 "},"Ę":{"ha":850,"x_min":131,"x_max":794,"o":"m 717 -228 l 794 -228 l 794 -136 l 736 -136 q 704 -106 704 -136 q 704 -102 704 -104 q 706 -94 704 -100 l 728 0 l 728 108 l 247 108 l 247 433 l 711 433 l 711 542 l 247 542 l 247 864 l 719 864 l 719 972 l 131 972 l 131 0 l 632 0 l 613 -92 q 608 -125 608 -112 q 642 -202 608 -176 q 717 -228 675 -228 "},"Ẽ":{"ha":850,"x_min":131,"x_max":728,"o":"m 131 0 l 728 0 l 728 108 l 247 108 l 247 433 l 711 433 l 711 542 l 247 542 l 247 864 l 719 864 l 719 972 l 131 972 l 131 0 m 496 1049 q 556 1065 529 1049 q 604 1107 583 1082 l 661 1175 l 593 1233 l 533 1164 q 516 1147 524 1151 q 501 1143 508 1143 q 481 1153 492 1143 q 454 1189 471 1163 q 415 1238 436 1219 q 354 1256 394 1256 q 291 1238 317 1256 q 246 1197 265 1221 l 188 1129 l 256 1071 l 313 1139 q 333 1158 325 1154 q 349 1161 342 1161 q 394 1114 369 1161 q 438 1065 414 1082 q 496 1049 461 1049 "},"Ə":{"ha":850,"x_min":83,"x_max":767,"o":"m 425 -19 q 676 83 586 -19 q 767 378 767 185 l 767 594 q 676 887 767 782 q 425 992 586 992 q 238 944 314 992 q 122 817 161 897 q 83 639 83 738 l 83 622 l 200 622 l 200 639 q 224 759 201 703 q 297 851 247 815 q 425 886 346 886 q 594 803 538 886 q 650 586 650 719 l 650 503 l 83 503 l 83 333 q 122 155 83 235 q 238 28 161 75 q 425 -19 314 -19 m 425 86 q 297 122 346 86 q 224 213 247 157 q 200 333 200 269 l 200 394 l 650 394 l 650 386 q 594 165 650 244 q 425 86 538 86 "},"F":{"ha":850,"x_min":132,"x_max":729,"o":"m 132 0 l 249 0 l 249 433 l 721 433 l 721 542 l 249 542 l 249 864 l 729 864 l 729 972 l 132 972 l 132 0 "},"G":{"ha":850,"x_min":82,"x_max":765,"o":"m 418 -19 q 558 19 497 -19 q 640 117 618 57 l 657 117 l 657 0 l 765 0 l 765 467 l 332 467 l 332 358 l 649 358 l 649 342 q 589 156 649 224 q 426 89 529 89 q 256 167 313 89 q 199 386 199 244 l 199 586 q 255 801 199 719 q 424 883 311 883 q 553 849 503 883 q 626 758 603 814 q 649 639 649 703 l 649 622 l 765 622 l 765 639 q 726 817 765 738 q 611 944 688 897 q 424 992 535 992 q 173 887 264 992 q 82 594 82 782 l 82 378 q 172 83 82 185 q 418 -19 263 -19 "},"Ğ":{"ha":850,"x_min":82,"x_max":765,"o":"m 418 -19 q 558 19 497 -19 q 640 117 618 57 l 657 117 l 657 0 l 765 0 l 765 467 l 332 467 l 332 358 l 649 358 l 649 342 q 589 156 649 224 q 426 89 529 89 q 256 167 313 89 q 199 386 199 244 l 199 586 q 255 801 199 719 q 424 883 311 883 q 553 849 503 883 q 626 758 603 814 q 649 639 649 703 l 649 622 l 765 622 l 765 639 q 726 817 765 738 q 611 944 688 897 q 424 992 535 992 q 173 887 264 992 q 82 594 82 782 l 82 378 q 172 83 82 185 q 418 -19 263 -19 m 425 1075 q 535 1117 494 1075 q 575 1225 575 1158 l 575 1239 l 479 1239 l 479 1222 q 465 1184 479 1200 q 425 1168 451 1168 q 385 1184 399 1168 q 371 1222 371 1200 l 371 1239 l 275 1239 l 275 1225 q 316 1117 275 1158 q 425 1075 357 1075 "},"Ǧ":{"ha":850,"x_min":82,"x_max":765,"o":"m 418 -19 q 558 19 497 -19 q 640 117 618 57 l 657 117 l 657 0 l 765 0 l 765 467 l 332 467 l 332 358 l 649 358 l 649 342 q 589 156 649 224 q 426 89 529 89 q 256 167 313 89 q 199 386 199 244 l 199 586 q 255 801 199 719 q 424 883 311 883 q 553 849 503 883 q 626 758 603 814 q 649 639 649 703 l 649 622 l 765 622 l 765 639 q 726 817 765 738 q 611 944 688 897 q 424 992 535 992 q 173 887 264 992 q 82 594 82 782 l 82 378 q 172 83 82 185 q 418 -19 263 -19 m 339 1075 l 511 1075 l 622 1239 l 506 1239 l 433 1117 l 417 1117 l 344 1239 l 228 1239 l 339 1075 "},"Ĝ":{"ha":850,"x_min":82,"x_max":765,"o":"m 418 -19 q 558 19 497 -19 q 640 117 618 57 l 657 117 l 657 0 l 765 0 l 765 467 l 332 467 l 332 358 l 649 358 l 649 342 q 589 156 649 224 q 426 89 529 89 q 256 167 313 89 q 199 386 199 244 l 199 586 q 255 801 199 719 q 424 883 311 883 q 553 849 503 883 q 626 758 603 814 q 649 639 649 703 l 649 622 l 765 622 l 765 639 q 726 817 765 738 q 611 944 688 897 q 424 992 535 992 q 173 887 264 992 q 82 594 82 782 l 82 378 q 172 83 82 185 q 418 -19 263 -19 m 228 1075 l 344 1075 l 417 1197 l 433 1197 l 506 1075 l 622 1075 l 511 1239 l 339 1239 l 228 1075 "},"Ģ":{"ha":850,"x_min":82,"x_max":765,"o":"m 418 -19 q 558 19 497 -19 q 640 117 618 57 l 657 117 l 657 0 l 765 0 l 765 467 l 332 467 l 332 358 l 649 358 l 649 342 q 589 156 649 224 q 426 89 529 89 q 256 167 313 89 q 199 386 199 244 l 199 586 q 255 801 199 719 q 424 883 311 883 q 553 849 503 883 q 626 758 603 814 q 649 639 649 703 l 649 622 l 765 622 l 765 639 q 726 817 765 738 q 611 944 688 897 q 424 992 535 992 q 173 887 264 992 q 82 594 82 782 l 82 378 q 172 83 82 185 q 418 -19 263 -19 m 342 -406 l 413 -406 q 490 -375 460 -406 q 519 -297 519 -344 l 519 -161 q 491 -92 519 -121 q 422 -64 463 -64 q 354 -92 383 -64 q 325 -161 325 -121 q 353 -229 325 -200 q 421 -258 382 -258 q 444 -254 435 -258 l 444 -289 q 407 -331 444 -331 l 342 -331 l 342 -406 "},"Ġ":{"ha":850,"x_min":82,"x_max":765,"o":"m 418 -19 q 558 19 497 -19 q 640 117 618 57 l 657 117 l 657 0 l 765 0 l 765 467 l 332 467 l 332 358 l 649 358 l 649 342 q 589 156 649 224 q 426 89 529 89 q 256 167 313 89 q 199 386 199 244 l 199 586 q 255 801 199 719 q 424 883 311 883 q 553 849 503 883 q 626 758 603 814 q 649 639 649 703 l 649 622 l 765 622 l 765 639 q 726 817 765 738 q 611 944 688 897 q 424 992 535 992 q 173 887 264 992 q 82 594 82 782 l 82 378 q 172 83 82 185 q 418 -19 263 -19 m 425 1081 q 494 1110 465 1081 q 522 1178 522 1139 q 494 1247 522 1218 q 425 1275 465 1275 q 357 1247 386 1275 q 328 1178 328 1218 q 357 1110 328 1139 q 425 1081 386 1081 "},"Ḡ":{"ha":850,"x_min":82,"x_max":765,"o":"m 418 -19 q 558 19 497 -19 q 640 117 618 57 l 657 117 l 657 0 l 765 0 l 765 467 l 332 467 l 332 358 l 649 358 l 649 342 q 589 156 649 224 q 426 89 529 89 q 256 167 313 89 q 199 386 199 244 l 199 586 q 255 801 199 719 q 424 883 311 883 q 553 849 503 883 q 626 758 603 814 q 649 639 649 703 l 649 622 l 765 622 l 765 639 q 726 817 765 738 q 611 944 688 897 q 424 992 535 992 q 173 887 264 992 q 82 594 82 782 l 82 378 q 172 83 82 185 q 418 -19 263 -19 m 243 1075 l 607 1075 l 607 1167 l 243 1167 l 243 1075 "},"H":{"ha":850,"x_min":101,"x_max":749,"o":"m 101 0 l 218 0 l 218 433 l 632 433 l 632 0 l 749 0 l 749 972 l 632 972 l 632 542 l 218 542 l 218 972 l 101 972 l 101 0 "},"Ħ":{"ha":850,"x_min":18,"x_max":832,"o":"m 101 0 l 218 0 l 218 433 l 632 433 l 632 0 l 749 0 l 749 689 l 832 689 l 832 797 l 749 797 l 749 972 l 632 972 l 632 797 l 218 797 l 218 972 l 101 972 l 101 797 l 18 797 l 18 689 l 101 689 l 101 0 m 218 542 l 218 689 l 632 689 l 632 542 l 218 542 "},"Ḫ":{"ha":850,"x_min":101,"x_max":749,"o":"m 101 0 l 218 0 l 218 433 l 632 433 l 632 0 l 749 0 l 749 972 l 632 972 l 632 542 l 218 542 l 218 972 l 101 972 l 101 0 m 425 -253 q 535 -211 494 -253 q 575 -103 575 -169 l 575 -89 l 479 -89 l 479 -106 q 465 -144 479 -128 q 425 -160 451 -160 q 385 -144 399 -160 q 371 -106 371 -128 l 371 -89 l 275 -89 l 275 -103 q 316 -211 275 -169 q 425 -253 357 -253 "},"Ĥ":{"ha":850,"x_min":101,"x_max":749,"o":"m 101 0 l 218 0 l 218 433 l 632 433 l 632 0 l 749 0 l 749 972 l 632 972 l 632 542 l 218 542 l 218 972 l 101 972 l 101 0 m 228 1075 l 344 1075 l 417 1197 l 433 1197 l 506 1075 l 622 1075 l 511 1239 l 339 1239 l 228 1075 "},"Ḥ":{"ha":850,"x_min":101,"x_max":749,"o":"m 101 0 l 218 0 l 218 433 l 632 433 l 632 0 l 749 0 l 749 972 l 632 972 l 632 542 l 218 542 l 218 972 l 101 972 l 101 0 m 425 -283 q 494 -254 465 -283 q 522 -186 522 -225 q 494 -117 522 -146 q 425 -89 465 -89 q 357 -117 386 -89 q 328 -186 328 -146 q 357 -254 328 -225 q 425 -283 386 -283 "},"I":{"ha":850,"x_min":117,"x_max":733,"o":"m 117 0 l 733 0 l 733 108 l 483 108 l 483 864 l 733 864 l 733 972 l 117 972 l 117 864 l 367 864 l 367 108 l 117 108 l 117 0 "},"Ĳ":{"ha":850,"x_min":101,"x_max":785,"o":"m 410 -19 q 626 61 551 -19 q 701 292 701 142 l 701 864 l 785 864 l 785 972 l 485 972 l 485 864 l 585 864 l 585 292 q 546 144 585 200 q 410 89 507 89 q 265 144 313 89 q 218 292 218 200 l 218 367 l 101 367 l 101 292 q 185 61 101 142 q 410 -19 268 -19 m 101 475 l 218 475 l 218 972 l 101 972 l 101 475 "},"Í":{"ha":850,"x_min":117,"x_max":733,"o":"m 117 0 l 733 0 l 733 108 l 483 108 l 483 864 l 733 864 l 733 972 l 117 972 l 117 864 l 367 864 l 367 108 l 117 108 l 117 0 m 388 1075 l 488 1075 l 604 1239 l 479 1239 l 388 1075 "},"Ĭ":{"ha":850,"x_min":117,"x_max":733,"o":"m 117 0 l 733 0 l 733 108 l 483 108 l 483 864 l 733 864 l 733 972 l 117 972 l 117 864 l 367 864 l 367 108 l 117 108 l 117 0 m 428 1075 q 538 1117 497 1075 q 578 1225 578 1158 l 578 1239 l 482 1239 l 482 1222 q 468 1184 482 1200 q 428 1168 454 1168 q 388 1184 401 1168 q 374 1222 374 1200 l 374 1239 l 278 1239 l 278 1225 q 319 1117 278 1158 q 428 1075 360 1075 "},"Ǐ":{"ha":850,"x_min":117,"x_max":733,"o":"m 117 0 l 733 0 l 733 108 l 483 108 l 483 864 l 733 864 l 733 972 l 117 972 l 117 864 l 367 864 l 367 108 l 117 108 l 117 0 m 342 1075 l 514 1075 l 625 1239 l 508 1239 l 436 1117 l 419 1117 l 347 1239 l 231 1239 l 342 1075 "},"Î":{"ha":850,"x_min":117,"x_max":733,"o":"m 117 0 l 733 0 l 733 108 l 483 108 l 483 864 l 733 864 l 733 972 l 117 972 l 117 864 l 367 864 l 367 108 l 117 108 l 117 0 m 231 1075 l 347 1075 l 419 1197 l 436 1197 l 508 1075 l 625 1075 l 514 1239 l 342 1239 l 231 1075 "},"Ï":{"ha":850,"x_min":117,"x_max":733,"o":"m 117 0 l 733 0 l 733 108 l 483 108 l 483 864 l 733 864 l 733 972 l 117 972 l 117 864 l 367 864 l 367 108 l 117 108 l 117 0 m 567 1081 q 635 1110 607 1081 q 664 1178 664 1139 q 635 1247 664 1218 q 567 1275 607 1275 q 499 1247 528 1275 q 469 1178 469 1218 q 499 1110 469 1139 q 567 1081 528 1081 m 289 1081 q 358 1110 329 1081 q 386 1178 386 1139 q 358 1247 386 1218 q 289 1275 329 1275 q 221 1247 250 1275 q 192 1178 192 1218 q 221 1110 192 1139 q 289 1081 250 1081 "},"İ":{"ha":850,"x_min":117,"x_max":733,"o":"m 117 0 l 733 0 l 733 108 l 483 108 l 483 864 l 733 864 l 733 972 l 117 972 l 117 864 l 367 864 l 367 108 l 117 108 l 117 0 m 428 1081 q 497 1110 468 1081 q 525 1178 525 1139 q 497 1247 525 1218 q 428 1275 468 1275 q 360 1247 389 1275 q 331 1178 331 1218 q 360 1110 331 1139 q 428 1081 389 1081 "},"Ị":{"ha":850,"x_min":117,"x_max":733,"o":"m 117 0 l 733 0 l 733 108 l 483 108 l 483 864 l 733 864 l 733 972 l 117 972 l 117 864 l 367 864 l 367 108 l 117 108 l 117 0 m 425 -283 q 494 -254 465 -283 q 522 -186 522 -225 q 494 -117 522 -146 q 425 -89 465 -89 q 357 -117 386 -89 q 328 -186 328 -146 q 357 -254 328 -225 q 425 -283 386 -283 "},"Ì":{"ha":850,"x_min":117,"x_max":733,"o":"m 117 0 l 733 0 l 733 108 l 483 108 l 483 864 l 733 864 l 733 972 l 117 972 l 117 864 l 367 864 l 367 108 l 117 108 l 117 0 m 381 1075 l 481 1075 l 389 1239 l 264 1239 l 381 1075 "},"Ỉ":{"ha":850,"x_min":117,"x_max":733,"o":"m 117 0 l 733 0 l 733 108 l 483 108 l 483 864 l 733 864 l 733 972 l 117 972 l 117 864 l 367 864 l 367 108 l 117 108 l 117 0 m 381 1042 l 449 1042 l 428 1136 l 436 1136 q 511 1092 454 1092 q 588 1127 560 1092 q 617 1210 617 1163 q 579 1301 617 1267 q 488 1336 542 1336 q 396 1308 428 1336 q 353 1239 364 1281 l 419 1214 q 440 1252 424 1235 q 486 1269 456 1269 q 524 1256 507 1269 q 542 1211 542 1242 q 527 1172 542 1186 q 493 1158 513 1158 q 458 1178 468 1158 l 353 1178 l 353 1169 l 381 1042 "},"Ī":{"ha":850,"x_min":117,"x_max":733,"o":"m 117 0 l 733 0 l 733 108 l 483 108 l 483 864 l 733 864 l 733 972 l 117 972 l 117 864 l 367 864 l 367 108 l 117 108 l 117 0 m 246 1075 l 610 1075 l 610 1167 l 246 1167 l 246 1075 "},"Į":{"ha":850,"x_min":117,"x_max":800,"o":"m 722 -228 l 800 -228 l 800 -136 l 742 -136 q 710 -106 710 -136 q 710 -102 710 -104 q 711 -94 710 -100 l 733 0 l 733 108 l 483 108 l 483 864 l 733 864 l 733 972 l 117 972 l 117 864 l 367 864 l 367 108 l 117 108 l 117 0 l 638 0 l 618 -92 q 614 -125 614 -112 q 647 -202 614 -176 q 722 -228 681 -228 "},"Ĩ":{"ha":850,"x_min":117,"x_max":733,"o":"m 117 0 l 733 0 l 733 108 l 483 108 l 483 864 l 733 864 l 733 972 l 117 972 l 117 864 l 367 864 l 367 108 l 117 108 l 117 0 m 499 1049 q 559 1065 532 1049 q 607 1107 586 1082 l 664 1175 l 596 1233 l 536 1164 q 519 1147 526 1151 q 504 1143 511 1143 q 484 1153 494 1143 q 457 1189 474 1163 q 418 1238 439 1219 q 357 1256 397 1256 q 294 1238 319 1256 q 249 1197 268 1221 l 190 1129 l 258 1071 l 315 1139 q 336 1158 328 1154 q 351 1161 344 1161 q 397 1114 372 1161 q 440 1065 417 1082 q 499 1049 464 1049 "},"J":{"ha":850,"x_min":101,"x_max":785,"o":"m 410 -19 q 626 61 551 -19 q 701 292 701 142 l 701 864 l 785 864 l 785 972 l 485 972 l 485 864 l 585 864 l 585 292 q 546 144 585 200 q 410 89 507 89 q 265 144 313 89 q 218 292 218 200 l 218 367 l 101 367 l 101 292 q 185 61 101 142 q 410 -19 268 -19 "},"Ĵ":{"ha":850,"x_min":101,"x_max":832,"o":"m 410 -19 q 626 61 551 -19 q 701 292 701 142 l 701 864 l 785 864 l 785 972 l 485 972 l 485 864 l 585 864 l 585 292 q 546 144 585 200 q 410 89 507 89 q 265 144 313 89 q 218 292 218 200 l 218 367 l 101 367 l 101 292 q 185 61 101 142 q 410 -19 268 -19 m 438 1075 l 554 1075 l 626 1197 l 643 1197 l 715 1075 l 832 1075 l 721 1239 l 549 1239 l 438 1075 "},"K":{"ha":850,"x_min":124,"x_max":807,"o":"m 124 0 l 240 0 l 240 433 l 272 433 l 660 0 l 807 0 l 807 8 l 388 478 l 388 494 l 790 964 l 790 972 l 646 972 l 272 542 l 240 542 l 240 972 l 124 972 l 124 0 "},"Ķ":{"ha":850,"x_min":124,"x_max":807,"o":"m 124 0 l 240 0 l 240 433 l 272 433 l 660 0 l 807 0 l 807 8 l 388 478 l 388 494 l 790 964 l 790 972 l 646 972 l 272 542 l 240 542 l 240 972 l 124 972 l 124 0 m 358 -406 l 429 -406 q 506 -375 476 -406 q 536 -297 536 -344 l 536 -161 q 508 -92 536 -121 q 439 -64 479 -64 q 371 -92 400 -64 q 342 -161 342 -121 q 370 -229 342 -200 q 438 -258 399 -258 q 461 -254 451 -258 l 461 -289 q 424 -331 461 -331 l 358 -331 l 358 -406 "},"L":{"ha":850,"x_min":121,"x_max":746,"o":"m 121 0 l 746 0 l 746 108 l 238 108 l 238 972 l 121 972 l 121 0 "},"Ĺ":{"ha":850,"x_min":121,"x_max":746,"o":"m 121 0 l 746 0 l 746 108 l 238 108 l 238 972 l 121 972 l 121 0 m 132 1075 l 232 1075 l 349 1239 l 224 1239 l 132 1075 "},"Ľ":{"ha":850,"x_min":121,"x_max":747,"o":"m 121 0 l 746 0 l 746 108 l 238 108 l 238 972 l 121 972 l 121 0 m 569 631 l 640 631 q 717 661 688 631 q 747 739 747 692 l 747 875 q 719 944 747 915 q 650 972 690 972 q 582 944 611 972 q 553 875 553 915 q 581 807 553 836 q 649 778 610 778 q 672 782 663 778 l 672 747 q 635 706 672 706 l 569 706 l 569 631 "},"Ļ":{"ha":850,"x_min":121,"x_max":746,"o":"m 121 0 l 746 0 l 746 108 l 238 108 l 238 972 l 121 972 l 121 0 m 354 -406 l 425 -406 q 502 -375 472 -406 q 532 -297 532 -344 l 532 -161 q 503 -92 532 -121 q 435 -64 475 -64 q 367 -92 396 -64 q 338 -161 338 -121 q 366 -229 338 -200 q 433 -258 394 -258 q 457 -254 447 -258 l 457 -289 q 419 -331 457 -331 l 354 -331 l 354 -406 "},"Ḷ":{"ha":850,"x_min":121,"x_max":746,"o":"m 121 0 l 746 0 l 746 108 l 238 108 l 238 972 l 121 972 l 121 0 m 435 -283 q 503 -254 475 -283 q 532 -186 532 -225 q 503 -117 532 -146 q 435 -89 475 -89 q 367 -117 396 -89 q 338 -186 338 -146 q 367 -254 338 -225 q 435 -283 396 -283 "},"Ḹ":{"ha":850,"x_min":92,"x_max":746,"o":"m 121 0 l 746 0 l 746 108 l 238 108 l 238 972 l 121 972 l 121 0 m 435 -283 q 503 -254 475 -283 q 532 -186 532 -225 q 503 -117 532 -146 q 435 -89 475 -89 q 367 -117 396 -89 q 338 -186 338 -146 q 367 -254 338 -225 q 435 -283 396 -283 m 92 1075 l 456 1075 l 456 1167 l 92 1167 l 92 1075 "},"Ḻ":{"ha":850,"x_min":121,"x_max":746,"o":"m 121 0 l 746 0 l 746 108 l 238 108 l 238 972 l 121 972 l 121 0 m 239 -181 l 631 -181 l 631 -89 l 239 -89 l 239 -181 "},"Ł":{"ha":850,"x_min":33,"x_max":767,"o":"m 167 0 l 767 0 l 767 108 l 283 108 l 283 440 l 415 508 l 368 601 l 283 558 l 283 972 l 167 972 l 167 499 l 33 432 l 82 338 l 167 381 l 167 0 "},"M":{"ha":850,"x_min":64,"x_max":786,"o":"m 64 0 l 172 0 l 172 922 l 189 922 l 319 0 l 531 0 l 661 922 l 678 922 l 678 0 l 786 0 l 786 972 l 564 972 l 433 50 l 417 50 l 286 972 l 64 972 l 64 0 "},"Ṃ":{"ha":850,"x_min":64,"x_max":786,"o":"m 64 0 l 172 0 l 172 922 l 189 922 l 319 0 l 531 0 l 661 922 l 678 922 l 678 0 l 786 0 l 786 972 l 564 972 l 433 50 l 417 50 l 286 972 l 64 972 l 64 0 m 425 -283 q 494 -254 465 -283 q 522 -186 522 -225 q 494 -117 522 -146 q 425 -89 465 -89 q 357 -117 386 -89 q 328 -186 328 -146 q 357 -254 328 -225 q 425 -283 386 -283 "},"N":{"ha":850,"x_min":101,"x_max":749,"o":"m 101 0 l 218 0 l 218 922 l 235 922 l 515 0 l 749 0 l 749 972 l 632 972 l 632 50 l 615 50 l 335 972 l 101 972 l 101 0 "},"Ń":{"ha":850,"x_min":101,"x_max":749,"o":"m 101 0 l 218 0 l 218 922 l 235 922 l 515 0 l 749 0 l 749 972 l 632 972 l 632 50 l 615 50 l 335 972 l 101 972 l 101 0 m 410 1075 l 510 1075 l 626 1239 l 501 1239 l 410 1075 "},"Ň":{"ha":850,"x_min":101,"x_max":749,"o":"m 101 0 l 218 0 l 218 922 l 235 922 l 515 0 l 749 0 l 749 972 l 632 972 l 632 50 l 615 50 l 335 972 l 101 972 l 101 0 m 364 1075 l 536 1075 l 647 1239 l 531 1239 l 458 1117 l 442 1117 l 369 1239 l 253 1239 l 364 1075 "},"Ņ":{"ha":850,"x_min":101,"x_max":749,"o":"m 101 0 l 218 0 l 218 922 l 235 922 l 515 0 l 749 0 l 749 972 l 632 972 l 632 50 l 615 50 l 335 972 l 101 972 l 101 0 m 344 -406 l 415 -406 q 492 -375 463 -406 q 522 -297 522 -344 l 522 -161 q 494 -92 522 -121 q 425 -64 465 -64 q 357 -92 386 -64 q 328 -161 328 -121 q 356 -229 328 -200 q 424 -258 385 -258 q 447 -254 438 -258 l 447 -289 q 410 -331 447 -331 l 344 -331 l 344 -406 "},"Ṅ":{"ha":850,"x_min":101,"x_max":749,"o":"m 101 0 l 218 0 l 218 922 l 235 922 l 515 0 l 749 0 l 749 972 l 632 972 l 632 50 l 615 50 l 335 972 l 101 972 l 101 0 m 450 1081 q 519 1110 490 1081 q 547 1178 547 1139 q 519 1247 547 1218 q 450 1275 490 1275 q 382 1247 411 1275 q 353 1178 353 1218 q 382 1110 353 1139 q 450 1081 411 1081 "},"Ṇ":{"ha":850,"x_min":101,"x_max":749,"o":"m 101 0 l 218 0 l 218 922 l 235 922 l 515 0 l 749 0 l 749 972 l 632 972 l 632 50 l 615 50 l 335 972 l 101 972 l 101 0 m 425 -283 q 494 -254 465 -283 q 522 -186 522 -225 q 494 -117 522 -146 q 425 -89 465 -89 q 357 -117 386 -89 q 328 -186 328 -146 q 357 -254 328 -225 q 425 -283 386 -283 "},"Ṉ":{"ha":850,"x_min":101,"x_max":749,"o":"m 101 0 l 218 0 l 218 922 l 235 922 l 515 0 l 749 0 l 749 972 l 632 972 l 632 50 l 615 50 l 335 972 l 101 972 l 101 0 m 229 -181 l 621 -181 l 621 -89 l 229 -89 l 229 -181 "},"Ñ":{"ha":850,"x_min":101,"x_max":749,"o":"m 101 0 l 218 0 l 218 922 l 235 922 l 515 0 l 749 0 l 749 972 l 632 972 l 632 50 l 615 50 l 335 972 l 101 972 l 101 0 m 521 1049 q 581 1065 554 1049 q 629 1107 608 1082 l 686 1175 l 618 1233 l 558 1164 q 541 1147 549 1151 q 526 1143 533 1143 q 506 1153 517 1143 q 479 1189 496 1163 q 440 1238 461 1219 q 379 1256 419 1256 q 316 1238 342 1256 q 271 1197 290 1221 l 213 1129 l 281 1071 l 338 1139 q 358 1158 350 1154 q 374 1161 367 1161 q 419 1114 394 1161 q 463 1065 439 1082 q 521 1049 486 1049 "},"Ŋ":{"ha":850,"x_min":101,"x_max":749,"o":"m 335 -278 l 582 -278 q 706 -235 664 -278 q 749 -111 749 -192 l 749 972 l 632 972 l 632 50 l 615 50 l 335 972 l 101 972 l 101 0 l 218 0 l 218 922 l 235 922 l 515 0 l 632 0 l 632 -94 q 615 -149 632 -129 q 557 -169 599 -169 l 335 -169 l 335 -278 "},"O":{"ha":850,"x_min":83,"x_max":767,"o":"m 425 -19 q 676 83 586 -19 q 767 378 767 185 l 767 594 q 676 887 767 782 q 425 992 586 992 q 174 887 265 992 q 83 594 83 782 l 83 378 q 174 83 83 185 q 425 -19 265 -19 m 425 89 q 256 167 313 89 q 200 386 200 244 l 200 586 q 256 801 200 719 q 425 883 313 883 q 594 801 538 883 q 650 586 650 719 l 650 386 q 594 167 650 244 q 425 89 538 89 "},"Ó":{"ha":850,"x_min":83,"x_max":767,"o":"m 425 -19 q 676 83 586 -19 q 767 378 767 185 l 767 594 q 676 887 767 782 q 425 992 586 992 q 174 887 265 992 q 83 594 83 782 l 83 378 q 174 83 83 185 q 425 -19 265 -19 m 425 89 q 256 167 313 89 q 200 386 200 244 l 200 586 q 256 801 200 719 q 425 883 313 883 q 594 801 538 883 q 650 586 650 719 l 650 386 q 594 167 650 244 q 425 89 538 89 m 385 1075 l 485 1075 l 601 1239 l 476 1239 l 385 1075 "},"Ŏ":{"ha":850,"x_min":83,"x_max":767,"o":"m 425 -19 q 676 83 586 -19 q 767 378 767 185 l 767 594 q 676 887 767 782 q 425 992 586 992 q 174 887 265 992 q 83 594 83 782 l 83 378 q 174 83 83 185 q 425 -19 265 -19 m 425 89 q 256 167 313 89 q 200 386 200 244 l 200 586 q 256 801 200 719 q 425 883 313 883 q 594 801 538 883 q 650 586 650 719 l 650 386 q 594 167 650 244 q 425 89 538 89 m 425 1075 q 535 1117 494 1075 q 575 1225 575 1158 l 575 1239 l 479 1239 l 479 1222 q 465 1184 479 1200 q 425 1168 451 1168 q 385 1184 399 1168 q 371 1222 371 1200 l 371 1239 l 275 1239 l 275 1225 q 316 1117 275 1158 q 425 1075 357 1075 "},"Ǒ":{"ha":850,"x_min":83,"x_max":767,"o":"m 425 -19 q 676 83 586 -19 q 767 378 767 185 l 767 594 q 676 887 767 782 q 425 992 586 992 q 174 887 265 992 q 83 594 83 782 l 83 378 q 174 83 83 185 q 425 -19 265 -19 m 425 89 q 256 167 313 89 q 200 386 200 244 l 200 586 q 256 801 200 719 q 425 883 313 883 q 594 801 538 883 q 650 586 650 719 l 650 386 q 594 167 650 244 q 425 89 538 89 m 339 1075 l 511 1075 l 622 1239 l 506 1239 l 433 1117 l 417 1117 l 344 1239 l 228 1239 l 339 1075 "},"Ô":{"ha":850,"x_min":83,"x_max":767,"o":"m 425 -19 q 676 83 586 -19 q 767 378 767 185 l 767 594 q 676 887 767 782 q 425 992 586 992 q 174 887 265 992 q 83 594 83 782 l 83 378 q 174 83 83 185 q 425 -19 265 -19 m 425 89 q 256 167 313 89 q 200 386 200 244 l 200 586 q 256 801 200 719 q 425 883 313 883 q 594 801 538 883 q 650 586 650 719 l 650 386 q 594 167 650 244 q 425 89 538 89 m 228 1075 l 344 1075 l 417 1197 l 433 1197 l 506 1075 l 622 1075 l 511 1239 l 339 1239 l 228 1075 "},"Ố":{"ha":850,"x_min":83,"x_max":790,"o":"m 425 -19 q 676 83 586 -19 q 767 378 767 185 l 767 594 q 676 887 767 782 q 425 992 586 992 q 174 887 265 992 q 83 594 83 782 l 83 378 q 174 83 83 185 q 425 -19 265 -19 m 425 89 q 256 167 313 89 q 200 386 200 244 l 200 586 q 256 801 200 719 q 425 883 313 883 q 594 801 538 883 q 650 586 650 719 l 650 386 q 594 167 650 244 q 425 89 538 89 m 228 1075 l 344 1075 l 417 1197 l 433 1197 l 506 1075 l 622 1075 l 511 1239 l 339 1239 l 228 1075 m 574 1197 l 674 1197 l 790 1361 l 665 1361 l 574 1197 "},"Ộ":{"ha":850,"x_min":83,"x_max":767,"o":"m 425 -19 q 676 83 586 -19 q 767 378 767 185 l 767 594 q 676 887 767 782 q 425 992 586 992 q 174 887 265 992 q 83 594 83 782 l 83 378 q 174 83 83 185 q 425 -19 265 -19 m 425 89 q 256 167 313 89 q 200 386 200 244 l 200 586 q 256 801 200 719 q 425 883 313 883 q 594 801 538 883 q 650 586 650 719 l 650 386 q 594 167 650 244 q 425 89 538 89 m 425 -283 q 494 -254 465 -283 q 522 -186 522 -225 q 494 -117 522 -146 q 425 -89 465 -89 q 357 -117 386 -89 q 328 -186 328 -146 q 357 -254 328 -225 q 425 -283 386 -283 m 228 1075 l 344 1075 l 417 1197 l 433 1197 l 506 1075 l 622 1075 l 511 1239 l 339 1239 l 228 1075 "},"Ồ":{"ha":850,"x_min":47,"x_max":767,"o":"m 425 -19 q 676 83 586 -19 q 767 378 767 185 l 767 594 q 676 887 767 782 q 425 992 586 992 q 174 887 265 992 q 83 594 83 782 l 83 378 q 174 83 83 185 q 425 -19 265 -19 m 425 89 q 256 167 313 89 q 200 386 200 244 l 200 586 q 256 801 200 719 q 425 883 313 883 q 594 801 538 883 q 650 586 650 719 l 650 386 q 594 167 650 244 q 425 89 538 89 m 228 1075 l 344 1075 l 417 1197 l 433 1197 l 506 1075 l 622 1075 l 511 1239 l 339 1239 l 228 1075 m 164 1197 l 264 1197 l 172 1361 l 47 1361 l 164 1197 "},"Ổ":{"ha":850,"x_min":83,"x_max":826,"o":"m 425 -19 q 676 83 586 -19 q 767 378 767 185 l 767 594 q 676 887 767 782 q 425 992 586 992 q 174 887 265 992 q 83 594 83 782 l 83 378 q 174 83 83 185 q 425 -19 265 -19 m 425 89 q 256 167 313 89 q 200 386 200 244 l 200 586 q 256 801 200 719 q 425 883 313 883 q 594 801 538 883 q 650 586 650 719 l 650 386 q 594 167 650 244 q 425 89 538 89 m 228 1075 l 344 1075 l 417 1197 l 433 1197 l 506 1075 l 622 1075 l 511 1239 l 339 1239 l 228 1075 m 590 1192 l 658 1192 l 638 1286 l 646 1286 q 721 1242 664 1242 q 798 1277 769 1242 q 826 1360 826 1313 q 789 1451 826 1417 q 697 1486 751 1486 q 606 1458 638 1486 q 563 1389 574 1431 l 629 1364 q 649 1402 633 1385 q 696 1419 665 1419 q 734 1406 717 1419 q 751 1361 751 1392 q 737 1322 751 1336 q 703 1308 722 1308 q 668 1328 678 1308 l 563 1328 l 563 1319 l 590 1192 "},"Ỗ":{"ha":850,"x_min":83,"x_max":767,"o":"m 425 -19 q 676 83 586 -19 q 767 378 767 185 l 767 594 q 676 887 767 782 q 425 992 586 992 q 174 887 265 992 q 83 594 83 782 l 83 378 q 174 83 83 185 q 425 -19 265 -19 m 425 89 q 256 167 313 89 q 200 386 200 244 l 200 586 q 256 801 200 719 q 425 883 313 883 q 594 801 538 883 q 650 586 650 719 l 650 386 q 594 167 650 244 q 425 89 538 89 m 228 1013 l 344 1013 l 417 1135 l 433 1135 l 506 1013 l 622 1013 l 511 1176 l 339 1176 l 228 1013 m 501 1211 q 562 1228 535 1211 q 610 1269 589 1244 l 667 1338 l 599 1396 l 539 1326 q 522 1310 529 1314 q 507 1306 514 1306 q 487 1315 497 1306 q 460 1351 476 1325 q 421 1400 442 1382 q 360 1418 400 1418 q 297 1401 322 1418 q 251 1360 271 1383 l 193 1292 l 261 1233 l 318 1301 q 339 1320 331 1317 q 354 1324 347 1324 q 400 1276 375 1324 q 443 1228 419 1244 q 501 1211 467 1211 "},"Ö":{"ha":850,"x_min":83,"x_max":767,"o":"m 425 -19 q 676 83 586 -19 q 767 378 767 185 l 767 594 q 676 887 767 782 q 425 992 586 992 q 174 887 265 992 q 83 594 83 782 l 83 378 q 174 83 83 185 q 425 -19 265 -19 m 425 89 q 256 167 313 89 q 200 386 200 244 l 200 586 q 256 801 200 719 q 425 883 313 883 q 594 801 538 883 q 650 586 650 719 l 650 386 q 594 167 650 244 q 425 89 538 89 m 564 1081 q 633 1110 604 1081 q 661 1178 661 1139 q 633 1247 661 1218 q 564 1275 604 1275 q 496 1247 525 1275 q 467 1178 467 1218 q 496 1110 467 1139 q 564 1081 525 1081 m 286 1081 q 355 1110 326 1081 q 383 1178 383 1139 q 355 1247 383 1218 q 286 1275 326 1275 q 218 1247 247 1275 q 189 1178 189 1218 q 218 1110 189 1139 q 286 1081 247 1081 "},"Ọ":{"ha":850,"x_min":83,"x_max":767,"o":"m 425 -19 q 676 83 586 -19 q 767 378 767 185 l 767 594 q 676 887 767 782 q 425 992 586 992 q 174 887 265 992 q 83 594 83 782 l 83 378 q 174 83 83 185 q 425 -19 265 -19 m 425 89 q 256 167 313 89 q 200 386 200 244 l 200 586 q 256 801 200 719 q 425 883 313 883 q 594 801 538 883 q 650 586 650 719 l 650 386 q 594 167 650 244 q 425 89 538 89 m 425 -283 q 494 -254 465 -283 q 522 -186 522 -225 q 494 -117 522 -146 q 425 -89 465 -89 q 357 -117 386 -89 q 328 -186 328 -146 q 357 -254 328 -225 q 425 -283 386 -283 "},"Ò":{"ha":850,"x_min":83,"x_max":767,"o":"m 425 -19 q 676 83 586 -19 q 767 378 767 185 l 767 594 q 676 887 767 782 q 425 992 586 992 q 174 887 265 992 q 83 594 83 782 l 83 378 q 174 83 83 185 q 425 -19 265 -19 m 425 89 q 256 167 313 89 q 200 386 200 244 l 200 586 q 256 801 200 719 q 425 883 313 883 q 594 801 538 883 q 650 586 650 719 l 650 386 q 594 167 650 244 q 425 89 538 89 m 378 1075 l 478 1075 l 386 1239 l 261 1239 l 378 1075 "},"Ỏ":{"ha":850,"x_min":83,"x_max":767,"o":"m 425 -19 q 676 83 586 -19 q 767 378 767 185 l 767 594 q 676 887 767 782 q 425 992 586 992 q 174 887 265 992 q 83 594 83 782 l 83 378 q 174 83 83 185 q 425 -19 265 -19 m 425 89 q 256 167 313 89 q 200 386 200 244 l 200 586 q 256 801 200 719 q 425 883 313 883 q 594 801 538 883 q 650 586 650 719 l 650 386 q 594 167 650 244 q 425 89 538 89 m 378 1042 l 446 1042 l 425 1136 l 433 1136 q 508 1092 451 1092 q 585 1127 557 1092 q 614 1210 614 1163 q 576 1301 614 1267 q 485 1336 539 1336 q 393 1308 425 1336 q 350 1239 361 1281 l 417 1214 q 437 1252 421 1235 q 483 1269 453 1269 q 522 1256 504 1269 q 539 1211 539 1242 q 524 1172 539 1186 q 490 1158 510 1158 q 456 1178 465 1158 l 350 1178 l 350 1169 l 378 1042 "},"Ơ":{"ha":850,"x_min":53,"x_max":824,"o":"m 336 -19 q 544 62 469 -19 q 619 303 619 143 l 619 631 l 717 631 q 794 661 764 631 q 824 739 824 692 l 824 875 q 795 944 824 915 q 726 972 767 972 q 658 944 688 972 q 629 875 629 915 q 658 807 629 836 q 725 778 686 778 q 749 782 739 778 l 749 747 q 711 706 749 706 l 618 706 q 535 917 608 842 q 336 992 461 992 q 127 905 201 992 q 53 661 53 818 l 53 303 q 128 62 53 143 q 336 -19 203 -19 m 336 86 q 210 142 251 86 q 169 311 169 197 l 169 661 q 209 827 169 768 q 336 886 249 886 q 463 827 424 886 q 503 661 503 768 l 503 311 q 463 142 503 197 q 336 86 422 86 "},"Ớ":{"ha":850,"x_min":53,"x_max":824,"o":"m 336 -19 q 544 62 469 -19 q 619 303 619 143 l 619 631 l 717 631 q 794 661 764 631 q 824 739 824 692 l 824 875 q 795 944 824 915 q 726 972 767 972 q 658 944 688 972 q 629 875 629 915 q 658 807 629 836 q 725 778 686 778 q 749 782 739 778 l 749 747 q 711 706 749 706 l 618 706 q 535 917 608 842 q 336 992 461 992 q 127 905 201 992 q 53 661 53 818 l 53 303 q 128 62 53 143 q 336 -19 203 -19 m 336 86 q 210 142 251 86 q 169 311 169 197 l 169 661 q 209 827 169 768 q 336 886 249 886 q 463 827 424 886 q 503 661 503 768 l 503 311 q 463 142 503 197 q 336 86 422 86 m 296 1075 l 396 1075 l 513 1239 l 388 1239 l 296 1075 "},"Ợ":{"ha":850,"x_min":53,"x_max":824,"o":"m 336 -19 q 544 62 469 -19 q 619 303 619 143 l 619 631 l 717 631 q 794 661 764 631 q 824 739 824 692 l 824 875 q 795 944 824 915 q 726 972 767 972 q 658 944 688 972 q 629 875 629 915 q 658 807 629 836 q 725 778 686 778 q 749 782 739 778 l 749 747 q 711 706 749 706 l 618 706 q 535 917 608 842 q 336 992 461 992 q 127 905 201 992 q 53 661 53 818 l 53 303 q 128 62 53 143 q 336 -19 203 -19 m 336 86 q 210 142 251 86 q 169 311 169 197 l 169 661 q 209 827 169 768 q 336 886 249 886 q 463 827 424 886 q 503 661 503 768 l 503 311 q 463 142 503 197 q 336 86 422 86 m 338 -283 q 406 -254 378 -283 q 435 -186 435 -225 q 406 -117 435 -146 q 338 -89 378 -89 q 269 -117 299 -89 q 240 -186 240 -146 q 269 -254 240 -225 q 338 -283 299 -283 "},"Ờ":{"ha":850,"x_min":53,"x_max":824,"o":"m 336 -19 q 544 62 469 -19 q 619 303 619 143 l 619 631 l 717 631 q 794 661 764 631 q 824 739 824 692 l 824 875 q 795 944 824 915 q 726 972 767 972 q 658 944 688 972 q 629 875 629 915 q 658 807 629 836 q 725 778 686 778 q 749 782 739 778 l 749 747 q 711 706 749 706 l 618 706 q 535 917 608 842 q 336 992 461 992 q 127 905 201 992 q 53 661 53 818 l 53 303 q 128 62 53 143 q 336 -19 203 -19 m 336 86 q 210 142 251 86 q 169 311 169 197 l 169 661 q 209 827 169 768 q 336 886 249 886 q 463 827 424 886 q 503 661 503 768 l 503 311 q 463 142 503 197 q 336 86 422 86 m 289 1075 l 389 1075 l 297 1239 l 172 1239 l 289 1075 "},"Ở":{"ha":850,"x_min":53,"x_max":824,"o":"m 336 -19 q 544 62 469 -19 q 619 303 619 143 l 619 631 l 717 631 q 794 661 764 631 q 824 739 824 692 l 824 875 q 795 944 824 915 q 726 972 767 972 q 658 944 688 972 q 629 875 629 915 q 658 807 629 836 q 725 778 686 778 q 749 782 739 778 l 749 747 q 711 706 749 706 l 618 706 q 535 917 608 842 q 336 992 461 992 q 127 905 201 992 q 53 661 53 818 l 53 303 q 128 62 53 143 q 336 -19 203 -19 m 336 86 q 210 142 251 86 q 169 311 169 197 l 169 661 q 209 827 169 768 q 336 886 249 886 q 463 827 424 886 q 503 661 503 768 l 503 311 q 463 142 503 197 q 336 86 422 86 m 289 1042 l 357 1042 l 336 1136 l 344 1136 q 419 1092 363 1092 q 497 1127 468 1092 q 525 1210 525 1163 q 488 1301 525 1267 q 396 1336 450 1336 q 304 1308 336 1336 q 261 1239 272 1281 l 328 1214 q 348 1252 332 1235 q 394 1269 364 1269 q 433 1256 415 1269 q 450 1211 450 1242 q 435 1172 450 1186 q 401 1158 421 1158 q 367 1178 376 1158 l 261 1178 l 261 1169 l 289 1042 "},"Ỡ":{"ha":850,"x_min":53,"x_max":824,"o":"m 336 -19 q 544 62 469 -19 q 619 303 619 143 l 619 631 l 717 631 q 794 661 764 631 q 824 739 824 692 l 824 875 q 795 944 824 915 q 726 972 767 972 q 658 944 688 972 q 629 875 629 915 q 658 807 629 836 q 725 778 686 778 q 749 782 739 778 l 749 747 q 711 706 749 706 l 618 706 q 535 917 608 842 q 336 992 461 992 q 127 905 201 992 q 53 661 53 818 l 53 303 q 128 62 53 143 q 336 -19 203 -19 m 336 86 q 210 142 251 86 q 169 311 169 197 l 169 661 q 209 827 169 768 q 336 886 249 886 q 463 827 424 886 q 503 661 503 768 l 503 311 q 463 142 503 197 q 336 86 422 86 m 407 1049 q 467 1065 440 1049 q 515 1107 494 1082 l 572 1175 l 504 1233 l 444 1164 q 427 1147 435 1151 q 413 1143 419 1143 q 392 1153 403 1143 q 365 1189 382 1163 q 326 1238 347 1219 q 265 1256 306 1256 q 202 1238 228 1256 q 157 1197 176 1221 l 99 1129 l 167 1071 l 224 1139 q 244 1158 236 1154 q 260 1161 253 1161 q 306 1114 281 1161 q 349 1065 325 1082 q 407 1049 372 1049 "},"Ő":{"ha":850,"x_min":83,"x_max":767,"o":"m 425 -19 q 676 83 586 -19 q 767 378 767 185 l 767 594 q 676 887 767 782 q 425 992 586 992 q 174 887 265 992 q 83 594 83 782 l 83 378 q 174 83 83 185 q 425 -19 265 -19 m 425 89 q 256 167 313 89 q 200 386 200 244 l 200 586 q 256 801 200 719 q 425 883 313 883 q 594 801 538 883 q 650 586 650 719 l 650 386 q 594 167 650 244 q 425 89 538 89 m 467 1075 l 567 1075 l 683 1239 l 558 1239 l 467 1075 m 267 1075 l 367 1075 l 483 1239 l 358 1239 l 267 1075 "},"Ō":{"ha":850,"x_min":83,"x_max":767,"o":"m 425 -19 q 676 83 586 -19 q 767 378 767 185 l 767 594 q 676 887 767 782 q 425 992 586 992 q 174 887 265 992 q 83 594 83 782 l 83 378 q 174 83 83 185 q 425 -19 265 -19 m 425 89 q 256 167 313 89 q 200 386 200 244 l 200 586 q 256 801 200 719 q 425 883 313 883 q 594 801 538 883 q 650 586 650 719 l 650 386 q 594 167 650 244 q 425 89 538 89 m 243 1075 l 607 1075 l 607 1167 l 243 1167 l 243 1075 "},"Ǫ":{"ha":850,"x_min":83,"x_max":767,"o":"m 463 -228 l 540 -228 l 540 -136 l 482 -136 q 450 -106 450 -136 q 450 -102 450 -104 q 451 -94 450 -100 l 469 -17 q 688 97 610 -4 q 767 378 767 197 l 767 594 q 676 887 767 782 q 425 992 586 992 q 174 887 265 992 q 83 594 83 782 l 83 378 q 160 99 83 200 q 375 -17 238 -1 l 358 -92 q 354 -125 354 -112 q 388 -202 354 -176 q 463 -228 422 -228 m 425 89 q 256 167 313 89 q 200 386 200 244 l 200 586 q 256 801 200 719 q 425 883 313 883 q 594 801 538 883 q 650 586 650 719 l 650 386 q 594 167 650 244 q 425 89 538 89 "},"Ø":{"ha":850,"x_min":83,"x_max":767,"o":"m 281 -119 l 318 -6 q 425 -19 364 -19 q 676 83 586 -19 q 767 378 767 185 l 767 594 q 730 798 767 713 q 625 932 693 883 l 663 1044 l 565 1075 l 533 976 q 425 992 481 992 q 174 887 265 992 q 83 594 83 782 l 83 378 q 119 170 83 256 q 224 38 156 85 l 182 -89 l 281 -119 m 263 157 q 200 386 200 235 l 200 586 q 256 801 200 719 q 425 883 313 883 q 499 872 463 883 l 263 157 m 425 89 q 387 91 406 89 q 353 99 368 93 l 586 811 q 650 586 650 731 l 650 386 q 594 167 650 244 q 425 89 538 89 "},"Õ":{"ha":850,"x_min":83,"x_max":767,"o":"m 425 -19 q 676 83 586 -19 q 767 378 767 185 l 767 594 q 676 887 767 782 q 425 992 586 992 q 174 887 265 992 q 83 594 83 782 l 83 378 q 174 83 83 185 q 425 -19 265 -19 m 425 89 q 256 167 313 89 q 200 386 200 244 l 200 586 q 256 801 200 719 q 425 883 313 883 q 594 801 538 883 q 650 586 650 719 l 650 386 q 594 167 650 244 q 425 89 538 89 m 496 1049 q 556 1065 529 1049 q 604 1107 583 1082 l 661 1175 l 593 1233 l 533 1164 q 516 1147 524 1151 q 501 1143 508 1143 q 481 1153 492 1143 q 454 1189 471 1163 q 415 1238 436 1219 q 354 1256 394 1256 q 291 1238 317 1256 q 246 1197 265 1221 l 188 1129 l 256 1071 l 313 1139 q 333 1158 325 1154 q 349 1161 342 1161 q 394 1114 369 1161 q 438 1065 414 1082 q 496 1049 461 1049 "},"Œ":{"ha":850,"x_min":75,"x_max":758,"o":"m 417 0 l 758 0 l 758 108 l 533 108 l 533 433 l 742 433 l 742 542 l 533 542 l 533 864 l 750 864 l 750 972 l 417 972 q 166 867 257 972 q 75 575 75 763 l 75 397 q 166 102 75 204 q 417 0 257 0 m 417 108 q 248 186 304 108 q 192 406 192 264 l 192 567 q 248 782 192 700 q 417 864 304 864 l 417 108 "},"P":{"ha":850,"x_min":118,"x_max":763,"o":"m 118 0 l 235 0 l 235 400 l 465 400 q 630 437 564 400 q 729 535 696 474 q 763 667 763 596 l 763 708 q 730 839 763 779 q 631 935 697 899 q 465 972 565 972 l 118 972 l 118 0 m 235 508 l 235 864 l 451 864 q 598 819 550 864 q 646 700 646 774 l 646 675 q 451 508 646 508 l 235 508 "},"Þ":{"ha":850,"x_min":118,"x_max":763,"o":"m 118 0 l 235 0 l 235 208 l 465 208 q 630 246 564 208 q 729 344 696 283 q 763 475 763 404 l 763 517 q 730 647 763 588 q 631 744 697 707 q 465 781 565 781 l 235 781 l 235 972 l 118 972 l 118 0 m 235 317 l 235 672 l 451 672 q 598 627 550 672 q 646 508 646 582 l 646 483 q 451 317 646 317 l 235 317 "},"Q":{"ha":850,"x_min":83,"x_max":767,"o":"m 478 -217 l 633 -217 l 633 -117 l 517 -117 q 479 -75 479 -117 l 479 -17 q 691 100 615 -1 q 767 378 767 201 l 767 594 q 676 887 767 782 q 425 992 586 992 q 174 887 265 992 q 83 594 83 782 l 83 378 q 159 101 83 201 q 371 -17 235 0 l 371 -108 q 401 -186 371 -156 q 478 -217 431 -217 m 425 89 q 256 167 313 89 q 200 386 200 244 l 200 586 q 256 801 200 719 q 425 883 313 883 q 594 801 538 883 q 650 586 650 719 l 650 386 q 594 167 650 244 q 425 89 538 89 "},"R":{"ha":850,"x_min":118,"x_max":763,"o":"m 118 0 l 235 0 l 235 400 l 538 400 q 596 381 579 400 q 613 325 613 361 l 613 0 l 729 0 l 729 350 q 706 426 729 399 q 640 458 682 453 l 640 475 q 733 558 703 504 q 763 667 763 613 l 763 708 q 730 839 763 779 q 631 935 697 899 q 465 972 565 972 l 118 972 l 118 0 m 235 508 l 235 864 l 451 864 q 598 819 550 864 q 646 700 646 774 l 646 675 q 451 508 646 508 l 235 508 "},"Ŕ":{"ha":850,"x_min":118,"x_max":763,"o":"m 118 0 l 235 0 l 235 400 l 538 400 q 596 381 579 400 q 613 325 613 361 l 613 0 l 729 0 l 729 350 q 706 426 729 399 q 640 458 682 453 l 640 475 q 733 558 703 504 q 763 667 763 613 l 763 708 q 730 839 763 779 q 631 935 697 899 q 465 972 565 972 l 118 972 l 118 0 m 235 508 l 235 864 l 451 864 q 598 819 550 864 q 646 700 646 774 l 646 675 q 451 508 646 508 l 235 508 m 353 1075 l 453 1075 l 569 1239 l 444 1239 l 353 1075 "},"Ř":{"ha":850,"x_min":118,"x_max":763,"o":"m 118 0 l 235 0 l 235 400 l 538 400 q 596 381 579 400 q 613 325 613 361 l 613 0 l 729 0 l 729 350 q 706 426 729 399 q 640 458 682 453 l 640 475 q 733 558 703 504 q 763 667 763 613 l 763 708 q 730 839 763 779 q 631 935 697 899 q 465 972 565 972 l 118 972 l 118 0 m 235 508 l 235 864 l 451 864 q 598 819 550 864 q 646 700 646 774 l 646 675 q 451 508 646 508 l 235 508 m 307 1075 l 479 1075 l 590 1239 l 474 1239 l 401 1117 l 385 1117 l 313 1239 l 196 1239 l 307 1075 "},"Ŗ":{"ha":850,"x_min":118,"x_max":763,"o":"m 118 0 l 235 0 l 235 400 l 538 400 q 596 381 579 400 q 613 325 613 361 l 613 0 l 729 0 l 729 350 q 706 426 729 399 q 640 458 682 453 l 640 475 q 733 558 703 504 q 763 667 763 613 l 763 708 q 730 839 763 779 q 631 935 697 899 q 465 972 565 972 l 118 972 l 118 0 m 235 508 l 235 864 l 451 864 q 598 819 550 864 q 646 700 646 774 l 646 675 q 451 508 646 508 l 235 508 m 344 -406 l 415 -406 q 492 -375 463 -406 q 522 -297 522 -344 l 522 -161 q 494 -92 522 -121 q 425 -64 465 -64 q 357 -92 386 -64 q 328 -161 328 -121 q 356 -229 328 -200 q 424 -258 385 -258 q 447 -254 438 -258 l 447 -289 q 410 -331 447 -331 l 344 -331 l 344 -406 "},"Ṛ":{"ha":850,"x_min":118,"x_max":763,"o":"m 118 0 l 235 0 l 235 400 l 538 400 q 596 381 579 400 q 613 325 613 361 l 613 0 l 729 0 l 729 350 q 706 426 729 399 q 640 458 682 453 l 640 475 q 733 558 703 504 q 763 667 763 613 l 763 708 q 730 839 763 779 q 631 935 697 899 q 465 972 565 972 l 118 972 l 118 0 m 235 508 l 235 864 l 451 864 q 598 819 550 864 q 646 700 646 774 l 646 675 q 451 508 646 508 l 235 508 m 425 -283 q 494 -254 465 -283 q 522 -186 522 -225 q 494 -117 522 -146 q 425 -89 465 -89 q 357 -117 386 -89 q 328 -186 328 -146 q 357 -254 328 -225 q 425 -283 386 -283 "},"Ṝ":{"ha":850,"x_min":118,"x_max":763,"o":"m 118 0 l 235 0 l 235 400 l 538 400 q 596 381 579 400 q 613 325 613 361 l 613 0 l 729 0 l 729 350 q 706 426 729 399 q 640 458 682 453 l 640 475 q 733 558 703 504 q 763 667 763 613 l 763 708 q 730 839 763 779 q 631 935 697 899 q 465 972 565 972 l 118 972 l 118 0 m 235 508 l 235 864 l 451 864 q 598 819 550 864 q 646 700 646 774 l 646 675 q 451 508 646 508 l 235 508 m 425 -283 q 494 -254 465 -283 q 522 -186 522 -225 q 494 -117 522 -146 q 425 -89 465 -89 q 357 -117 386 -89 q 328 -186 328 -146 q 357 -254 328 -225 q 425 -283 386 -283 m 211 1075 l 575 1075 l 575 1167 l 211 1167 l 211 1075 "},"Ṟ":{"ha":850,"x_min":118,"x_max":763,"o":"m 118 0 l 235 0 l 235 400 l 538 400 q 596 381 579 400 q 613 325 613 361 l 613 0 l 729 0 l 729 350 q 706 426 729 399 q 640 458 682 453 l 640 475 q 733 558 703 504 q 763 667 763 613 l 763 708 q 730 839 763 779 q 631 935 697 899 q 465 972 565 972 l 118 972 l 118 0 m 235 508 l 235 864 l 451 864 q 598 819 550 864 q 646 700 646 774 l 646 675 q 451 508 646 508 l 235 508 m 229 -181 l 621 -181 l 621 -89 l 229 -89 l 229 -181 "},"S":{"ha":850,"x_min":63,"x_max":779,"o":"m 444 -19 q 694 59 608 -19 q 779 264 779 138 l 779 281 q 707 458 779 392 q 482 547 635 525 q 286 603 351 567 q 221 721 221 640 l 221 729 q 249 813 221 779 q 324 865 278 847 q 424 883 371 883 q 538 862 485 883 q 622 798 590 840 q 654 692 654 756 l 654 642 l 771 642 l 771 700 q 730 845 771 779 q 612 951 689 911 q 425 992 535 992 q 258 958 331 992 q 145 867 186 925 q 104 733 104 810 l 104 717 q 191 530 104 592 q 424 447 278 468 q 606 389 550 429 q 663 272 663 349 l 663 264 q 608 138 663 186 q 444 89 553 89 q 250 153 321 89 q 179 344 179 218 l 179 378 l 63 378 l 63 336 q 106 154 63 235 q 235 27 150 74 q 444 -19 319 -19 "},"Ś":{"ha":850,"x_min":63,"x_max":779,"o":"m 444 -19 q 694 59 608 -19 q 779 264 779 138 l 779 281 q 707 458 779 392 q 482 547 635 525 q 286 603 351 567 q 221 721 221 640 l 221 729 q 249 813 221 779 q 324 865 278 847 q 424 883 371 883 q 538 862 485 883 q 622 798 590 840 q 654 692 654 756 l 654 642 l 771 642 l 771 700 q 730 845 771 779 q 612 951 689 911 q 425 992 535 992 q 258 958 331 992 q 145 867 186 925 q 104 733 104 810 l 104 717 q 191 530 104 592 q 424 447 278 468 q 606 389 550 429 q 663 272 663 349 l 663 264 q 608 138 663 186 q 444 89 553 89 q 250 153 321 89 q 179 344 179 218 l 179 378 l 63 378 l 63 336 q 106 154 63 235 q 235 27 150 74 q 444 -19 319 -19 m 379 1075 l 479 1075 l 596 1239 l 471 1239 l 379 1075 "},"Š":{"ha":850,"x_min":63,"x_max":779,"o":"m 444 -19 q 694 59 608 -19 q 779 264 779 138 l 779 281 q 707 458 779 392 q 482 547 635 525 q 286 603 351 567 q 221 721 221 640 l 221 729 q 249 813 221 779 q 324 865 278 847 q 424 883 371 883 q 538 862 485 883 q 622 798 590 840 q 654 692 654 756 l 654 642 l 771 642 l 771 700 q 730 845 771 779 q 612 951 689 911 q 425 992 535 992 q 258 958 331 992 q 145 867 186 925 q 104 733 104 810 l 104 717 q 191 530 104 592 q 424 447 278 468 q 606 389 550 429 q 663 272 663 349 l 663 264 q 608 138 663 186 q 444 89 553 89 q 250 153 321 89 q 179 344 179 218 l 179 378 l 63 378 l 63 336 q 106 154 63 235 q 235 27 150 74 q 444 -19 319 -19 m 333 1075 l 506 1075 l 617 1239 l 500 1239 l 428 1117 l 411 1117 l 339 1239 l 222 1239 l 333 1075 "},"Ş":{"ha":850,"x_min":63,"x_max":779,"o":"m 476 -294 q 568 -260 531 -294 q 606 -168 606 -225 q 577 -85 606 -119 q 500 -50 549 -50 q 425 -94 443 -50 l 417 -94 l 433 -19 l 444 -19 q 694 59 608 -19 q 779 264 779 138 l 779 281 q 707 458 779 392 q 482 547 635 525 q 286 603 351 567 q 221 721 221 640 l 221 729 q 249 813 221 779 q 324 865 278 847 q 424 883 371 883 q 538 862 485 883 q 622 798 590 840 q 654 692 654 756 l 654 642 l 771 642 l 771 700 q 730 845 771 779 q 612 951 689 911 q 425 992 535 992 q 258 958 331 992 q 145 867 186 925 q 104 733 104 810 l 104 717 q 191 530 104 592 q 424 447 278 468 q 606 389 550 429 q 663 272 663 349 l 663 264 q 608 138 663 186 q 444 89 553 89 q 250 153 321 89 q 179 344 179 218 l 179 378 l 63 378 l 63 336 q 140 105 63 201 q 367 -14 218 8 l 342 -128 l 342 -136 l 447 -136 q 482 -117 457 -117 q 516 -131 501 -117 q 531 -169 531 -144 q 513 -214 531 -200 q 475 -228 496 -228 q 428 -210 444 -228 q 408 -172 413 -193 l 342 -197 q 385 -267 353 -239 q 476 -294 417 -294 "},"Ŝ":{"ha":850,"x_min":63,"x_max":779,"o":"m 444 -19 q 694 59 608 -19 q 779 264 779 138 l 779 281 q 707 458 779 392 q 482 547 635 525 q 286 603 351 567 q 221 721 221 640 l 221 729 q 249 813 221 779 q 324 865 278 847 q 424 883 371 883 q 538 862 485 883 q 622 798 590 840 q 654 692 654 756 l 654 642 l 771 642 l 771 700 q 730 845 771 779 q 612 951 689 911 q 425 992 535 992 q 258 958 331 992 q 145 867 186 925 q 104 733 104 810 l 104 717 q 191 530 104 592 q 424 447 278 468 q 606 389 550 429 q 663 272 663 349 l 663 264 q 608 138 663 186 q 444 89 553 89 q 250 153 321 89 q 179 344 179 218 l 179 378 l 63 378 l 63 336 q 106 154 63 235 q 235 27 150 74 q 444 -19 319 -19 m 222 1075 l 339 1075 l 411 1197 l 428 1197 l 500 1075 l 617 1075 l 506 1239 l 333 1239 l 222 1075 "},"Ș":{"ha":850,"x_min":63,"x_max":779,"o":"m 444 -19 q 694 59 608 -19 q 779 264 779 138 l 779 281 q 707 458 779 392 q 482 547 635 525 q 286 603 351 567 q 221 721 221 640 l 221 729 q 249 813 221 779 q 324 865 278 847 q 424 883 371 883 q 538 862 485 883 q 622 798 590 840 q 654 692 654 756 l 654 642 l 771 642 l 771 700 q 730 845 771 779 q 612 951 689 911 q 425 992 535 992 q 258 958 331 992 q 145 867 186 925 q 104 733 104 810 l 104 717 q 191 530 104 592 q 424 447 278 468 q 606 389 550 429 q 663 272 663 349 l 663 264 q 608 138 663 186 q 444 89 553 89 q 250 153 321 89 q 179 344 179 218 l 179 378 l 63 378 l 63 336 q 106 154 63 235 q 235 27 150 74 q 444 -19 319 -19 m 363 -406 l 433 -406 q 510 -375 481 -406 q 540 -297 540 -344 l 540 -161 q 512 -92 540 -121 q 443 -64 483 -64 q 375 -92 404 -64 q 346 -161 346 -121 q 374 -229 346 -200 q 442 -258 403 -258 q 465 -254 456 -258 l 465 -289 q 428 -331 465 -331 l 363 -331 l 363 -406 "},"Ṡ":{"ha":850,"x_min":63,"x_max":779,"o":"m 444 -19 q 694 59 608 -19 q 779 264 779 138 l 779 281 q 707 458 779 392 q 482 547 635 525 q 286 603 351 567 q 221 721 221 640 l 221 729 q 249 813 221 779 q 324 865 278 847 q 424 883 371 883 q 538 862 485 883 q 622 798 590 840 q 654 692 654 756 l 654 642 l 771 642 l 771 700 q 730 845 771 779 q 612 951 689 911 q 425 992 535 992 q 258 958 331 992 q 145 867 186 925 q 104 733 104 810 l 104 717 q 191 530 104 592 q 424 447 278 468 q 606 389 550 429 q 663 272 663 349 l 663 264 q 608 138 663 186 q 444 89 553 89 q 250 153 321 89 q 179 344 179 218 l 179 378 l 63 378 l 63 336 q 106 154 63 235 q 235 27 150 74 q 444 -19 319 -19 m 419 1081 q 488 1110 460 1081 q 517 1178 517 1139 q 488 1247 517 1218 q 419 1275 460 1275 q 351 1247 381 1275 q 322 1178 322 1218 q 351 1110 322 1139 q 419 1081 381 1081 "},"Ṣ":{"ha":850,"x_min":63,"x_max":779,"o":"m 444 -19 q 694 59 608 -19 q 779 264 779 138 l 779 281 q 707 458 779 392 q 482 547 635 525 q 286 603 351 567 q 221 721 221 640 l 221 729 q 249 813 221 779 q 324 865 278 847 q 424 883 371 883 q 538 862 485 883 q 622 798 590 840 q 654 692 654 756 l 654 642 l 771 642 l 771 700 q 730 845 771 779 q 612 951 689 911 q 425 992 535 992 q 258 958 331 992 q 145 867 186 925 q 104 733 104 810 l 104 717 q 191 530 104 592 q 424 447 278 468 q 606 389 550 429 q 663 272 663 349 l 663 264 q 608 138 663 186 q 444 89 553 89 q 250 153 321 89 q 179 344 179 218 l 179 378 l 63 378 l 63 336 q 106 154 63 235 q 235 27 150 74 q 444 -19 319 -19 m 443 -283 q 512 -254 483 -283 q 540 -186 540 -225 q 512 -117 540 -146 q 443 -89 483 -89 q 375 -117 404 -89 q 346 -186 346 -146 q 375 -254 346 -225 q 443 -283 404 -283 "},"ẞ":{"ha":850,"x_min":50,"x_max":788,"o":"m 133 0 l 250 0 l 250 689 q 297 822 250 779 q 421 864 344 864 l 613 864 l 613 847 l 346 647 l 346 483 l 476 483 q 615 436 560 483 q 671 307 671 389 l 671 299 q 642 201 671 244 q 565 133 614 158 q 454 108 515 108 l 346 108 l 346 0 l 457 0 q 626 40 551 0 q 744 145 701 79 q 788 292 788 211 l 788 308 q 747 454 788 394 q 642 544 707 514 q 501 575 578 575 l 446 575 l 446 592 l 713 792 l 713 972 l 413 972 q 211 899 289 972 q 133 689 133 826 l 50 689 l 50 581 l 133 581 l 133 0 "},"T":{"ha":850,"x_min":83,"x_max":767,"o":"m 367 0 l 483 0 l 483 864 l 767 864 l 767 972 l 83 972 l 83 864 l 367 864 l 367 0 "},"Ŧ":{"ha":850,"x_min":83,"x_max":767,"o":"m 367 0 l 483 0 l 483 486 l 700 486 l 700 594 l 483 594 l 483 864 l 767 864 l 767 972 l 83 972 l 83 864 l 367 864 l 367 594 l 150 594 l 150 486 l 367 486 l 367 0 "},"Ť":{"ha":850,"x_min":83,"x_max":767,"o":"m 367 0 l 483 0 l 483 864 l 767 864 l 767 972 l 83 972 l 83 864 l 367 864 l 367 0 m 339 1075 l 511 1075 l 622 1239 l 506 1239 l 433 1117 l 417 1117 l 344 1239 l 228 1239 l 339 1075 "},"Ţ":{"ha":850,"x_min":83,"x_max":767,"o":"m 499 -294 q 590 -260 553 -294 q 628 -168 628 -225 q 599 -85 628 -119 q 522 -50 571 -50 q 447 -94 465 -50 l 439 -94 l 460 0 l 483 0 l 483 864 l 767 864 l 767 972 l 83 972 l 83 864 l 367 864 l 367 0 l 392 0 l 364 -128 l 364 -136 l 469 -136 q 504 -117 479 -117 q 538 -131 524 -117 q 553 -169 553 -144 q 535 -214 553 -200 q 497 -228 518 -228 q 451 -210 467 -228 q 431 -172 435 -193 l 364 -197 q 407 -267 375 -239 q 499 -294 439 -294 "},"Ț":{"ha":850,"x_min":83,"x_max":767,"o":"m 367 0 l 483 0 l 483 864 l 767 864 l 767 972 l 83 972 l 83 864 l 367 864 l 367 0 m 344 -406 l 415 -406 q 492 -375 463 -406 q 522 -297 522 -344 l 522 -161 q 494 -92 522 -121 q 425 -64 465 -64 q 357 -92 386 -64 q 328 -161 328 -121 q 356 -229 328 -200 q 424 -258 385 -258 q 447 -254 438 -258 l 447 -289 q 410 -331 447 -331 l 344 -331 l 344 -406 "},"Ṭ":{"ha":850,"x_min":83,"x_max":767,"o":"m 367 0 l 483 0 l 483 864 l 767 864 l 767 972 l 83 972 l 83 864 l 367 864 l 367 0 m 425 -283 q 494 -254 465 -283 q 522 -186 522 -225 q 494 -117 522 -146 q 425 -89 465 -89 q 357 -117 386 -89 q 328 -186 328 -146 q 357 -254 328 -225 q 425 -283 386 -283 "},"Ṯ":{"ha":850,"x_min":83,"x_max":767,"o":"m 367 0 l 483 0 l 483 864 l 767 864 l 767 972 l 83 972 l 83 864 l 367 864 l 367 0 m 229 -181 l 621 -181 l 621 -89 l 229 -89 l 229 -181 "},"U":{"ha":850,"x_min":92,"x_max":758,"o":"m 425 -19 q 669 70 579 -19 q 758 328 758 160 l 758 972 l 642 972 l 642 328 q 587 150 642 211 q 425 89 532 89 q 264 150 319 89 q 208 328 208 211 l 208 972 l 92 972 l 92 328 q 181 70 92 160 q 425 -19 271 -19 "},"Ú":{"ha":850,"x_min":92,"x_max":758,"o":"m 425 -19 q 669 70 579 -19 q 758 328 758 160 l 758 972 l 642 972 l 642 328 q 587 150 642 211 q 425 89 532 89 q 264 150 319 89 q 208 328 208 211 l 208 972 l 92 972 l 92 328 q 181 70 92 160 q 425 -19 271 -19 m 385 1075 l 485 1075 l 601 1239 l 476 1239 l 385 1075 "},"Ŭ":{"ha":850,"x_min":92,"x_max":758,"o":"m 425 -19 q 669 70 579 -19 q 758 328 758 160 l 758 972 l 642 972 l 642 328 q 587 150 642 211 q 425 89 532 89 q 264 150 319 89 q 208 328 208 211 l 208 972 l 92 972 l 92 328 q 181 70 92 160 q 425 -19 271 -19 m 425 1075 q 535 1117 494 1075 q 575 1225 575 1158 l 575 1239 l 479 1239 l 479 1222 q 465 1184 479 1200 q 425 1168 451 1168 q 385 1184 399 1168 q 371 1222 371 1200 l 371 1239 l 275 1239 l 275 1225 q 316 1117 275 1158 q 425 1075 357 1075 "},"Ǔ":{"ha":850,"x_min":92,"x_max":758,"o":"m 425 -19 q 669 70 579 -19 q 758 328 758 160 l 758 972 l 642 972 l 642 328 q 587 150 642 211 q 425 89 532 89 q 264 150 319 89 q 208 328 208 211 l 208 972 l 92 972 l 92 328 q 181 70 92 160 q 425 -19 271 -19 m 339 1075 l 511 1075 l 622 1239 l 506 1239 l 433 1117 l 417 1117 l 344 1239 l 228 1239 l 339 1075 "},"Û":{"ha":850,"x_min":92,"x_max":758,"o":"m 425 -19 q 669 70 579 -19 q 758 328 758 160 l 758 972 l 642 972 l 642 328 q 587 150 642 211 q 425 89 532 89 q 264 150 319 89 q 208 328 208 211 l 208 972 l 92 972 l 92 328 q 181 70 92 160 q 425 -19 271 -19 m 228 1075 l 344 1075 l 417 1197 l 433 1197 l 506 1075 l 622 1075 l 511 1239 l 339 1239 l 228 1075 "},"Ü":{"ha":850,"x_min":92,"x_max":758,"o":"m 425 -19 q 669 70 579 -19 q 758 328 758 160 l 758 972 l 642 972 l 642 328 q 587 150 642 211 q 425 89 532 89 q 264 150 319 89 q 208 328 208 211 l 208 972 l 92 972 l 92 328 q 181 70 92 160 q 425 -19 271 -19 m 564 1081 q 633 1110 604 1081 q 661 1178 661 1139 q 633 1247 661 1218 q 564 1275 604 1275 q 496 1247 525 1275 q 467 1178 467 1218 q 496 1110 467 1139 q 564 1081 525 1081 m 286 1081 q 355 1110 326 1081 q 383 1178 383 1139 q 355 1247 383 1218 q 286 1275 326 1275 q 218 1247 247 1275 q 189 1178 189 1218 q 218 1110 189 1139 q 286 1081 247 1081 "},"Ǘ":{"ha":850,"x_min":92,"x_max":758,"o":"m 425 -19 q 669 70 579 -19 q 758 328 758 160 l 758 972 l 642 972 l 642 328 q 587 150 642 211 q 425 89 532 89 q 264 150 319 89 q 208 328 208 211 l 208 972 l 92 972 l 92 328 q 181 70 92 160 q 425 -19 271 -19 m 564 1011 q 633 1040 604 1011 q 661 1108 661 1069 q 633 1177 661 1149 q 564 1206 604 1206 q 496 1177 525 1206 q 467 1108 467 1149 q 496 1040 467 1069 q 564 1011 525 1011 m 286 1011 q 355 1040 326 1011 q 383 1108 383 1069 q 355 1177 383 1149 q 286 1206 326 1206 q 218 1177 247 1206 q 189 1108 189 1149 q 218 1040 189 1069 q 286 1011 247 1011 m 376 1251 l 476 1251 l 593 1415 l 468 1415 l 376 1251 "},"Ǚ":{"ha":850,"x_min":92,"x_max":758,"o":"m 425 -19 q 669 70 579 -19 q 758 328 758 160 l 758 972 l 642 972 l 642 328 q 587 150 642 211 q 425 89 532 89 q 264 150 319 89 q 208 328 208 211 l 208 972 l 92 972 l 92 328 q 181 70 92 160 q 425 -19 271 -19 m 564 1019 q 633 1049 604 1019 q 661 1117 661 1078 q 633 1185 661 1157 q 564 1214 604 1214 q 496 1185 525 1214 q 467 1117 467 1157 q 496 1049 467 1078 q 564 1019 525 1019 m 286 1019 q 355 1049 326 1019 q 383 1117 383 1078 q 355 1185 383 1157 q 286 1214 326 1214 q 218 1185 247 1214 q 189 1117 189 1157 q 218 1049 189 1078 q 286 1019 247 1019 m 344 1253 l 517 1253 l 628 1417 l 511 1417 l 439 1294 l 422 1294 l 350 1417 l 233 1417 l 344 1253 "},"Ǜ":{"ha":850,"x_min":92,"x_max":758,"o":"m 425 -19 q 669 70 579 -19 q 758 328 758 160 l 758 972 l 642 972 l 642 328 q 587 150 642 211 q 425 89 532 89 q 264 150 319 89 q 208 328 208 211 l 208 972 l 92 972 l 92 328 q 181 70 92 160 q 425 -19 271 -19 m 564 1011 q 633 1040 604 1011 q 661 1108 661 1069 q 633 1177 661 1149 q 564 1206 604 1206 q 496 1177 525 1206 q 467 1108 467 1149 q 496 1040 467 1069 q 564 1011 525 1011 m 286 1011 q 355 1040 326 1011 q 383 1108 383 1069 q 355 1177 383 1149 q 286 1206 326 1206 q 218 1177 247 1206 q 189 1108 189 1149 q 218 1040 189 1069 q 286 1011 247 1011 m 378 1182 l 478 1182 l 386 1346 l 261 1346 l 378 1182 "},"Ǖ":{"ha":850,"x_min":92,"x_max":758,"o":"m 425 -19 q 669 70 579 -19 q 758 328 758 160 l 758 972 l 642 972 l 642 328 q 587 150 642 211 q 425 89 532 89 q 264 150 319 89 q 208 328 208 211 l 208 972 l 92 972 l 92 328 q 181 70 92 160 q 425 -19 271 -19 m 564 1011 q 633 1040 604 1011 q 661 1108 661 1069 q 633 1177 661 1149 q 564 1206 604 1206 q 496 1177 525 1206 q 467 1108 467 1149 q 496 1040 467 1069 q 564 1011 525 1011 m 286 1011 q 355 1040 326 1011 q 383 1108 383 1069 q 355 1177 383 1149 q 286 1206 326 1206 q 218 1177 247 1206 q 189 1108 189 1149 q 218 1040 189 1069 q 286 1011 247 1011 m 247 1254 l 611 1254 l 611 1346 l 247 1346 l 247 1254 "},"Ụ":{"ha":850,"x_min":92,"x_max":758,"o":"m 425 -19 q 669 70 579 -19 q 758 328 758 160 l 758 972 l 642 972 l 642 328 q 587 150 642 211 q 425 89 532 89 q 264 150 319 89 q 208 328 208 211 l 208 972 l 92 972 l 92 328 q 181 70 92 160 q 425 -19 271 -19 m 425 -283 q 494 -254 465 -283 q 522 -186 522 -225 q 494 -117 522 -146 q 425 -89 465 -89 q 357 -117 386 -89 q 328 -186 328 -146 q 357 -254 328 -225 q 425 -283 386 -283 "},"Ù":{"ha":850,"x_min":92,"x_max":758,"o":"m 425 -19 q 669 70 579 -19 q 758 328 758 160 l 758 972 l 642 972 l 642 328 q 587 150 642 211 q 425 89 532 89 q 264 150 319 89 q 208 328 208 211 l 208 972 l 92 972 l 92 328 q 181 70 92 160 q 425 -19 271 -19 m 378 1075 l 478 1075 l 386 1239 l 261 1239 l 378 1075 "},"Ủ":{"ha":850,"x_min":92,"x_max":758,"o":"m 425 -19 q 669 70 579 -19 q 758 328 758 160 l 758 972 l 642 972 l 642 328 q 587 150 642 211 q 425 89 532 89 q 264 150 319 89 q 208 328 208 211 l 208 972 l 92 972 l 92 328 q 181 70 92 160 q 425 -19 271 -19 m 378 1042 l 446 1042 l 425 1136 l 433 1136 q 508 1092 451 1092 q 585 1127 557 1092 q 614 1210 614 1163 q 576 1301 614 1267 q 485 1336 539 1336 q 393 1308 425 1336 q 350 1239 361 1281 l 417 1214 q 437 1252 421 1235 q 483 1269 453 1269 q 522 1256 504 1269 q 539 1211 539 1242 q 524 1172 539 1186 q 490 1158 510 1158 q 456 1178 465 1158 l 350 1178 l 350 1169 l 378 1042 "},"Ư":{"ha":850,"x_min":56,"x_max":850,"o":"m 331 -19 q 534 55 463 -19 q 606 281 606 129 l 606 631 l 743 631 q 820 661 790 631 q 850 739 850 692 l 850 875 q 822 944 850 915 q 753 972 793 972 q 685 944 714 972 q 656 875 656 915 q 684 807 656 836 q 751 778 713 778 q 775 782 765 778 l 775 747 q 738 706 775 706 l 606 706 l 606 972 l 489 972 l 489 286 q 449 133 489 181 q 331 86 408 86 q 213 133 254 86 q 172 286 172 181 l 172 972 l 56 972 l 56 281 q 128 55 56 129 q 331 -19 200 -19 "},"Ứ":{"ha":850,"x_min":56,"x_max":850,"o":"m 331 -19 q 534 55 463 -19 q 606 281 606 129 l 606 631 l 743 631 q 820 661 790 631 q 850 739 850 692 l 850 875 q 822 944 850 915 q 753 972 793 972 q 685 944 714 972 q 656 875 656 915 q 684 807 656 836 q 751 778 713 778 q 775 782 765 778 l 775 747 q 738 706 775 706 l 606 706 l 606 972 l 489 972 l 489 286 q 449 133 489 181 q 331 86 408 86 q 213 133 254 86 q 172 286 172 181 l 172 972 l 56 972 l 56 281 q 128 55 56 129 q 331 -19 200 -19 m 283 1075 l 383 1075 l 500 1239 l 375 1239 l 283 1075 "},"Ự":{"ha":850,"x_min":56,"x_max":850,"o":"m 331 -19 q 534 55 463 -19 q 606 281 606 129 l 606 631 l 743 631 q 820 661 790 631 q 850 739 850 692 l 850 875 q 822 944 850 915 q 753 972 793 972 q 685 944 714 972 q 656 875 656 915 q 684 807 656 836 q 751 778 713 778 q 775 782 765 778 l 775 747 q 738 706 775 706 l 606 706 l 606 972 l 489 972 l 489 286 q 449 133 489 181 q 331 86 408 86 q 213 133 254 86 q 172 286 172 181 l 172 972 l 56 972 l 56 281 q 128 55 56 129 q 331 -19 200 -19 m 331 -283 q 399 -254 371 -283 q 428 -186 428 -225 q 399 -117 428 -146 q 331 -89 371 -89 q 263 -117 292 -89 q 233 -186 233 -146 q 263 -254 233 -225 q 331 -283 292 -283 "},"Ừ":{"ha":850,"x_min":56,"x_max":850,"o":"m 331 -19 q 534 55 463 -19 q 606 281 606 129 l 606 631 l 743 631 q 820 661 790 631 q 850 739 850 692 l 850 875 q 822 944 850 915 q 753 972 793 972 q 685 944 714 972 q 656 875 656 915 q 684 807 656 836 q 751 778 713 778 q 775 782 765 778 l 775 747 q 738 706 775 706 l 606 706 l 606 972 l 489 972 l 489 286 q 449 133 489 181 q 331 86 408 86 q 213 133 254 86 q 172 286 172 181 l 172 972 l 56 972 l 56 281 q 128 55 56 129 q 331 -19 200 -19 m 276 1075 l 376 1075 l 285 1239 l 160 1239 l 276 1075 "},"Ử":{"ha":850,"x_min":56,"x_max":850,"o":"m 331 -19 q 534 55 463 -19 q 606 281 606 129 l 606 631 l 743 631 q 820 661 790 631 q 850 739 850 692 l 850 875 q 822 944 850 915 q 753 972 793 972 q 685 944 714 972 q 656 875 656 915 q 684 807 656 836 q 751 778 713 778 q 775 782 765 778 l 775 747 q 738 706 775 706 l 606 706 l 606 972 l 489 972 l 489 286 q 449 133 489 181 q 331 86 408 86 q 213 133 254 86 q 172 286 172 181 l 172 972 l 56 972 l 56 281 q 128 55 56 129 q 331 -19 200 -19 m 276 1042 l 344 1042 l 324 1136 l 332 1136 q 407 1092 350 1092 q 484 1127 456 1092 q 513 1210 513 1163 q 475 1301 513 1267 q 383 1336 438 1336 q 292 1308 324 1336 q 249 1239 260 1281 l 315 1214 q 335 1252 319 1235 q 382 1269 351 1269 q 420 1256 403 1269 q 438 1211 438 1242 q 423 1172 438 1186 q 389 1158 408 1158 q 354 1178 364 1158 l 249 1178 l 249 1169 l 276 1042 "},"Ữ":{"ha":850,"x_min":56,"x_max":850,"o":"m 331 -19 q 534 55 463 -19 q 606 281 606 129 l 606 631 l 743 631 q 820 661 790 631 q 850 739 850 692 l 850 875 q 822 944 850 915 q 753 972 793 972 q 685 944 714 972 q 656 875 656 915 q 684 807 656 836 q 751 778 713 778 q 775 782 765 778 l 775 747 q 738 706 775 706 l 606 706 l 606 972 l 489 972 l 489 286 q 449 133 489 181 q 331 86 408 86 q 213 133 254 86 q 172 286 172 181 l 172 972 l 56 972 l 56 281 q 128 55 56 129 q 331 -19 200 -19 m 394 1049 q 455 1065 428 1049 q 503 1107 482 1082 l 560 1175 l 492 1233 l 432 1164 q 415 1147 422 1151 q 400 1143 407 1143 q 380 1153 390 1143 q 353 1189 369 1163 q 314 1238 335 1219 q 253 1256 293 1256 q 190 1238 215 1256 q 144 1197 164 1221 l 86 1129 l 154 1071 l 211 1139 q 232 1158 224 1154 q 247 1161 240 1161 q 293 1114 268 1161 q 336 1065 313 1082 q 394 1049 360 1049 "},"Ű":{"ha":850,"x_min":92,"x_max":758,"o":"m 425 -19 q 669 70 579 -19 q 758 328 758 160 l 758 972 l 642 972 l 642 328 q 587 150 642 211 q 425 89 532 89 q 264 150 319 89 q 208 328 208 211 l 208 972 l 92 972 l 92 328 q 181 70 92 160 q 425 -19 271 -19 m 467 1075 l 567 1075 l 683 1239 l 558 1239 l 467 1075 m 267 1075 l 367 1075 l 483 1239 l 358 1239 l 267 1075 "},"Ū":{"ha":850,"x_min":92,"x_max":758,"o":"m 425 -19 q 669 70 579 -19 q 758 328 758 160 l 758 972 l 642 972 l 642 328 q 587 150 642 211 q 425 89 532 89 q 264 150 319 89 q 208 328 208 211 l 208 972 l 92 972 l 92 328 q 181 70 92 160 q 425 -19 271 -19 m 243 1075 l 607 1075 l 607 1167 l 243 1167 l 243 1075 "},"Ų":{"ha":850,"x_min":92,"x_max":758,"o":"m 463 -228 l 540 -228 l 540 -136 l 482 -136 q 450 -106 450 -136 q 450 -102 450 -104 q 451 -94 450 -100 l 469 -17 q 681 84 604 -4 q 758 328 758 172 l 758 972 l 642 972 l 642 328 q 587 150 642 211 q 425 89 532 89 q 264 150 319 89 q 208 328 208 211 l 208 972 l 92 972 l 92 328 q 167 85 92 172 q 375 -17 243 -3 l 358 -92 q 354 -125 354 -112 q 388 -202 354 -176 q 463 -228 422 -228 "},"Ů":{"ha":850,"x_min":92,"x_max":758,"o":"m 425 -19 q 669 70 579 -19 q 758 328 758 160 l 758 972 l 642 972 l 642 328 q 587 150 642 211 q 425 89 532 89 q 264 150 319 89 q 208 328 208 211 l 208 972 l 92 972 l 92 328 q 181 70 92 160 q 425 -19 271 -19 m 425 1075 q 526 1116 485 1075 q 567 1217 567 1157 q 526 1317 567 1276 q 425 1358 485 1358 q 324 1317 365 1358 q 283 1217 283 1276 q 324 1116 283 1157 q 425 1075 365 1075 m 425 1158 q 383 1175 400 1158 q 367 1217 367 1192 q 383 1258 367 1242 q 425 1275 400 1275 q 467 1258 450 1275 q 483 1217 483 1242 q 467 1175 483 1192 q 425 1158 450 1158 "},"Ũ":{"ha":850,"x_min":92,"x_max":758,"o":"m 425 -19 q 669 70 579 -19 q 758 328 758 160 l 758 972 l 642 972 l 642 328 q 587 150 642 211 q 425 89 532 89 q 264 150 319 89 q 208 328 208 211 l 208 972 l 92 972 l 92 328 q 181 70 92 160 q 425 -19 271 -19 m 496 1049 q 556 1065 529 1049 q 604 1107 583 1082 l 661 1175 l 593 1233 l 533 1164 q 516 1147 524 1151 q 501 1143 508 1143 q 481 1153 492 1143 q 454 1189 471 1163 q 415 1238 436 1219 q 354 1256 394 1256 q 291 1238 317 1256 q 246 1197 265 1221 l 188 1129 l 256 1071 l 313 1139 q 333 1158 325 1154 q 349 1161 342 1161 q 394 1114 369 1161 q 438 1065 414 1082 q 496 1049 461 1049 "},"V":{"ha":850,"x_min":38,"x_max":813,"o":"m 313 0 l 538 0 l 813 972 l 688 972 l 433 50 l 417 50 l 163 972 l 38 972 l 313 0 "},"W":{"ha":850,"x_min":15,"x_max":835,"o":"m 114 0 l 326 0 l 417 922 l 433 922 l 524 0 l 736 0 l 835 972 l 729 972 l 636 50 l 619 50 l 532 972 l 318 972 l 231 50 l 214 50 l 121 972 l 15 972 l 114 0 "},"Ẃ":{"ha":850,"x_min":15,"x_max":835,"o":"m 114 0 l 326 0 l 417 922 l 433 922 l 524 0 l 736 0 l 835 972 l 729 972 l 636 50 l 619 50 l 532 972 l 318 972 l 231 50 l 214 50 l 121 972 l 15 972 l 114 0 m 381 1075 l 481 1075 l 597 1239 l 472 1239 l 381 1075 "},"Ŵ":{"ha":850,"x_min":15,"x_max":835,"o":"m 114 0 l 326 0 l 417 922 l 433 922 l 524 0 l 736 0 l 835 972 l 729 972 l 636 50 l 619 50 l 532 972 l 318 972 l 231 50 l 214 50 l 121 972 l 15 972 l 114 0 m 224 1075 l 340 1075 l 413 1197 l 429 1197 l 501 1075 l 618 1075 l 507 1239 l 335 1239 l 224 1075 "},"Ẅ":{"ha":850,"x_min":15,"x_max":835,"o":"m 114 0 l 326 0 l 417 922 l 433 922 l 524 0 l 736 0 l 835 972 l 729 972 l 636 50 l 619 50 l 532 972 l 318 972 l 231 50 l 214 50 l 121 972 l 15 972 l 114 0 m 560 1081 q 628 1110 600 1081 q 657 1178 657 1139 q 628 1247 657 1218 q 560 1275 600 1275 q 492 1247 521 1275 q 463 1178 463 1218 q 492 1110 463 1139 q 560 1081 521 1081 m 282 1081 q 351 1110 322 1081 q 379 1178 379 1139 q 351 1247 379 1218 q 282 1275 322 1275 q 214 1247 243 1275 q 185 1178 185 1218 q 214 1110 185 1139 q 282 1081 243 1081 "},"Ẁ":{"ha":850,"x_min":15,"x_max":835,"o":"m 114 0 l 326 0 l 417 922 l 433 922 l 524 0 l 736 0 l 835 972 l 729 972 l 636 50 l 619 50 l 532 972 l 318 972 l 231 50 l 214 50 l 121 972 l 15 972 l 114 0 m 374 1075 l 474 1075 l 382 1239 l 257 1239 l 374 1075 "},"X":{"ha":850,"x_min":67,"x_max":783,"o":"m 67 0 l 194 0 l 413 433 l 438 433 l 656 0 l 783 0 l 540 479 l 540 496 l 783 972 l 656 972 l 438 542 l 413 542 l 194 972 l 67 972 l 310 496 l 310 479 l 67 0 "},"Y":{"ha":850,"x_min":38,"x_max":813,"o":"m 367 0 l 483 0 l 483 342 l 508 342 l 813 972 l 682 972 l 433 442 l 417 442 l 168 972 l 38 972 l 342 342 l 367 342 l 367 0 "},"Ý":{"ha":850,"x_min":38,"x_max":813,"o":"m 367 0 l 483 0 l 483 342 l 508 342 l 813 972 l 682 972 l 433 442 l 417 442 l 168 972 l 38 972 l 342 342 l 367 342 l 367 0 m 378 1075 l 478 1075 l 594 1239 l 469 1239 l 378 1075 "},"Ŷ":{"ha":850,"x_min":38,"x_max":813,"o":"m 367 0 l 483 0 l 483 342 l 508 342 l 813 972 l 682 972 l 433 442 l 417 442 l 168 972 l 38 972 l 342 342 l 367 342 l 367 0 m 221 1075 l 338 1075 l 410 1197 l 426 1197 l 499 1075 l 615 1075 l 504 1239 l 332 1239 l 221 1075 "},"Ÿ":{"ha":850,"x_min":38,"x_max":813,"o":"m 367 0 l 483 0 l 483 342 l 508 342 l 813 972 l 682 972 l 433 442 l 417 442 l 168 972 l 38 972 l 342 342 l 367 342 l 367 0 m 557 1081 q 626 1110 597 1081 q 654 1178 654 1139 q 626 1247 654 1218 q 557 1275 597 1275 q 489 1247 518 1275 q 460 1178 460 1218 q 489 1110 460 1139 q 557 1081 518 1081 m 279 1081 q 348 1110 319 1081 q 376 1178 376 1139 q 348 1247 376 1218 q 279 1275 319 1275 q 211 1247 240 1275 q 182 1178 182 1218 q 211 1110 182 1139 q 279 1081 240 1081 "},"Ẏ":{"ha":850,"x_min":38,"x_max":813,"o":"m 367 0 l 483 0 l 483 342 l 508 342 l 813 972 l 682 972 l 433 442 l 417 442 l 168 972 l 38 972 l 342 342 l 367 342 l 367 0 m 418 1081 q 487 1110 458 1081 q 515 1178 515 1139 q 487 1247 515 1218 q 418 1275 458 1275 q 350 1247 379 1275 q 321 1178 321 1218 q 350 1110 321 1139 q 418 1081 379 1081 "},"Ỵ":{"ha":850,"x_min":38,"x_max":813,"o":"m 367 0 l 483 0 l 483 342 l 508 342 l 813 972 l 682 972 l 433 442 l 417 442 l 168 972 l 38 972 l 342 342 l 367 342 l 367 0 m 425 -283 q 494 -254 465 -283 q 522 -186 522 -225 q 494 -117 522 -146 q 425 -89 465 -89 q 357 -117 386 -89 q 328 -186 328 -146 q 357 -254 328 -225 q 425 -283 386 -283 "},"Ỳ":{"ha":850,"x_min":38,"x_max":813,"o":"m 367 0 l 483 0 l 483 342 l 508 342 l 813 972 l 682 972 l 433 442 l 417 442 l 168 972 l 38 972 l 342 342 l 367 342 l 367 0 m 371 1075 l 471 1075 l 379 1239 l 254 1239 l 371 1075 "},"Ỷ":{"ha":850,"x_min":38,"x_max":813,"o":"m 367 0 l 483 0 l 483 342 l 508 342 l 813 972 l 682 972 l 433 442 l 417 442 l 168 972 l 38 972 l 342 342 l 367 342 l 367 0 m 371 1042 l 439 1042 l 418 1136 l 426 1136 q 501 1092 444 1092 q 578 1127 550 1092 q 607 1210 607 1163 q 569 1301 607 1267 q 478 1336 532 1336 q 386 1308 418 1336 q 343 1239 354 1281 l 410 1214 q 430 1252 414 1235 q 476 1269 446 1269 q 515 1256 497 1269 q 532 1211 532 1242 q 517 1172 532 1186 q 483 1158 503 1158 q 449 1178 458 1158 l 343 1178 l 343 1169 l 371 1042 "},"Ỹ":{"ha":850,"x_min":38,"x_max":813,"o":"m 367 0 l 483 0 l 483 342 l 508 342 l 813 972 l 682 972 l 433 442 l 417 442 l 168 972 l 38 972 l 342 342 l 367 342 l 367 0 m 489 1049 q 549 1065 522 1049 q 597 1107 576 1082 l 654 1175 l 586 1233 l 526 1164 q 509 1147 517 1151 q 494 1143 501 1143 q 474 1153 485 1143 q 447 1189 464 1163 q 408 1238 429 1219 q 347 1256 388 1256 q 284 1238 310 1256 q 239 1197 258 1221 l 181 1129 l 249 1071 l 306 1139 q 326 1158 318 1154 q 342 1161 335 1161 q 388 1114 363 1161 q 431 1065 407 1082 q 489 1049 454 1049 "},"Z":{"ha":850,"x_min":74,"x_max":774,"o":"m 74 0 l 774 0 l 774 108 l 174 108 l 174 125 l 757 797 l 757 972 l 107 972 l 107 864 l 657 864 l 657 847 l 74 175 l 74 0 "},"Ź":{"ha":850,"x_min":74,"x_max":774,"o":"m 74 0 l 774 0 l 774 108 l 174 108 l 174 125 l 757 797 l 757 972 l 107 972 l 107 864 l 657 864 l 657 847 l 74 175 l 74 0 m 385 1075 l 485 1075 l 601 1239 l 476 1239 l 385 1075 "},"Ž":{"ha":850,"x_min":74,"x_max":774,"o":"m 74 0 l 774 0 l 774 108 l 174 108 l 174 125 l 757 797 l 757 972 l 107 972 l 107 864 l 657 864 l 657 847 l 74 175 l 74 0 m 339 1075 l 511 1075 l 622 1239 l 506 1239 l 433 1117 l 417 1117 l 344 1239 l 228 1239 l 339 1075 "},"Ż":{"ha":850,"x_min":74,"x_max":774,"o":"m 74 0 l 774 0 l 774 108 l 174 108 l 174 125 l 757 797 l 757 972 l 107 972 l 107 864 l 657 864 l 657 847 l 74 175 l 74 0 m 425 1081 q 494 1110 465 1081 q 522 1178 522 1139 q 494 1247 522 1218 q 425 1275 465 1275 q 357 1247 386 1275 q 328 1178 328 1218 q 357 1110 328 1139 q 425 1081 386 1081 "},"Ẓ":{"ha":850,"x_min":74,"x_max":774,"o":"m 74 0 l 774 0 l 774 108 l 174 108 l 174 125 l 757 797 l 757 972 l 107 972 l 107 864 l 657 864 l 657 847 l 74 175 l 74 0 m 425 -283 q 494 -254 465 -283 q 522 -186 522 -225 q 494 -117 522 -146 q 425 -89 465 -89 q 357 -117 386 -89 q 328 -186 328 -146 q 357 -254 328 -225 q 425 -283 386 -283 "},"a":{"ha":850,"x_min":65,"x_max":801,"o":"m 388 -19 q 512 15 453 -19 q 604 117 571 49 l 621 117 q 653 28 621 56 q 728 0 685 0 l 801 0 l 801 100 l 767 100 q 729 142 729 100 l 729 689 l 621 689 l 621 581 l 604 581 q 513 677 571 646 q 385 708 456 708 q 224 667 297 708 q 108 547 151 626 q 65 356 65 468 l 65 333 q 108 141 65 219 q 224 22 151 63 q 388 -19 297 -19 m 399 83 q 239 150 301 83 q 176 333 176 217 l 176 356 q 206 487 176 431 q 285 574 235 543 q 399 606 335 606 q 513 573 463 606 q 592 483 563 540 q 621 353 621 426 l 621 336 q 558 153 621 222 q 399 83 496 83 "},"á":{"ha":850,"x_min":65,"x_max":801,"o":"m 388 -19 q 512 15 453 -19 q 604 117 571 49 l 621 117 q 653 28 621 56 q 728 0 685 0 l 801 0 l 801 100 l 767 100 q 729 142 729 100 l 729 689 l 621 689 l 621 581 l 604 581 q 513 677 571 646 q 385 708 456 708 q 224 667 297 708 q 108 547 151 626 q 65 356 65 468 l 65 333 q 108 141 65 219 q 224 22 151 63 q 388 -19 297 -19 m 399 83 q 239 150 301 83 q 176 333 176 217 l 176 356 q 206 487 176 431 q 285 574 235 543 q 399 606 335 606 q 513 573 463 606 q 592 483 563 540 q 621 353 621 426 l 621 336 q 558 153 621 222 q 399 83 496 83 m 361 792 l 461 792 l 578 956 l 453 956 l 361 792 "},"ă":{"ha":850,"x_min":65,"x_max":801,"o":"m 388 -19 q 512 15 453 -19 q 604 117 571 49 l 621 117 q 653 28 621 56 q 728 0 685 0 l 801 0 l 801 100 l 767 100 q 729 142 729 100 l 729 689 l 621 689 l 621 581 l 604 581 q 513 677 571 646 q 385 708 456 708 q 224 667 297 708 q 108 547 151 626 q 65 356 65 468 l 65 333 q 108 141 65 219 q 224 22 151 63 q 388 -19 297 -19 m 399 83 q 239 150 301 83 q 176 333 176 217 l 176 356 q 206 487 176 431 q 285 574 235 543 q 399 606 335 606 q 513 573 463 606 q 592 483 563 540 q 621 353 621 426 l 621 336 q 558 153 621 222 q 399 83 496 83 m 401 792 q 511 833 471 792 q 551 942 551 875 l 551 956 l 456 956 l 456 939 q 442 901 456 917 q 401 885 428 885 q 361 901 375 885 q 347 939 347 917 l 347 956 l 251 956 l 251 942 q 292 833 251 875 q 401 792 333 792 "},"ắ":{"ha":850,"x_min":65,"x_max":801,"o":"m 388 -19 q 512 15 453 -19 q 604 117 571 49 l 621 117 q 653 28 621 56 q 728 0 685 0 l 801 0 l 801 100 l 767 100 q 729 142 729 100 l 729 689 l 621 689 l 621 581 l 604 581 q 513 677 571 646 q 385 708 456 708 q 224 667 297 708 q 108 547 151 626 q 65 356 65 468 l 65 333 q 108 141 65 219 q 224 22 151 63 q 388 -19 297 -19 m 399 83 q 239 150 301 83 q 176 333 176 217 l 176 356 q 206 487 176 431 q 285 574 235 543 q 399 606 335 606 q 513 573 463 606 q 592 483 563 540 q 621 353 621 426 l 621 336 q 558 153 621 222 q 399 83 496 83 m 401 792 q 511 833 471 792 q 551 942 551 875 l 551 956 l 456 956 l 456 939 q 442 901 456 917 q 401 885 428 885 q 361 901 375 885 q 347 939 347 917 l 347 956 l 251 956 l 251 942 q 292 833 251 875 q 401 792 333 792 m 367 1024 l 467 1024 l 583 1188 l 458 1188 l 367 1024 "},"ặ":{"ha":850,"x_min":65,"x_max":801,"o":"m 388 -19 q 512 15 453 -19 q 604 117 571 49 l 621 117 q 653 28 621 56 q 728 0 685 0 l 801 0 l 801 100 l 767 100 q 729 142 729 100 l 729 689 l 621 689 l 621 581 l 604 581 q 513 677 571 646 q 385 708 456 708 q 224 667 297 708 q 108 547 151 626 q 65 356 65 468 l 65 333 q 108 141 65 219 q 224 22 151 63 q 388 -19 297 -19 m 399 83 q 239 150 301 83 q 176 333 176 217 l 176 356 q 206 487 176 431 q 285 574 235 543 q 399 606 335 606 q 513 573 463 606 q 592 483 563 540 q 621 353 621 426 l 621 336 q 558 153 621 222 q 399 83 496 83 m 390 -283 q 459 -254 431 -283 q 488 -186 488 -225 q 459 -117 488 -146 q 390 -89 431 -89 q 322 -117 351 -89 q 293 -186 293 -146 q 322 -254 293 -225 q 390 -283 351 -283 m 401 792 q 511 833 471 792 q 551 942 551 875 l 551 956 l 456 956 l 456 939 q 442 901 456 917 q 401 885 428 885 q 361 901 375 885 q 347 939 347 917 l 347 956 l 251 956 l 251 942 q 292 833 251 875 q 401 792 333 792 "},"ằ":{"ha":850,"x_min":65,"x_max":801,"o":"m 388 -19 q 512 15 453 -19 q 604 117 571 49 l 621 117 q 653 28 621 56 q 728 0 685 0 l 801 0 l 801 100 l 767 100 q 729 142 729 100 l 729 689 l 621 689 l 621 581 l 604 581 q 513 677 571 646 q 385 708 456 708 q 224 667 297 708 q 108 547 151 626 q 65 356 65 468 l 65 333 q 108 141 65 219 q 224 22 151 63 q 388 -19 297 -19 m 399 83 q 239 150 301 83 q 176 333 176 217 l 176 356 q 206 487 176 431 q 285 574 235 543 q 399 606 335 606 q 513 573 463 606 q 592 483 563 540 q 621 353 621 426 l 621 336 q 558 153 621 222 q 399 83 496 83 m 401 792 q 511 833 471 792 q 551 942 551 875 l 551 956 l 456 956 l 456 939 q 442 901 456 917 q 401 885 428 885 q 361 901 375 885 q 347 939 347 917 l 347 956 l 251 956 l 251 942 q 292 833 251 875 q 401 792 333 792 m 360 1024 l 460 1024 l 368 1188 l 243 1188 l 360 1024 "},"ẳ":{"ha":850,"x_min":65,"x_max":801,"o":"m 388 -19 q 512 15 453 -19 q 604 117 571 49 l 621 117 q 653 28 621 56 q 728 0 685 0 l 801 0 l 801 100 l 767 100 q 729 142 729 100 l 729 689 l 621 689 l 621 581 l 604 581 q 513 677 571 646 q 385 708 456 708 q 224 667 297 708 q 108 547 151 626 q 65 356 65 468 l 65 333 q 108 141 65 219 q 224 22 151 63 q 388 -19 297 -19 m 399 83 q 239 150 301 83 q 176 333 176 217 l 176 356 q 206 487 176 431 q 285 574 235 543 q 399 606 335 606 q 513 573 463 606 q 592 483 563 540 q 621 353 621 426 l 621 336 q 558 153 621 222 q 399 83 496 83 m 401 792 q 511 833 471 792 q 551 942 551 875 l 551 956 l 456 956 l 456 939 q 442 901 456 917 q 401 885 428 885 q 361 901 375 885 q 347 939 347 917 l 347 956 l 251 956 l 251 942 q 292 833 251 875 q 401 792 333 792 m 360 990 l 428 990 l 407 1085 l 415 1085 q 490 1040 433 1040 q 567 1076 539 1040 q 596 1158 596 1111 q 558 1250 596 1215 q 467 1285 521 1285 q 375 1257 407 1285 q 332 1188 343 1229 l 399 1163 q 419 1201 403 1183 q 465 1218 435 1218 q 503 1204 486 1218 q 521 1160 521 1190 q 506 1121 521 1135 q 472 1107 492 1107 q 438 1126 447 1107 l 332 1126 l 332 1118 l 360 990 "},"ẵ":{"ha":850,"x_min":65,"x_max":801,"o":"m 388 -19 q 512 15 453 -19 q 604 117 571 49 l 621 117 q 653 28 621 56 q 728 0 685 0 l 801 0 l 801 100 l 767 100 q 729 142 729 100 l 729 689 l 621 689 l 621 581 l 604 581 q 513 677 571 646 q 385 708 456 708 q 224 667 297 708 q 108 547 151 626 q 65 356 65 468 l 65 333 q 108 141 65 219 q 224 22 151 63 q 388 -19 297 -19 m 399 83 q 239 150 301 83 q 176 333 176 217 l 176 356 q 206 487 176 431 q 285 574 235 543 q 399 606 335 606 q 513 573 463 606 q 592 483 563 540 q 621 353 621 426 l 621 336 q 558 153 621 222 q 399 83 496 83 m 401 792 q 511 833 471 792 q 551 942 551 875 l 551 956 l 456 956 l 456 939 q 442 901 456 917 q 401 885 428 885 q 361 901 375 885 q 347 939 347 917 l 347 956 l 251 956 l 251 942 q 292 833 251 875 q 401 792 333 792 m 478 997 q 538 1014 511 997 q 586 1056 565 1031 l 643 1124 l 575 1182 l 515 1113 q 498 1096 506 1100 q 483 1092 490 1092 q 463 1101 474 1092 q 436 1138 453 1111 q 397 1186 418 1168 q 336 1204 376 1204 q 273 1187 299 1204 q 228 1146 247 1169 l 169 1078 l 238 1019 l 294 1088 q 315 1106 307 1103 q 331 1110 324 1110 q 376 1063 351 1110 q 419 1014 396 1031 q 478 997 443 997 "},"ǎ":{"ha":850,"x_min":65,"x_max":801,"o":"m 388 -19 q 512 15 453 -19 q 604 117 571 49 l 621 117 q 653 28 621 56 q 728 0 685 0 l 801 0 l 801 100 l 767 100 q 729 142 729 100 l 729 689 l 621 689 l 621 581 l 604 581 q 513 677 571 646 q 385 708 456 708 q 224 667 297 708 q 108 547 151 626 q 65 356 65 468 l 65 333 q 108 141 65 219 q 224 22 151 63 q 388 -19 297 -19 m 399 83 q 239 150 301 83 q 176 333 176 217 l 176 356 q 206 487 176 431 q 285 574 235 543 q 399 606 335 606 q 513 573 463 606 q 592 483 563 540 q 621 353 621 426 l 621 336 q 558 153 621 222 q 399 83 496 83 m 315 792 l 488 792 l 599 956 l 482 956 l 410 833 l 393 833 l 321 956 l 204 956 l 315 792 "},"â":{"ha":850,"x_min":65,"x_max":801,"o":"m 388 -19 q 512 15 453 -19 q 604 117 571 49 l 621 117 q 653 28 621 56 q 728 0 685 0 l 801 0 l 801 100 l 767 100 q 729 142 729 100 l 729 689 l 621 689 l 621 581 l 604 581 q 513 677 571 646 q 385 708 456 708 q 224 667 297 708 q 108 547 151 626 q 65 356 65 468 l 65 333 q 108 141 65 219 q 224 22 151 63 q 388 -19 297 -19 m 399 83 q 239 150 301 83 q 176 333 176 217 l 176 356 q 206 487 176 431 q 285 574 235 543 q 399 606 335 606 q 513 573 463 606 q 592 483 563 540 q 621 353 621 426 l 621 336 q 558 153 621 222 q 399 83 496 83 m 204 792 l 321 792 l 393 914 l 410 914 l 482 792 l 599 792 l 488 956 l 315 956 l 204 792 "},"ấ":{"ha":850,"x_min":65,"x_max":801,"o":"m 388 -19 q 512 15 453 -19 q 604 117 571 49 l 621 117 q 653 28 621 56 q 728 0 685 0 l 801 0 l 801 100 l 767 100 q 729 142 729 100 l 729 689 l 621 689 l 621 581 l 604 581 q 513 677 571 646 q 385 708 456 708 q 224 667 297 708 q 108 547 151 626 q 65 356 65 468 l 65 333 q 108 141 65 219 q 224 22 151 63 q 388 -19 297 -19 m 399 83 q 239 150 301 83 q 176 333 176 217 l 176 356 q 206 487 176 431 q 285 574 235 543 q 399 606 335 606 q 513 573 463 606 q 592 483 563 540 q 621 353 621 426 l 621 336 q 558 153 621 222 q 399 83 496 83 m 204 792 l 321 792 l 393 914 l 410 914 l 482 792 l 599 792 l 488 956 l 315 956 l 204 792 m 550 914 l 650 914 l 767 1078 l 642 1078 l 550 914 "},"ậ":{"ha":850,"x_min":65,"x_max":801,"o":"m 388 -19 q 512 15 453 -19 q 604 117 571 49 l 621 117 q 653 28 621 56 q 728 0 685 0 l 801 0 l 801 100 l 767 100 q 729 142 729 100 l 729 689 l 621 689 l 621 581 l 604 581 q 513 677 571 646 q 385 708 456 708 q 224 667 297 708 q 108 547 151 626 q 65 356 65 468 l 65 333 q 108 141 65 219 q 224 22 151 63 q 388 -19 297 -19 m 399 83 q 239 150 301 83 q 176 333 176 217 l 176 356 q 206 487 176 431 q 285 574 235 543 q 399 606 335 606 q 513 573 463 606 q 592 483 563 540 q 621 353 621 426 l 621 336 q 558 153 621 222 q 399 83 496 83 m 390 -283 q 459 -254 431 -283 q 488 -186 488 -225 q 459 -117 488 -146 q 390 -89 431 -89 q 322 -117 351 -89 q 293 -186 293 -146 q 322 -254 293 -225 q 390 -283 351 -283 m 204 792 l 321 792 l 393 914 l 410 914 l 482 792 l 599 792 l 488 956 l 315 956 l 204 792 "},"ầ":{"ha":850,"x_min":24,"x_max":801,"o":"m 388 -19 q 512 15 453 -19 q 604 117 571 49 l 621 117 q 653 28 621 56 q 728 0 685 0 l 801 0 l 801 100 l 767 100 q 729 142 729 100 l 729 689 l 621 689 l 621 581 l 604 581 q 513 677 571 646 q 385 708 456 708 q 224 667 297 708 q 108 547 151 626 q 65 356 65 468 l 65 333 q 108 141 65 219 q 224 22 151 63 q 388 -19 297 -19 m 399 83 q 239 150 301 83 q 176 333 176 217 l 176 356 q 206 487 176 431 q 285 574 235 543 q 399 606 335 606 q 513 573 463 606 q 592 483 563 540 q 621 353 621 426 l 621 336 q 558 153 621 222 q 399 83 496 83 m 204 792 l 321 792 l 393 914 l 410 914 l 482 792 l 599 792 l 488 956 l 315 956 l 204 792 m 140 914 l 240 914 l 149 1078 l 24 1078 l 140 914 "},"ẩ":{"ha":850,"x_min":65,"x_max":803,"o":"m 388 -19 q 512 15 453 -19 q 604 117 571 49 l 621 117 q 653 28 621 56 q 728 0 685 0 l 801 0 l 801 100 l 767 100 q 729 142 729 100 l 729 689 l 621 689 l 621 581 l 604 581 q 513 677 571 646 q 385 708 456 708 q 224 667 297 708 q 108 547 151 626 q 65 356 65 468 l 65 333 q 108 141 65 219 q 224 22 151 63 q 388 -19 297 -19 m 399 83 q 239 150 301 83 q 176 333 176 217 l 176 356 q 206 487 176 431 q 285 574 235 543 q 399 606 335 606 q 513 573 463 606 q 592 483 563 540 q 621 353 621 426 l 621 336 q 558 153 621 222 q 399 83 496 83 m 204 792 l 321 792 l 393 914 l 410 914 l 482 792 l 599 792 l 488 956 l 315 956 l 204 792 m 567 908 l 635 908 l 614 1003 l 622 1003 q 697 958 640 958 q 774 994 746 958 q 803 1076 803 1029 q 765 1168 803 1133 q 674 1203 728 1203 q 582 1175 614 1203 q 539 1106 550 1147 l 606 1081 q 626 1119 610 1101 q 672 1136 642 1136 q 710 1122 693 1136 q 728 1078 728 1108 q 713 1039 728 1053 q 679 1025 699 1025 q 644 1044 654 1025 l 539 1044 l 539 1036 l 567 908 "},"ẫ":{"ha":850,"x_min":65,"x_max":801,"o":"m 388 -19 q 512 15 453 -19 q 604 117 571 49 l 621 117 q 653 28 621 56 q 728 0 685 0 l 801 0 l 801 100 l 767 100 q 729 142 729 100 l 729 689 l 621 689 l 621 581 l 604 581 q 513 677 571 646 q 385 708 456 708 q 224 667 297 708 q 108 547 151 626 q 65 356 65 468 l 65 333 q 108 141 65 219 q 224 22 151 63 q 388 -19 297 -19 m 399 83 q 239 150 301 83 q 176 333 176 217 l 176 356 q 206 487 176 431 q 285 574 235 543 q 399 606 335 606 q 513 573 463 606 q 592 483 563 540 q 621 353 621 426 l 621 336 q 558 153 621 222 q 399 83 496 83 m 204 792 l 321 792 l 393 914 l 410 914 l 482 792 l 599 792 l 488 956 l 315 956 l 204 792 m 478 990 q 538 1007 511 990 q 586 1049 565 1024 l 643 1117 l 575 1175 l 515 1106 q 498 1089 506 1093 q 483 1085 490 1085 q 463 1094 474 1085 q 436 1131 453 1104 q 397 1179 418 1161 q 336 1197 376 1197 q 273 1180 299 1197 q 228 1139 247 1163 l 169 1071 l 238 1013 l 294 1081 q 315 1099 307 1096 q 331 1103 324 1103 q 376 1056 351 1103 q 419 1007 396 1024 q 478 990 443 990 "},"ä":{"ha":850,"x_min":65,"x_max":801,"o":"m 388 -19 q 512 15 453 -19 q 604 117 571 49 l 621 117 q 653 28 621 56 q 728 0 685 0 l 801 0 l 801 100 l 767 100 q 729 142 729 100 l 729 689 l 621 689 l 621 581 l 604 581 q 513 677 571 646 q 385 708 456 708 q 224 667 297 708 q 108 547 151 626 q 65 356 65 468 l 65 333 q 108 141 65 219 q 224 22 151 63 q 388 -19 297 -19 m 399 83 q 239 150 301 83 q 176 333 176 217 l 176 356 q 206 487 176 431 q 285 574 235 543 q 399 606 335 606 q 513 573 463 606 q 592 483 563 540 q 621 353 621 426 l 621 336 q 558 153 621 222 q 399 83 496 83 m 540 797 q 609 826 581 797 q 638 894 638 856 q 609 963 638 935 q 540 992 581 992 q 472 963 501 992 q 443 894 443 935 q 472 826 443 856 q 540 797 501 797 m 263 797 q 331 826 303 797 q 360 894 360 856 q 331 963 360 935 q 263 992 303 992 q 194 963 224 992 q 165 894 165 935 q 194 826 165 856 q 263 797 224 797 "},"ạ":{"ha":850,"x_min":65,"x_max":801,"o":"m 388 -19 q 512 15 453 -19 q 604 117 571 49 l 621 117 q 653 28 621 56 q 728 0 685 0 l 801 0 l 801 100 l 767 100 q 729 142 729 100 l 729 689 l 621 689 l 621 581 l 604 581 q 513 677 571 646 q 385 708 456 708 q 224 667 297 708 q 108 547 151 626 q 65 356 65 468 l 65 333 q 108 141 65 219 q 224 22 151 63 q 388 -19 297 -19 m 399 83 q 239 150 301 83 q 176 333 176 217 l 176 356 q 206 487 176 431 q 285 574 235 543 q 399 606 335 606 q 513 573 463 606 q 592 483 563 540 q 621 353 621 426 l 621 336 q 558 153 621 222 q 399 83 496 83 m 390 -283 q 459 -254 431 -283 q 488 -186 488 -225 q 459 -117 488 -146 q 390 -89 431 -89 q 322 -117 351 -89 q 293 -186 293 -146 q 322 -254 293 -225 q 390 -283 351 -283 "},"à":{"ha":850,"x_min":65,"x_max":801,"o":"m 388 -19 q 512 15 453 -19 q 604 117 571 49 l 621 117 q 653 28 621 56 q 728 0 685 0 l 801 0 l 801 100 l 767 100 q 729 142 729 100 l 729 689 l 621 689 l 621 581 l 604 581 q 513 677 571 646 q 385 708 456 708 q 224 667 297 708 q 108 547 151 626 q 65 356 65 468 l 65 333 q 108 141 65 219 q 224 22 151 63 q 388 -19 297 -19 m 399 83 q 239 150 301 83 q 176 333 176 217 l 176 356 q 206 487 176 431 q 285 574 235 543 q 399 606 335 606 q 513 573 463 606 q 592 483 563 540 q 621 353 621 426 l 621 336 q 558 153 621 222 q 399 83 496 83 m 354 792 l 454 792 l 363 956 l 238 956 l 354 792 "},"ả":{"ha":850,"x_min":65,"x_max":801,"o":"m 388 -19 q 512 15 453 -19 q 604 117 571 49 l 621 117 q 653 28 621 56 q 728 0 685 0 l 801 0 l 801 100 l 767 100 q 729 142 729 100 l 729 689 l 621 689 l 621 581 l 604 581 q 513 677 571 646 q 385 708 456 708 q 224 667 297 708 q 108 547 151 626 q 65 356 65 468 l 65 333 q 108 141 65 219 q 224 22 151 63 q 388 -19 297 -19 m 399 83 q 239 150 301 83 q 176 333 176 217 l 176 356 q 206 487 176 431 q 285 574 235 543 q 399 606 335 606 q 513 573 463 606 q 592 483 563 540 q 621 353 621 426 l 621 336 q 558 153 621 222 q 399 83 496 83 m 354 758 l 422 758 l 401 853 l 410 853 q 485 808 428 808 q 562 844 533 808 q 590 926 590 879 q 553 1018 590 983 q 461 1053 515 1053 q 369 1025 401 1053 q 326 956 338 997 l 393 931 q 413 969 397 951 q 460 986 429 986 q 498 972 481 986 q 515 928 515 958 q 501 889 515 903 q 467 875 486 875 q 432 894 442 875 l 326 894 l 326 886 l 354 758 "},"ɑ":{"ha":850,"x_min":65,"x_max":801,"o":"m 388 -19 q 512 15 453 -19 q 604 117 571 49 l 621 117 q 653 28 621 56 q 728 0 685 0 l 801 0 l 801 100 l 767 100 q 729 142 729 100 l 729 689 l 621 689 l 621 581 l 604 581 q 513 677 571 646 q 385 708 456 708 q 224 667 297 708 q 108 547 151 626 q 65 356 65 468 l 65 333 q 108 141 65 219 q 224 22 151 63 q 388 -19 297 -19 m 399 83 q 239 150 301 83 q 176 333 176 217 l 176 356 q 206 487 176 431 q 285 574 235 543 q 399 606 335 606 q 513 573 463 606 q 592 483 563 540 q 621 353 621 426 l 621 336 q 558 153 621 222 q 399 83 496 83 "},"ɒ":{"ha":850,"x_min":65,"x_max":801,"o":"m 479 708 q 356 675 415 708 q 263 572 296 642 l 246 572 q 215 661 246 633 q 139 689 183 689 l 65 689 l 65 589 l 100 589 q 138 547 138 589 l 138 0 l 246 0 l 246 108 l 263 108 q 353 13 296 44 q 482 -19 411 -19 q 642 22 569 -19 q 758 142 715 63 q 801 333 801 221 l 801 356 q 758 548 801 469 q 642 667 715 626 q 479 708 569 708 m 468 606 q 628 539 567 606 q 690 356 690 472 l 690 333 q 661 202 690 258 q 582 115 632 146 q 468 83 532 83 q 354 116 404 83 q 275 206 304 149 q 246 336 246 263 l 246 353 q 308 537 246 468 q 468 606 371 606 "},"ā":{"ha":850,"x_min":65,"x_max":801,"o":"m 388 -19 q 512 15 453 -19 q 604 117 571 49 l 621 117 q 653 28 621 56 q 728 0 685 0 l 801 0 l 801 100 l 767 100 q 729 142 729 100 l 729 689 l 621 689 l 621 581 l 604 581 q 513 677 571 646 q 385 708 456 708 q 224 667 297 708 q 108 547 151 626 q 65 356 65 468 l 65 333 q 108 141 65 219 q 224 22 151 63 q 388 -19 297 -19 m 399 83 q 239 150 301 83 q 176 333 176 217 l 176 356 q 206 487 176 431 q 285 574 235 543 q 399 606 335 606 q 513 573 463 606 q 592 483 563 540 q 621 353 621 426 l 621 336 q 558 153 621 222 q 399 83 496 83 m 219 792 l 583 792 l 583 883 l 219 883 l 219 792 "},"ą":{"ha":850,"x_min":65,"x_max":801,"o":"m 724 -228 l 801 -228 l 801 -136 l 743 -136 q 711 -106 711 -136 q 711 -102 711 -104 q 713 -94 711 -100 l 735 0 l 801 0 l 801 100 l 767 100 q 729 142 729 100 l 729 689 l 621 689 l 621 581 l 604 581 q 513 677 571 646 q 385 708 456 708 q 224 667 297 708 q 108 547 151 626 q 65 356 65 468 l 65 333 q 108 141 65 219 q 224 22 151 63 q 388 -19 297 -19 q 512 15 453 -19 q 604 117 571 49 l 621 117 l 621 108 q 647 35 621 64 l 619 -92 q 615 -125 615 -112 q 649 -202 615 -176 q 724 -228 683 -228 m 399 83 q 239 150 301 83 q 176 333 176 217 l 176 356 q 206 487 176 431 q 285 574 235 543 q 399 606 335 606 q 513 573 463 606 q 592 483 563 540 q 621 353 621 426 l 621 336 q 558 153 621 222 q 399 83 496 83 "},"å":{"ha":850,"x_min":65,"x_max":801,"o":"m 388 -19 q 512 15 453 -19 q 604 117 571 49 l 621 117 q 653 28 621 56 q 728 0 685 0 l 801 0 l 801 100 l 767 100 q 729 142 729 100 l 729 689 l 621 689 l 621 581 l 604 581 q 513 677 571 646 q 385 708 456 708 q 224 667 297 708 q 108 547 151 626 q 65 356 65 468 l 65 333 q 108 141 65 219 q 224 22 151 63 q 388 -19 297 -19 m 399 83 q 239 150 301 83 q 176 333 176 217 l 176 356 q 206 487 176 431 q 285 574 235 543 q 399 606 335 606 q 513 573 463 606 q 592 483 563 540 q 621 353 621 426 l 621 336 q 558 153 621 222 q 399 83 496 83 m 401 792 q 502 833 461 792 q 543 933 543 874 q 502 1034 543 993 q 401 1075 461 1075 q 301 1034 342 1075 q 260 933 260 993 q 301 833 260 874 q 401 792 342 792 m 401 875 q 360 892 376 875 q 343 933 343 908 q 360 975 343 958 q 401 992 376 992 q 443 975 426 992 q 460 933 460 958 q 443 892 460 908 q 401 875 426 875 "},"ã":{"ha":850,"x_min":65,"x_max":801,"o":"m 388 -19 q 512 15 453 -19 q 604 117 571 49 l 621 117 q 653 28 621 56 q 728 0 685 0 l 801 0 l 801 100 l 767 100 q 729 142 729 100 l 729 689 l 621 689 l 621 581 l 604 581 q 513 677 571 646 q 385 708 456 708 q 224 667 297 708 q 108 547 151 626 q 65 356 65 468 l 65 333 q 108 141 65 219 q 224 22 151 63 q 388 -19 297 -19 m 399 83 q 239 150 301 83 q 176 333 176 217 l 176 356 q 206 487 176 431 q 285 574 235 543 q 399 606 335 606 q 513 573 463 606 q 592 483 563 540 q 621 353 621 426 l 621 336 q 558 153 621 222 q 399 83 496 83 m 472 765 q 533 782 506 765 q 581 824 560 799 l 638 892 l 569 950 l 510 881 q 492 864 500 868 q 478 860 485 860 q 458 869 468 860 q 431 906 447 879 q 392 954 413 936 q 331 972 371 972 q 267 955 293 972 q 222 914 242 938 l 164 846 l 232 788 l 289 856 q 310 874 301 871 q 325 878 318 878 q 371 831 346 878 q 414 782 390 799 q 472 765 438 765 "},"ɐ":{"ha":850,"x_min":86,"x_max":738,"o":"m 496 708 q 364 672 417 708 q 283 572 311 635 l 267 572 l 267 581 q 237 658 267 628 q 160 689 207 689 l 86 689 l 86 589 l 121 589 q 158 547 158 589 l 158 243 q 194 108 158 167 q 295 15 231 49 q 444 -19 360 -19 q 584 12 526 -19 q 676 94 642 43 q 721 206 711 146 l 618 231 q 562 119 607 158 q 444 81 517 81 q 343 105 382 81 q 285 167 304 129 q 267 244 267 204 l 267 272 l 493 272 q 618 298 563 272 q 706 371 674 324 q 738 483 738 418 l 738 500 q 709 604 738 557 q 626 680 681 651 q 496 708 572 708 m 486 608 q 593 576 556 608 q 631 492 631 543 q 590 402 631 432 q 481 372 550 372 l 268 372 l 268 389 q 324 548 268 488 q 486 608 381 608 "},"æ":{"ha":850,"x_min":100,"x_max":750,"o":"m 342 -19 l 425 -19 q 635 41 557 -19 q 742 197 713 101 l 639 225 q 585 135 622 174 q 474 86 547 97 l 474 311 l 750 311 l 750 400 q 731 499 750 446 q 673 600 713 553 q 572 678 633 647 q 425 708 510 708 l 393 708 q 253 677 311 708 q 162 595 196 646 q 117 483 128 544 l 219 458 q 365 607 240 592 l 365 411 l 344 411 q 219 386 275 411 q 132 315 164 361 q 100 203 100 268 l 100 186 q 164 41 100 101 q 342 -19 228 -19 m 474 411 l 474 600 q 589 537 540 586 q 642 411 638 488 l 474 411 m 351 81 q 245 112 283 81 q 207 194 207 143 q 247 283 207 256 q 357 311 288 311 l 365 311 l 365 81 l 351 81 "},"b":{"ha":850,"x_min":96,"x_max":776,"o":"m 457 -19 q 617 22 544 -19 q 733 140 690 63 q 776 331 776 218 l 776 358 q 733 548 776 469 q 617 667 689 626 q 460 708 544 708 q 321 676 385 708 q 221 581 257 643 l 204 581 l 204 972 l 96 972 l 96 0 l 204 0 l 204 106 l 221 106 q 324 12 257 43 q 457 -19 390 -19 m 435 83 q 318 115 371 83 q 235 203 265 146 q 204 336 204 260 l 204 353 q 235 483 204 426 q 319 573 267 540 q 435 606 371 606 q 552 574 500 606 q 635 488 604 543 q 665 358 665 432 l 665 331 q 599 150 665 217 q 435 83 533 83 "},"ƀ":{"ha":850,"x_min":13,"x_max":776,"o":"m 457 -19 q 617 22 544 -19 q 733 140 690 63 q 776 331 776 218 l 776 358 q 733 548 776 469 q 617 667 689 626 q 460 708 544 708 q 321 676 385 708 q 221 581 257 643 l 204 581 l 204 781 l 451 781 l 451 881 l 204 881 l 204 972 l 96 972 l 96 881 l 13 881 l 13 781 l 96 781 l 96 0 l 204 0 l 204 106 l 221 106 q 324 12 257 43 q 457 -19 390 -19 m 435 83 q 318 115 371 83 q 235 203 265 146 q 204 336 204 260 l 204 353 q 235 483 204 426 q 319 573 267 540 q 435 606 371 606 q 552 574 500 606 q 635 488 604 543 q 665 358 665 432 l 665 331 q 599 150 665 217 q 435 83 533 83 "},"c":{"ha":850,"x_min":82,"x_max":765,"o":"m 438 -19 q 597 15 528 -19 q 708 108 665 49 q 765 244 751 168 l 657 269 q 624 180 650 222 q 552 110 599 138 q 438 83 506 83 q 314 113 369 83 q 226 199 258 143 q 193 333 193 256 l 193 350 q 226 483 193 425 q 313 573 258 540 q 435 606 368 606 q 549 579 503 606 q 622 510 596 553 q 654 419 649 468 l 763 444 q 706 581 750 521 q 594 674 663 640 q 438 708 525 708 q 261 665 342 708 q 131 542 181 622 q 82 350 82 461 l 82 333 q 131 142 82 221 q 261 22 181 63 q 438 -19 342 -19 "},"ć":{"ha":850,"x_min":82,"x_max":765,"o":"m 438 -19 q 597 15 528 -19 q 708 108 665 49 q 765 244 751 168 l 657 269 q 624 180 650 222 q 552 110 599 138 q 438 83 506 83 q 314 113 369 83 q 226 199 258 143 q 193 333 193 256 l 193 350 q 226 483 193 425 q 313 573 258 540 q 435 606 368 606 q 549 579 503 606 q 622 510 596 553 q 654 419 649 468 l 763 444 q 706 581 750 521 q 594 674 663 640 q 438 708 525 708 q 261 665 342 708 q 131 542 181 622 q 82 350 82 461 l 82 333 q 131 142 82 221 q 261 22 181 63 q 438 -19 342 -19 m 385 792 l 485 792 l 601 956 l 476 956 l 385 792 "},"č":{"ha":850,"x_min":82,"x_max":765,"o":"m 438 -19 q 597 15 528 -19 q 708 108 665 49 q 765 244 751 168 l 657 269 q 624 180 650 222 q 552 110 599 138 q 438 83 506 83 q 314 113 369 83 q 226 199 258 143 q 193 333 193 256 l 193 350 q 226 483 193 425 q 313 573 258 540 q 435 606 368 606 q 549 579 503 606 q 622 510 596 553 q 654 419 649 468 l 763 444 q 706 581 750 521 q 594 674 663 640 q 438 708 525 708 q 261 665 342 708 q 131 542 181 622 q 82 350 82 461 l 82 333 q 131 142 82 221 q 261 22 181 63 q 438 -19 342 -19 m 339 792 l 511 792 l 622 956 l 506 956 l 433 833 l 417 833 l 344 956 l 228 956 l 339 792 "},"ç":{"ha":850,"x_min":82,"x_max":765,"o":"m 469 -294 q 561 -260 524 -294 q 599 -168 599 -225 q 570 -85 599 -119 q 493 -50 542 -50 q 418 -94 436 -50 l 410 -94 l 426 -19 l 438 -19 q 597 15 528 -19 q 708 108 665 49 q 765 244 751 168 l 657 269 q 624 180 650 222 q 552 110 599 138 q 438 83 506 83 q 314 113 369 83 q 226 199 258 143 q 193 333 193 256 l 193 350 q 226 483 193 425 q 313 573 258 540 q 435 606 368 606 q 549 579 503 606 q 622 510 596 553 q 654 419 649 468 l 763 444 q 706 581 750 521 q 594 674 663 640 q 438 708 525 708 q 261 665 342 708 q 131 542 181 622 q 82 350 82 461 l 82 333 q 119 164 82 236 q 219 47 156 92 q 360 -12 282 3 l 335 -128 l 335 -136 l 440 -136 q 475 -117 450 -117 q 509 -131 494 -117 q 524 -169 524 -144 q 506 -214 524 -200 q 468 -228 489 -228 q 422 -210 438 -228 q 401 -172 406 -193 l 335 -197 q 378 -267 346 -239 q 469 -294 410 -294 "},"ĉ":{"ha":850,"x_min":82,"x_max":765,"o":"m 438 -19 q 597 15 528 -19 q 708 108 665 49 q 765 244 751 168 l 657 269 q 624 180 650 222 q 552 110 599 138 q 438 83 506 83 q 314 113 369 83 q 226 199 258 143 q 193 333 193 256 l 193 350 q 226 483 193 425 q 313 573 258 540 q 435 606 368 606 q 549 579 503 606 q 622 510 596 553 q 654 419 649 468 l 763 444 q 706 581 750 521 q 594 674 663 640 q 438 708 525 708 q 261 665 342 708 q 131 542 181 622 q 82 350 82 461 l 82 333 q 131 142 82 221 q 261 22 181 63 q 438 -19 342 -19 m 228 792 l 344 792 l 417 914 l 433 914 l 506 792 l 622 792 l 511 956 l 339 956 l 228 792 "},"ċ":{"ha":850,"x_min":82,"x_max":765,"o":"m 438 -19 q 597 15 528 -19 q 708 108 665 49 q 765 244 751 168 l 657 269 q 624 180 650 222 q 552 110 599 138 q 438 83 506 83 q 314 113 369 83 q 226 199 258 143 q 193 333 193 256 l 193 350 q 226 483 193 425 q 313 573 258 540 q 435 606 368 606 q 549 579 503 606 q 622 510 596 553 q 654 419 649 468 l 763 444 q 706 581 750 521 q 594 674 663 640 q 438 708 525 708 q 261 665 342 708 q 131 542 181 622 q 82 350 82 461 l 82 333 q 131 142 82 221 q 261 22 181 63 q 438 -19 342 -19 m 425 797 q 494 826 465 797 q 522 894 522 856 q 494 963 522 935 q 425 992 465 992 q 357 963 386 992 q 328 894 328 935 q 357 826 328 856 q 425 797 386 797 "},"d":{"ha":850,"x_min":82,"x_max":763,"o":"m 413 -19 q 540 11 475 -19 q 638 106 604 42 l 654 106 l 654 0 l 763 0 l 763 972 l 654 972 l 654 581 l 638 581 q 542 677 604 646 q 410 708 481 708 q 247 667 321 708 q 127 547 172 625 q 82 356 82 468 l 82 333 q 126 142 82 221 q 246 22 171 63 q 413 -19 321 -19 m 424 83 q 306 114 358 83 q 223 201 253 144 q 193 333 193 257 l 193 356 q 224 487 193 431 q 306 574 254 543 q 424 606 358 606 q 540 573 488 606 q 623 483 592 540 q 654 353 654 426 l 654 336 q 624 203 654 260 q 541 115 593 146 q 424 83 489 83 "},"ď":{"ha":850,"x_min":33,"x_max":825,"o":"m 292 -19 q 402 9 363 -19 q 456 81 442 38 l 472 81 l 472 0 l 581 0 l 581 972 l 472 972 l 472 614 l 456 614 q 397 682 438 656 q 292 708 357 708 q 163 669 221 708 q 69 552 104 631 q 33 356 33 474 l 33 333 q 67 140 33 218 q 160 21 101 61 q 292 -19 218 -19 m 647 631 l 718 631 q 795 661 765 631 q 825 739 825 692 l 825 875 q 797 944 825 915 q 728 972 768 972 q 660 944 689 972 q 631 875 631 915 q 659 807 631 836 q 726 778 688 778 q 750 782 740 778 l 750 747 q 713 706 750 706 l 647 706 l 647 631 m 306 83 q 187 148 229 83 q 144 333 144 213 l 144 356 q 188 542 144 479 q 308 606 232 606 q 408 572 372 606 q 458 480 443 538 q 472 353 472 422 l 472 336 q 457 207 472 264 q 406 117 442 150 q 306 83 369 83 "},"đ":{"ha":850,"x_min":82,"x_max":846,"o":"m 413 -19 q 540 11 475 -19 q 638 106 604 42 l 654 106 l 654 0 l 763 0 l 763 781 l 846 781 l 846 881 l 763 881 l 763 972 l 654 972 l 654 881 l 410 881 l 410 781 l 654 781 l 654 581 l 638 581 q 542 677 604 646 q 410 708 481 708 q 247 667 321 708 q 127 547 172 625 q 82 356 82 468 l 82 333 q 126 142 82 221 q 246 22 171 63 q 413 -19 321 -19 m 424 83 q 306 114 358 83 q 223 201 253 144 q 193 333 193 257 l 193 356 q 224 487 193 431 q 306 574 254 543 q 424 606 358 606 q 540 573 488 606 q 623 483 592 540 q 654 353 654 426 l 654 336 q 624 203 654 260 q 541 115 593 146 q 424 83 489 83 "},"ḍ":{"ha":850,"x_min":82,"x_max":763,"o":"m 413 -19 q 540 11 475 -19 q 638 106 604 42 l 654 106 l 654 0 l 763 0 l 763 972 l 654 972 l 654 581 l 638 581 q 542 677 604 646 q 410 708 481 708 q 247 667 321 708 q 127 547 172 625 q 82 356 82 468 l 82 333 q 126 142 82 221 q 246 22 171 63 q 413 -19 321 -19 m 424 83 q 306 114 358 83 q 223 201 253 144 q 193 333 193 257 l 193 356 q 224 487 193 431 q 306 574 254 543 q 424 606 358 606 q 540 573 488 606 q 623 483 592 540 q 654 353 654 426 l 654 336 q 624 203 654 260 q 541 115 593 146 q 424 83 489 83 m 418 -283 q 487 -254 458 -283 q 515 -186 515 -225 q 487 -117 515 -146 q 418 -89 458 -89 q 350 -117 379 -89 q 321 -186 321 -146 q 350 -254 321 -225 q 418 -283 379 -283 "},"ḏ":{"ha":850,"x_min":82,"x_max":763,"o":"m 413 -19 q 540 11 475 -19 q 638 106 604 42 l 654 106 l 654 0 l 763 0 l 763 972 l 654 972 l 654 581 l 638 581 q 542 677 604 646 q 410 708 481 708 q 247 667 321 708 q 127 547 172 625 q 82 356 82 468 l 82 333 q 126 142 82 221 q 246 22 171 63 q 413 -19 321 -19 m 424 83 q 306 114 358 83 q 223 201 253 144 q 193 333 193 257 l 193 356 q 224 487 193 431 q 306 574 254 543 q 424 606 358 606 q 540 573 488 606 q 623 483 592 540 q 654 353 654 426 l 654 336 q 624 203 654 260 q 541 115 593 146 q 424 83 489 83 m 222 -181 l 614 -181 l 614 -89 l 222 -89 l 222 -181 "},"ð":{"ha":850,"x_min":79,"x_max":771,"o":"m 425 -19 q 599 24 521 -19 q 724 156 678 68 q 771 376 771 244 q 743 591 771 489 q 656 776 715 693 q 501 911 597 860 l 526 963 l 439 1003 l 414 951 q 333 976 375 965 q 247 992 292 986 l 222 889 q 368 856 299 881 l 342 800 l 431 760 l 457 815 q 560 730 515 781 q 622 611 604 679 l 606 611 q 530 681 581 653 q 408 708 479 708 q 249 667 325 708 q 126 545 174 625 q 79 353 79 465 l 79 336 q 128 143 79 222 q 255 22 176 64 q 425 -19 333 -19 m 425 83 q 306 114 360 83 q 222 201 253 144 q 190 336 190 258 l 190 353 q 222 485 190 428 q 306 574 253 542 q 425 606 360 606 q 544 574 490 606 q 628 485 597 542 q 660 353 660 428 q 628 206 660 267 q 544 115 597 146 q 425 83 492 83 "},"e":{"ha":850,"x_min":92,"x_max":756,"o":"m 428 -19 q 640 41 561 -19 q 747 197 718 101 l 644 225 q 578 125 626 167 q 431 83 529 83 q 265 147 325 83 q 200 311 204 210 l 756 311 l 756 400 q 737 499 756 446 q 678 600 718 553 q 577 678 639 647 q 431 708 515 708 q 258 664 335 708 q 136 543 181 619 q 92 369 92 467 l 92 336 q 135 151 92 231 q 253 26 178 71 q 428 -19 329 -19 m 203 411 q 276 550 214 494 q 431 606 339 606 q 533 582 485 606 q 613 515 582 558 q 647 411 644 471 l 203 411 "},"é":{"ha":850,"x_min":92,"x_max":756,"o":"m 428 -19 q 640 41 561 -19 q 747 197 718 101 l 644 225 q 578 125 626 167 q 431 83 529 83 q 265 147 325 83 q 200 311 204 210 l 756 311 l 756 400 q 737 499 756 446 q 678 600 718 553 q 577 678 639 647 q 431 708 515 708 q 258 664 335 708 q 136 543 181 619 q 92 369 92 467 l 92 336 q 135 151 92 231 q 253 26 178 71 q 428 -19 329 -19 m 203 411 q 276 550 214 494 q 431 606 339 606 q 533 582 485 606 q 613 515 582 558 q 647 411 644 471 l 203 411 m 385 792 l 485 792 l 601 956 l 476 956 l 385 792 "},"ĕ":{"ha":850,"x_min":92,"x_max":756,"o":"m 428 -19 q 640 41 561 -19 q 747 197 718 101 l 644 225 q 578 125 626 167 q 431 83 529 83 q 265 147 325 83 q 200 311 204 210 l 756 311 l 756 400 q 737 499 756 446 q 678 600 718 553 q 577 678 639 647 q 431 708 515 708 q 258 664 335 708 q 136 543 181 619 q 92 369 92 467 l 92 336 q 135 151 92 231 q 253 26 178 71 q 428 -19 329 -19 m 203 411 q 276 550 214 494 q 431 606 339 606 q 533 582 485 606 q 613 515 582 558 q 647 411 644 471 l 203 411 m 425 792 q 535 833 494 792 q 575 942 575 875 l 575 956 l 479 956 l 479 939 q 465 901 479 917 q 425 885 451 885 q 385 901 399 885 q 371 939 371 917 l 371 956 l 275 956 l 275 942 q 316 833 275 875 q 425 792 357 792 "},"ě":{"ha":850,"x_min":92,"x_max":756,"o":"m 428 -19 q 640 41 561 -19 q 747 197 718 101 l 644 225 q 578 125 626 167 q 431 83 529 83 q 265 147 325 83 q 200 311 204 210 l 756 311 l 756 400 q 737 499 756 446 q 678 600 718 553 q 577 678 639 647 q 431 708 515 708 q 258 664 335 708 q 136 543 181 619 q 92 369 92 467 l 92 336 q 135 151 92 231 q 253 26 178 71 q 428 -19 329 -19 m 203 411 q 276 550 214 494 q 431 606 339 606 q 533 582 485 606 q 613 515 582 558 q 647 411 644 471 l 203 411 m 339 792 l 511 792 l 622 956 l 506 956 l 433 833 l 417 833 l 344 956 l 228 956 l 339 792 "},"ê":{"ha":850,"x_min":92,"x_max":756,"o":"m 428 -19 q 640 41 561 -19 q 747 197 718 101 l 644 225 q 578 125 626 167 q 431 83 529 83 q 265 147 325 83 q 200 311 204 210 l 756 311 l 756 400 q 737 499 756 446 q 678 600 718 553 q 577 678 639 647 q 431 708 515 708 q 258 664 335 708 q 136 543 181 619 q 92 369 92 467 l 92 336 q 135 151 92 231 q 253 26 178 71 q 428 -19 329 -19 m 203 411 q 276 550 214 494 q 431 606 339 606 q 533 582 485 606 q 613 515 582 558 q 647 411 644 471 l 203 411 m 228 792 l 344 792 l 417 914 l 433 914 l 506 792 l 622 792 l 511 956 l 339 956 l 228 792 "},"ế":{"ha":850,"x_min":92,"x_max":790,"o":"m 428 -19 q 640 41 561 -19 q 747 197 718 101 l 644 225 q 578 125 626 167 q 431 83 529 83 q 265 147 325 83 q 200 311 204 210 l 756 311 l 756 400 q 737 499 756 446 q 678 600 718 553 q 577 678 639 647 q 431 708 515 708 q 258 664 335 708 q 136 543 181 619 q 92 369 92 467 l 92 336 q 135 151 92 231 q 253 26 178 71 q 428 -19 329 -19 m 203 411 q 276 550 214 494 q 431 606 339 606 q 533 582 485 606 q 613 515 582 558 q 647 411 644 471 l 203 411 m 228 792 l 344 792 l 417 914 l 433 914 l 506 792 l 622 792 l 511 956 l 339 956 l 228 792 m 574 914 l 674 914 l 790 1078 l 665 1078 l 574 914 "},"ệ":{"ha":850,"x_min":92,"x_max":756,"o":"m 428 -19 q 640 41 561 -19 q 747 197 718 101 l 644 225 q 578 125 626 167 q 431 83 529 83 q 265 147 325 83 q 200 311 204 210 l 756 311 l 756 400 q 737 499 756 446 q 678 600 718 553 q 577 678 639 647 q 431 708 515 708 q 258 664 335 708 q 136 543 181 619 q 92 369 92 467 l 92 336 q 135 151 92 231 q 253 26 178 71 q 428 -19 329 -19 m 203 411 q 276 550 214 494 q 431 606 339 606 q 533 582 485 606 q 613 515 582 558 q 647 411 644 471 l 203 411 m 425 -283 q 494 -254 465 -283 q 522 -186 522 -225 q 494 -117 522 -146 q 425 -89 465 -89 q 357 -117 386 -89 q 328 -186 328 -146 q 357 -254 328 -225 q 425 -283 386 -283 m 228 792 l 344 792 l 417 914 l 433 914 l 506 792 l 622 792 l 511 956 l 339 956 l 228 792 "},"ề":{"ha":850,"x_min":47,"x_max":756,"o":"m 428 -19 q 640 41 561 -19 q 747 197 718 101 l 644 225 q 578 125 626 167 q 431 83 529 83 q 265 147 325 83 q 200 311 204 210 l 756 311 l 756 400 q 737 499 756 446 q 678 600 718 553 q 577 678 639 647 q 431 708 515 708 q 258 664 335 708 q 136 543 181 619 q 92 369 92 467 l 92 336 q 135 151 92 231 q 253 26 178 71 q 428 -19 329 -19 m 203 411 q 276 550 214 494 q 431 606 339 606 q 533 582 485 606 q 613 515 582 558 q 647 411 644 471 l 203 411 m 228 792 l 344 792 l 417 914 l 433 914 l 506 792 l 622 792 l 511 956 l 339 956 l 228 792 m 164 914 l 264 914 l 172 1078 l 47 1078 l 164 914 "},"ể":{"ha":850,"x_min":92,"x_max":826,"o":"m 428 -19 q 640 41 561 -19 q 747 197 718 101 l 644 225 q 578 125 626 167 q 431 83 529 83 q 265 147 325 83 q 200 311 204 210 l 756 311 l 756 400 q 737 499 756 446 q 678 600 718 553 q 577 678 639 647 q 431 708 515 708 q 258 664 335 708 q 136 543 181 619 q 92 369 92 467 l 92 336 q 135 151 92 231 q 253 26 178 71 q 428 -19 329 -19 m 203 411 q 276 550 214 494 q 431 606 339 606 q 533 582 485 606 q 613 515 582 558 q 647 411 644 471 l 203 411 m 228 792 l 344 792 l 417 914 l 433 914 l 506 792 l 622 792 l 511 956 l 339 956 l 228 792 m 590 908 l 658 908 l 638 1003 l 646 1003 q 721 958 664 958 q 798 994 769 958 q 826 1076 826 1029 q 789 1168 826 1133 q 697 1203 751 1203 q 606 1175 638 1203 q 563 1106 574 1147 l 629 1081 q 649 1119 633 1101 q 696 1136 665 1136 q 734 1122 717 1136 q 751 1078 751 1108 q 737 1039 751 1053 q 703 1025 722 1025 q 668 1044 678 1025 l 563 1044 l 563 1036 l 590 908 "},"ễ":{"ha":850,"x_min":92,"x_max":756,"o":"m 428 -19 q 640 41 561 -19 q 747 197 718 101 l 644 225 q 578 125 626 167 q 431 83 529 83 q 265 147 325 83 q 200 311 204 210 l 756 311 l 756 400 q 737 499 756 446 q 678 600 718 553 q 577 678 639 647 q 431 708 515 708 q 258 664 335 708 q 136 543 181 619 q 92 369 92 467 l 92 336 q 135 151 92 231 q 253 26 178 71 q 428 -19 329 -19 m 203 411 q 276 550 214 494 q 431 606 339 606 q 533 582 485 606 q 613 515 582 558 q 647 411 644 471 l 203 411 m 228 792 l 344 792 l 417 914 l 433 914 l 506 792 l 622 792 l 511 956 l 339 956 l 228 792 m 501 990 q 562 1007 535 990 q 610 1049 589 1024 l 667 1117 l 599 1175 l 539 1106 q 522 1089 529 1093 q 507 1085 514 1085 q 487 1094 497 1085 q 460 1131 476 1104 q 421 1179 442 1161 q 360 1197 400 1197 q 297 1180 322 1197 q 251 1139 271 1163 l 193 1071 l 261 1013 l 318 1081 q 339 1099 331 1096 q 354 1103 347 1103 q 400 1056 375 1103 q 443 1007 419 1024 q 501 990 467 990 "},"ë":{"ha":850,"x_min":92,"x_max":756,"o":"m 428 -19 q 640 41 561 -19 q 747 197 718 101 l 644 225 q 578 125 626 167 q 431 83 529 83 q 265 147 325 83 q 200 311 204 210 l 756 311 l 756 400 q 737 499 756 446 q 678 600 718 553 q 577 678 639 647 q 431 708 515 708 q 258 664 335 708 q 136 543 181 619 q 92 369 92 467 l 92 336 q 135 151 92 231 q 253 26 178 71 q 428 -19 329 -19 m 203 411 q 276 550 214 494 q 431 606 339 606 q 533 582 485 606 q 613 515 582 558 q 647 411 644 471 l 203 411 m 564 797 q 633 826 604 797 q 661 894 661 856 q 633 963 661 935 q 564 992 604 992 q 496 963 525 992 q 467 894 467 935 q 496 826 467 856 q 564 797 525 797 m 286 797 q 355 826 326 797 q 383 894 383 856 q 355 963 383 935 q 286 992 326 992 q 218 963 247 992 q 189 894 189 935 q 218 826 189 856 q 286 797 247 797 "},"ė":{"ha":850,"x_min":92,"x_max":756,"o":"m 428 -19 q 640 41 561 -19 q 747 197 718 101 l 644 225 q 578 125 626 167 q 431 83 529 83 q 265 147 325 83 q 200 311 204 210 l 756 311 l 756 400 q 737 499 756 446 q 678 600 718 553 q 577 678 639 647 q 431 708 515 708 q 258 664 335 708 q 136 543 181 619 q 92 369 92 467 l 92 336 q 135 151 92 231 q 253 26 178 71 q 428 -19 329 -19 m 203 411 q 276 550 214 494 q 431 606 339 606 q 533 582 485 606 q 613 515 582 558 q 647 411 644 471 l 203 411 m 425 797 q 494 826 465 797 q 522 894 522 856 q 494 963 522 935 q 425 992 465 992 q 357 963 386 992 q 328 894 328 935 q 357 826 328 856 q 425 797 386 797 "},"ẹ":{"ha":850,"x_min":92,"x_max":756,"o":"m 428 -19 q 640 41 561 -19 q 747 197 718 101 l 644 225 q 578 125 626 167 q 431 83 529 83 q 265 147 325 83 q 200 311 204 210 l 756 311 l 756 400 q 737 499 756 446 q 678 600 718 553 q 577 678 639 647 q 431 708 515 708 q 258 664 335 708 q 136 543 181 619 q 92 369 92 467 l 92 336 q 135 151 92 231 q 253 26 178 71 q 428 -19 329 -19 m 203 411 q 276 550 214 494 q 431 606 339 606 q 533 582 485 606 q 613 515 582 558 q 647 411 644 471 l 203 411 m 425 -283 q 494 -254 465 -283 q 522 -186 522 -225 q 494 -117 522 -146 q 425 -89 465 -89 q 357 -117 386 -89 q 328 -186 328 -146 q 357 -254 328 -225 q 425 -283 386 -283 "},"è":{"ha":850,"x_min":92,"x_max":756,"o":"m 428 -19 q 640 41 561 -19 q 747 197 718 101 l 644 225 q 578 125 626 167 q 431 83 529 83 q 265 147 325 83 q 200 311 204 210 l 756 311 l 756 400 q 737 499 756 446 q 678 600 718 553 q 577 678 639 647 q 431 708 515 708 q 258 664 335 708 q 136 543 181 619 q 92 369 92 467 l 92 336 q 135 151 92 231 q 253 26 178 71 q 428 -19 329 -19 m 203 411 q 276 550 214 494 q 431 606 339 606 q 533 582 485 606 q 613 515 582 558 q 647 411 644 471 l 203 411 m 378 792 l 478 792 l 386 956 l 261 956 l 378 792 "},"ẻ":{"ha":850,"x_min":92,"x_max":756,"o":"m 428 -19 q 640 41 561 -19 q 747 197 718 101 l 644 225 q 578 125 626 167 q 431 83 529 83 q 265 147 325 83 q 200 311 204 210 l 756 311 l 756 400 q 737 499 756 446 q 678 600 718 553 q 577 678 639 647 q 431 708 515 708 q 258 664 335 708 q 136 543 181 619 q 92 369 92 467 l 92 336 q 135 151 92 231 q 253 26 178 71 q 428 -19 329 -19 m 203 411 q 276 550 214 494 q 431 606 339 606 q 533 582 485 606 q 613 515 582 558 q 647 411 644 471 l 203 411 m 378 758 l 446 758 l 425 853 l 433 853 q 508 808 451 808 q 585 844 557 808 q 614 926 614 879 q 576 1018 614 983 q 485 1053 539 1053 q 393 1025 425 1053 q 350 956 361 997 l 417 931 q 437 969 421 951 q 483 986 453 986 q 522 972 504 986 q 539 928 539 958 q 524 889 539 903 q 490 875 510 875 q 456 894 465 875 l 350 894 l 350 886 l 378 758 "},"ē":{"ha":850,"x_min":92,"x_max":756,"o":"m 428 -19 q 640 41 561 -19 q 747 197 718 101 l 644 225 q 578 125 626 167 q 431 83 529 83 q 265 147 325 83 q 200 311 204 210 l 756 311 l 756 400 q 737 499 756 446 q 678 600 718 553 q 577 678 639 647 q 431 708 515 708 q 258 664 335 708 q 136 543 181 619 q 92 369 92 467 l 92 336 q 135 151 92 231 q 253 26 178 71 q 428 -19 329 -19 m 203 411 q 276 550 214 494 q 431 606 339 606 q 533 582 485 606 q 613 515 582 558 q 647 411 644 471 l 203 411 m 243 792 l 607 792 l 607 883 l 243 883 l 243 792 "},"ę":{"ha":850,"x_min":90,"x_max":754,"o":"m 464 -228 l 542 -228 l 542 -136 l 483 -136 q 451 -106 451 -136 q 451 -102 451 -104 q 453 -94 451 -100 l 471 -17 q 651 52 583 -6 q 746 197 719 110 l 643 225 q 576 125 625 167 q 429 83 528 83 q 263 147 324 83 q 199 311 203 210 l 754 311 l 754 400 q 735 499 754 446 q 677 600 717 553 q 576 678 638 647 q 429 708 514 708 q 256 664 333 708 q 135 543 179 619 q 90 369 90 467 l 90 336 q 126 165 90 240 q 227 42 163 89 q 376 -17 292 -6 l 360 -92 q 356 -125 356 -112 q 390 -202 356 -176 q 464 -228 424 -228 m 201 411 q 275 550 213 494 q 429 606 338 606 q 532 582 483 606 q 612 515 581 558 q 646 411 643 471 l 201 411 "},"ɘ":{"ha":850,"x_min":94,"x_max":758,"o":"m 422 -19 q 597 26 521 -19 q 715 151 672 71 q 758 336 758 231 l 758 369 q 714 543 758 467 q 593 664 669 619 q 419 708 517 708 q 273 678 335 708 q 172 600 211 647 q 113 499 132 553 q 94 400 94 446 l 94 311 l 650 311 q 586 147 646 210 q 419 83 526 83 q 274 125 322 83 q 206 225 225 167 l 103 197 q 210 41 132 101 q 422 -19 289 -19 m 203 411 q 237 515 206 471 q 317 582 268 558 q 419 606 365 606 q 574 550 511 606 q 647 411 638 494 l 203 411 "},"ẽ":{"ha":850,"x_min":92,"x_max":756,"o":"m 428 -19 q 640 41 561 -19 q 747 197 718 101 l 644 225 q 578 125 626 167 q 431 83 529 83 q 265 147 325 83 q 200 311 204 210 l 756 311 l 756 400 q 737 499 756 446 q 678 600 718 553 q 577 678 639 647 q 431 708 515 708 q 258 664 335 708 q 136 543 181 619 q 92 369 92 467 l 92 336 q 135 151 92 231 q 253 26 178 71 q 428 -19 329 -19 m 203 411 q 276 550 214 494 q 431 606 339 606 q 533 582 485 606 q 613 515 582 558 q 647 411 644 471 l 203 411 m 496 765 q 556 782 529 765 q 604 824 583 799 l 661 892 l 593 950 l 533 881 q 516 864 524 868 q 501 860 508 860 q 481 869 492 860 q 454 906 471 879 q 415 954 436 936 q 354 972 394 972 q 291 955 317 972 q 246 914 265 938 l 188 846 l 256 788 l 313 856 q 333 874 325 871 q 349 878 342 878 q 394 831 369 878 q 438 782 414 799 q 496 765 461 765 "},"ə":{"ha":850,"x_min":92,"x_max":756,"o":"m 417 -19 q 592 26 515 -19 q 712 148 668 71 q 756 322 756 225 l 756 356 q 711 543 756 464 q 590 665 667 622 q 417 708 514 708 q 226 653 303 708 q 107 503 149 599 l 204 461 q 245 531 219 497 q 313 585 271 564 q 415 606 354 606 q 581 543 519 606 q 647 378 643 481 l 92 378 l 92 297 q 110 194 92 249 q 168 90 129 139 q 269 11 207 42 q 417 -19 331 -19 m 417 83 q 314 107 363 83 q 234 174 265 131 q 200 278 203 218 l 644 278 q 572 139 635 194 q 417 83 508 83 "},"f":{"ha":850,"x_min":114,"x_max":722,"o":"m 326 0 l 435 0 l 435 589 l 722 589 l 722 689 l 435 689 l 435 831 q 472 872 435 872 l 706 872 l 706 972 l 433 972 q 356 942 386 972 q 326 864 326 911 l 326 689 l 114 689 l 114 589 l 326 589 l 326 0 "},"g":{"ha":850,"x_min":72,"x_max":753,"o":"m 197 -278 l 646 -278 q 723 -247 693 -278 q 753 -169 753 -217 l 753 689 l 644 689 l 644 581 l 628 581 q 540 676 597 643 q 408 708 483 708 q 243 667 319 708 q 119 547 167 625 q 72 356 72 468 l 72 333 q 119 142 72 221 q 242 22 165 63 q 411 -19 319 -19 q 537 12 479 -19 q 628 106 594 43 l 644 106 l 644 -136 q 607 -178 644 -178 l 197 -178 l 197 -278 m 414 83 q 295 114 347 83 q 213 201 243 144 q 183 333 183 257 l 183 356 q 214 487 183 431 q 297 574 244 543 q 414 606 349 606 q 530 573 478 606 q 613 483 582 540 q 644 353 644 426 l 644 336 q 614 203 644 260 q 531 115 583 146 q 414 83 479 83 "},"ğ":{"ha":850,"x_min":72,"x_max":753,"o":"m 197 -278 l 646 -278 q 723 -247 693 -278 q 753 -169 753 -217 l 753 689 l 644 689 l 644 581 l 628 581 q 540 676 597 643 q 408 708 483 708 q 243 667 319 708 q 119 547 167 625 q 72 356 72 468 l 72 333 q 119 142 72 221 q 242 22 165 63 q 411 -19 319 -19 q 537 12 479 -19 q 628 106 594 43 l 644 106 l 644 -136 q 607 -178 644 -178 l 197 -178 l 197 -278 m 414 83 q 295 114 347 83 q 213 201 243 144 q 183 333 183 257 l 183 356 q 214 487 183 431 q 297 574 244 543 q 414 606 349 606 q 530 573 478 606 q 613 483 582 540 q 644 353 644 426 l 644 336 q 614 203 644 260 q 531 115 583 146 q 414 83 479 83 m 410 792 q 519 833 479 792 q 560 942 560 875 l 560 956 l 464 956 l 464 939 q 450 901 464 917 q 410 885 436 885 q 369 901 383 885 q 356 939 356 917 l 356 956 l 260 956 l 260 942 q 301 833 260 875 q 410 792 342 792 "},"ǧ":{"ha":850,"x_min":72,"x_max":753,"o":"m 197 -278 l 646 -278 q 723 -247 693 -278 q 753 -169 753 -217 l 753 689 l 644 689 l 644 581 l 628 581 q 540 676 597 643 q 408 708 483 708 q 243 667 319 708 q 119 547 167 625 q 72 356 72 468 l 72 333 q 119 142 72 221 q 242 22 165 63 q 411 -19 319 -19 q 537 12 479 -19 q 628 106 594 43 l 644 106 l 644 -136 q 607 -178 644 -178 l 197 -178 l 197 -278 m 414 83 q 295 114 347 83 q 213 201 243 144 q 183 333 183 257 l 183 356 q 214 487 183 431 q 297 574 244 543 q 414 606 349 606 q 530 573 478 606 q 613 483 582 540 q 644 353 644 426 l 644 336 q 614 203 644 260 q 531 115 583 146 q 414 83 479 83 m 324 792 l 496 792 l 607 956 l 490 956 l 418 833 l 401 833 l 329 956 l 213 956 l 324 792 "},"ĝ":{"ha":850,"x_min":72,"x_max":753,"o":"m 197 -278 l 646 -278 q 723 -247 693 -278 q 753 -169 753 -217 l 753 689 l 644 689 l 644 581 l 628 581 q 540 676 597 643 q 408 708 483 708 q 243 667 319 708 q 119 547 167 625 q 72 356 72 468 l 72 333 q 119 142 72 221 q 242 22 165 63 q 411 -19 319 -19 q 537 12 479 -19 q 628 106 594 43 l 644 106 l 644 -136 q 607 -178 644 -178 l 197 -178 l 197 -278 m 414 83 q 295 114 347 83 q 213 201 243 144 q 183 333 183 257 l 183 356 q 214 487 183 431 q 297 574 244 543 q 414 606 349 606 q 530 573 478 606 q 613 483 582 540 q 644 353 644 426 l 644 336 q 614 203 644 260 q 531 115 583 146 q 414 83 479 83 m 213 792 l 329 792 l 401 914 l 418 914 l 490 792 l 607 792 l 496 956 l 324 956 l 213 792 "},"ģ":{"ha":850,"x_min":72,"x_max":753,"o":"m 197 -278 l 646 -278 q 723 -247 693 -278 q 753 -169 753 -217 l 753 689 l 644 689 l 644 581 l 628 581 q 540 676 597 643 q 408 708 483 708 q 243 667 319 708 q 119 547 167 625 q 72 356 72 468 l 72 333 q 119 142 72 221 q 242 22 165 63 q 411 -19 319 -19 q 537 12 479 -19 q 628 106 594 43 l 644 106 l 644 -136 q 607 -178 644 -178 l 197 -178 l 197 -278 m 414 83 q 295 114 347 83 q 213 201 243 144 q 183 333 183 257 l 183 356 q 214 487 183 431 q 297 574 244 543 q 414 606 349 606 q 530 573 478 606 q 613 483 582 540 q 644 353 644 426 l 644 336 q 614 203 644 260 q 531 115 583 146 q 414 83 479 83 m 410 797 q 478 826 450 797 q 507 894 507 856 q 478 963 507 935 q 411 992 450 992 q 388 988 399 992 l 388 1022 q 425 1064 388 1064 l 490 1064 l 490 1139 l 419 1139 q 342 1108 372 1139 q 313 1031 313 1078 l 313 894 q 342 826 313 856 q 410 797 371 797 "},"ġ":{"ha":850,"x_min":72,"x_max":753,"o":"m 197 -278 l 646 -278 q 723 -247 693 -278 q 753 -169 753 -217 l 753 689 l 644 689 l 644 581 l 628 581 q 540 676 597 643 q 408 708 483 708 q 243 667 319 708 q 119 547 167 625 q 72 356 72 468 l 72 333 q 119 142 72 221 q 242 22 165 63 q 411 -19 319 -19 q 537 12 479 -19 q 628 106 594 43 l 644 106 l 644 -136 q 607 -178 644 -178 l 197 -178 l 197 -278 m 414 83 q 295 114 347 83 q 213 201 243 144 q 183 333 183 257 l 183 356 q 214 487 183 431 q 297 574 244 543 q 414 606 349 606 q 530 573 478 606 q 613 483 582 540 q 644 353 644 426 l 644 336 q 614 203 644 260 q 531 115 583 146 q 414 83 479 83 m 410 797 q 478 826 450 797 q 507 894 507 856 q 478 963 507 935 q 410 992 450 992 q 342 963 371 992 q 313 894 313 935 q 342 826 313 856 q 410 797 371 797 "},"ḡ":{"ha":850,"x_min":72,"x_max":753,"o":"m 197 -278 l 646 -278 q 723 -247 693 -278 q 753 -169 753 -217 l 753 689 l 644 689 l 644 581 l 628 581 q 540 676 597 643 q 408 708 483 708 q 243 667 319 708 q 119 547 167 625 q 72 356 72 468 l 72 333 q 119 142 72 221 q 242 22 165 63 q 411 -19 319 -19 q 537 12 479 -19 q 628 106 594 43 l 644 106 l 644 -136 q 607 -178 644 -178 l 197 -178 l 197 -278 m 414 83 q 295 114 347 83 q 213 201 243 144 q 183 333 183 257 l 183 356 q 214 487 183 431 q 297 574 244 543 q 414 606 349 606 q 530 573 478 606 q 613 483 582 540 q 644 353 644 426 l 644 336 q 614 203 644 260 q 531 115 583 146 q 414 83 479 83 m 228 792 l 592 792 l 592 883 l 228 883 l 228 792 "},"ɡ":{"ha":850,"x_min":72,"x_max":753,"o":"m 197 -278 l 646 -278 q 723 -247 693 -278 q 753 -169 753 -217 l 753 689 l 644 689 l 644 581 l 628 581 q 540 676 597 643 q 408 708 483 708 q 243 667 319 708 q 119 547 167 625 q 72 356 72 468 l 72 333 q 119 142 72 221 q 242 22 165 63 q 411 -19 319 -19 q 537 12 479 -19 q 628 106 594 43 l 644 106 l 644 -136 q 607 -178 644 -178 l 197 -178 l 197 -278 m 414 83 q 295 114 347 83 q 213 201 243 144 q 183 333 183 257 l 183 356 q 214 487 183 431 q 297 574 244 543 q 414 606 349 606 q 530 573 478 606 q 613 483 582 540 q 644 353 644 426 l 644 336 q 614 203 644 260 q 531 115 583 146 q 414 83 479 83 "},"h":{"ha":850,"x_min":121,"x_max":729,"o":"m 121 0 l 229 0 l 229 358 q 286 538 229 471 q 440 606 343 606 q 572 551 524 606 q 621 389 621 497 l 621 0 l 729 0 l 729 411 q 659 634 729 560 q 476 708 589 708 q 335 669 393 708 q 246 564 278 631 l 229 564 l 229 972 l 121 972 l 121 0 "},"ħ":{"ha":850,"x_min":38,"x_max":729,"o":"m 121 0 l 229 0 l 229 358 q 286 538 229 471 q 440 606 343 606 q 572 551 524 606 q 621 389 621 497 l 621 0 l 729 0 l 729 411 q 659 634 729 560 q 476 708 589 708 q 335 669 393 708 q 246 564 278 631 l 229 564 l 229 781 l 476 781 l 476 881 l 229 881 l 229 972 l 121 972 l 121 881 l 38 881 l 38 781 l 121 781 l 121 0 "},"ḫ":{"ha":850,"x_min":121,"x_max":729,"o":"m 121 0 l 229 0 l 229 358 q 286 538 229 471 q 440 606 343 606 q 572 551 524 606 q 621 389 621 497 l 621 0 l 729 0 l 729 411 q 659 634 729 560 q 476 708 589 708 q 335 669 393 708 q 246 564 278 631 l 229 564 l 229 972 l 121 972 l 121 0 m 425 -253 q 535 -211 494 -253 q 575 -103 575 -169 l 575 -89 l 479 -89 l 479 -106 q 465 -144 479 -128 q 425 -160 451 -160 q 385 -144 399 -160 q 371 -106 371 -128 l 371 -89 l 275 -89 l 275 -103 q 316 -211 275 -169 q 425 -253 357 -253 "},"ĥ":{"ha":850,"x_min":117,"x_max":729,"o":"m 121 0 l 229 0 l 229 358 q 286 538 229 471 q 440 606 343 606 q 572 551 524 606 q 621 389 621 497 l 621 0 l 729 0 l 729 411 q 659 634 729 560 q 476 708 589 708 q 335 669 393 708 q 246 564 278 631 l 229 564 l 229 972 l 121 972 l 121 0 m 117 1075 l 233 1075 l 306 1197 l 322 1197 l 394 1075 l 511 1075 l 400 1239 l 228 1239 l 117 1075 "},"ḥ":{"ha":850,"x_min":121,"x_max":729,"o":"m 121 0 l 229 0 l 229 358 q 286 538 229 471 q 440 606 343 606 q 572 551 524 606 q 621 389 621 497 l 621 0 l 729 0 l 729 411 q 659 634 729 560 q 476 708 589 708 q 335 669 393 708 q 246 564 278 631 l 229 564 l 229 972 l 121 972 l 121 0 m 425 -283 q 494 -254 465 -283 q 522 -186 522 -225 q 494 -117 522 -146 q 425 -89 465 -89 q 357 -117 386 -89 q 328 -186 328 -146 q 357 -254 328 -225 q 425 -283 386 -283 "},"ɥ":{"ha":850,"x_min":119,"x_max":728,"o":"m 619 -278 l 728 -278 l 728 689 l 619 689 l 619 331 q 563 151 619 218 q 408 83 507 83 q 276 138 325 83 q 228 300 228 192 l 228 689 l 119 689 l 119 278 q 190 56 119 131 q 372 -19 260 -19 q 514 19 456 -19 q 603 125 572 58 l 619 125 l 619 -278 "},"i":{"ha":850,"x_min":138,"x_max":713,"o":"m 432 797 q 501 826 472 797 q 529 894 529 856 q 501 963 529 935 q 432 992 472 992 q 364 963 393 992 q 335 894 335 935 q 364 826 335 856 q 432 797 393 797 m 138 0 l 713 0 l 713 100 l 488 100 l 488 689 l 163 689 l 163 589 l 379 589 l 379 100 l 138 100 l 138 0 "},"ı":{"ha":850,"x_min":138,"x_max":713,"o":"m 138 0 l 713 0 l 713 100 l 488 100 l 488 689 l 163 689 l 163 589 l 379 589 l 379 100 l 138 100 l 138 0 "},"í":{"ha":850,"x_min":138,"x_max":713,"o":"m 138 0 l 713 0 l 713 100 l 488 100 l 488 689 l 163 689 l 163 589 l 379 589 l 379 100 l 138 100 l 138 0 m 361 792 l 461 792 l 578 956 l 453 956 l 361 792 "},"ĭ":{"ha":850,"x_min":138,"x_max":713,"o":"m 138 0 l 713 0 l 713 100 l 488 100 l 488 689 l 163 689 l 163 589 l 379 589 l 379 100 l 138 100 l 138 0 m 401 792 q 511 833 471 792 q 551 942 551 875 l 551 956 l 456 956 l 456 939 q 442 901 456 917 q 401 885 428 885 q 361 901 375 885 q 347 939 347 917 l 347 956 l 251 956 l 251 942 q 292 833 251 875 q 401 792 333 792 "},"ǐ":{"ha":850,"x_min":138,"x_max":713,"o":"m 138 0 l 713 0 l 713 100 l 488 100 l 488 689 l 163 689 l 163 589 l 379 589 l 379 100 l 138 100 l 138 0 m 315 792 l 488 792 l 599 956 l 482 956 l 410 833 l 393 833 l 321 956 l 204 956 l 315 792 "},"î":{"ha":850,"x_min":138,"x_max":713,"o":"m 138 0 l 713 0 l 713 100 l 488 100 l 488 689 l 163 689 l 163 589 l 379 589 l 379 100 l 138 100 l 138 0 m 204 792 l 321 792 l 393 914 l 410 914 l 482 792 l 599 792 l 488 956 l 315 956 l 204 792 "},"ï":{"ha":850,"x_min":138,"x_max":713,"o":"m 138 0 l 713 0 l 713 100 l 488 100 l 488 689 l 163 689 l 163 589 l 379 589 l 379 100 l 138 100 l 138 0 m 540 797 q 609 826 581 797 q 638 894 638 856 q 609 963 638 935 q 540 992 581 992 q 472 963 501 992 q 443 894 443 935 q 472 826 443 856 q 540 797 501 797 m 263 797 q 331 826 303 797 q 360 894 360 856 q 331 963 360 935 q 263 992 303 992 q 194 963 224 992 q 165 894 165 935 q 194 826 165 856 q 263 797 224 797 "},"ị":{"ha":850,"x_min":138,"x_max":713,"o":"m 432 797 q 501 826 472 797 q 529 894 529 856 q 501 963 529 935 q 432 992 472 992 q 364 963 393 992 q 335 894 335 935 q 364 826 335 856 q 432 797 393 797 m 138 0 l 713 0 l 713 100 l 488 100 l 488 689 l 163 689 l 163 589 l 379 589 l 379 100 l 138 100 l 138 0 m 425 -283 q 494 -254 465 -283 q 522 -186 522 -225 q 494 -117 522 -146 q 425 -89 465 -89 q 357 -117 386 -89 q 328 -186 328 -146 q 357 -254 328 -225 q 425 -283 386 -283 "},"ì":{"ha":850,"x_min":138,"x_max":713,"o":"m 138 0 l 713 0 l 713 100 l 488 100 l 488 689 l 163 689 l 163 589 l 379 589 l 379 100 l 138 100 l 138 0 m 354 792 l 454 792 l 363 956 l 238 956 l 354 792 "},"ỉ":{"ha":850,"x_min":138,"x_max":713,"o":"m 138 0 l 713 0 l 713 100 l 488 100 l 488 689 l 163 689 l 163 589 l 379 589 l 379 100 l 138 100 l 138 0 m 354 758 l 422 758 l 401 853 l 410 853 q 485 808 428 808 q 562 844 533 808 q 590 926 590 879 q 553 1018 590 983 q 461 1053 515 1053 q 369 1025 401 1053 q 326 956 338 997 l 393 931 q 413 969 397 951 q 460 986 429 986 q 498 972 481 986 q 515 928 515 958 q 501 889 515 903 q 467 875 486 875 q 432 894 442 875 l 326 894 l 326 886 l 354 758 "},"ī":{"ha":850,"x_min":138,"x_max":713,"o":"m 138 0 l 713 0 l 713 100 l 488 100 l 488 689 l 163 689 l 163 589 l 379 589 l 379 100 l 138 100 l 138 0 m 150 792 l 514 792 l 514 883 l 150 883 l 150 792 "},"į":{"ha":850,"x_min":138,"x_max":779,"o":"m 432 797 q 501 826 472 797 q 529 894 529 856 q 501 963 529 935 q 432 992 472 992 q 364 963 393 992 q 335 894 335 935 q 364 826 335 856 q 432 797 393 797 m 701 -228 l 779 -228 l 779 -136 l 721 -136 q 689 -106 689 -136 q 689 -102 689 -104 q 690 -94 689 -100 l 713 0 l 713 100 l 488 100 l 488 689 l 163 689 l 163 589 l 379 589 l 379 100 l 138 100 l 138 0 l 617 0 l 597 -92 q 593 -125 593 -112 q 626 -202 593 -176 q 701 -228 660 -228 "},"ĩ":{"ha":850,"x_min":138,"x_max":713,"o":"m 138 0 l 713 0 l 713 100 l 488 100 l 488 689 l 163 689 l 163 589 l 379 589 l 379 100 l 138 100 l 138 0 m 472 765 q 533 782 506 765 q 581 824 560 799 l 638 892 l 569 950 l 510 881 q 492 864 500 868 q 478 860 485 860 q 458 869 468 860 q 431 906 447 879 q 392 954 413 936 q 331 972 371 972 q 267 955 293 972 q 222 914 242 938 l 164 846 l 232 788 l 289 856 q 310 874 301 871 q 325 878 318 878 q 371 831 346 878 q 414 782 390 799 q 472 765 438 765 "},"ĳ":{"ha":850,"x_min":78,"x_max":772,"o":"m 175 797 q 244 826 215 797 q 272 894 272 856 q 244 963 272 935 q 175 992 215 992 q 107 963 136 992 q 78 894 78 935 q 107 826 78 856 q 175 797 136 797 m 675 797 q 744 826 715 797 q 772 894 772 856 q 744 963 772 935 q 675 992 715 992 q 607 963 636 992 q 578 894 578 935 q 607 826 578 856 q 675 797 636 797 m 313 -278 l 622 -278 q 699 -247 669 -278 q 729 -169 729 -217 l 729 689 l 621 689 l 621 331 q 565 151 621 218 q 410 83 508 83 q 274 133 318 83 q 229 292 229 183 l 229 689 l 121 689 l 121 278 q 193 56 121 131 q 379 -19 265 -19 q 517 19 463 -19 q 604 125 571 58 l 621 125 l 621 -136 q 583 -178 621 -178 l 313 -178 l 313 -278 "},"j":{"ha":850,"x_min":163,"x_max":621,"o":"m 524 797 q 592 826 564 797 q 621 894 621 856 q 592 963 621 935 q 524 992 564 992 q 456 963 485 992 q 426 894 426 935 q 456 826 426 856 q 524 797 485 797 m 163 -278 l 472 -278 q 549 -247 519 -278 q 579 -169 579 -217 l 579 689 l 196 689 l 196 589 l 471 589 l 471 -136 q 433 -178 471 -178 l 163 -178 l 163 -278 "},"ȷ":{"ha":850,"x_min":163,"x_max":579,"o":"m 163 -278 l 472 -278 q 549 -247 519 -278 q 579 -169 579 -217 l 579 689 l 196 689 l 196 589 l 471 589 l 471 -136 q 433 -178 471 -178 l 163 -178 l 163 -278 "},"ĵ":{"ha":850,"x_min":163,"x_max":622,"o":"m 163 -278 l 472 -278 q 549 -247 519 -278 q 579 -169 579 -217 l 579 689 l 196 689 l 196 589 l 471 589 l 471 -136 q 433 -178 471 -178 l 163 -178 l 163 -278 m 228 792 l 344 792 l 417 914 l 433 914 l 506 792 l 622 792 l 511 956 l 339 956 l 228 792 "},"k":{"ha":850,"x_min":190,"x_max":751,"o":"m 190 0 l 299 0 l 299 303 l 325 303 l 618 0 l 751 0 l 751 8 l 432 340 l 432 365 l 718 681 l 718 689 l 585 689 l 322 403 l 299 403 l 299 972 l 190 972 l 190 0 "},"ķ":{"ha":850,"x_min":190,"x_max":751,"o":"m 190 0 l 299 0 l 299 303 l 325 303 l 618 0 l 751 0 l 751 8 l 432 340 l 432 365 l 718 681 l 718 689 l 585 689 l 322 403 l 299 403 l 299 972 l 190 972 l 190 0 m 344 -406 l 415 -406 q 492 -375 463 -406 q 522 -297 522 -344 l 522 -161 q 494 -92 522 -121 q 425 -64 465 -64 q 357 -92 386 -64 q 328 -161 328 -121 q 356 -229 328 -200 q 424 -258 385 -258 q 447 -254 438 -258 l 447 -289 q 410 -331 447 -331 l 344 -331 l 344 -406 "},"ĸ":{"ha":850,"x_min":190,"x_max":751,"o":"m 190 0 l 299 0 l 299 303 l 325 303 l 618 0 l 751 0 l 751 8 l 432 340 l 432 365 l 718 681 l 718 689 l 585 689 l 322 403 l 299 403 l 299 689 l 190 689 l 190 0 "},"ʞ":{"ha":850,"x_min":99,"x_max":660,"o":"m 551 -278 l 660 -278 l 660 689 l 551 689 l 551 386 l 525 386 l 232 689 l 99 689 l 99 681 l 418 349 l 418 324 l 132 8 l 132 0 l 265 0 l 528 286 l 551 286 l 551 -278 "},"l":{"ha":850,"x_min":121,"x_max":729,"o":"m 121 0 l 729 0 l 729 100 l 479 100 l 479 972 l 129 972 l 129 872 l 371 872 l 371 100 l 121 100 l 121 0 "},"ĺ":{"ha":850,"x_min":121,"x_max":729,"o":"m 121 0 l 729 0 l 729 100 l 479 100 l 479 972 l 129 972 l 129 872 l 371 872 l 371 100 l 121 100 l 121 0 m 371 1075 l 471 1075 l 588 1239 l 463 1239 l 371 1075 "},"ľ":{"ha":850,"x_min":121,"x_max":731,"o":"m 121 0 l 729 0 l 729 100 l 479 100 l 479 972 l 129 972 l 129 872 l 371 872 l 371 100 l 121 100 l 121 0 m 553 631 l 624 631 q 701 661 671 631 q 731 739 731 692 l 731 875 q 702 944 731 915 q 633 972 674 972 q 565 944 594 972 q 536 875 536 915 q 565 807 536 836 q 632 778 593 778 q 656 782 646 778 l 656 747 q 618 706 656 706 l 553 706 l 553 631 "},"ļ":{"ha":850,"x_min":121,"x_max":729,"o":"m 121 0 l 729 0 l 729 100 l 479 100 l 479 972 l 129 972 l 129 872 l 371 872 l 371 100 l 121 100 l 121 0 m 344 -406 l 415 -406 q 492 -375 463 -406 q 522 -297 522 -344 l 522 -161 q 494 -92 522 -121 q 425 -64 465 -64 q 357 -92 386 -64 q 328 -161 328 -121 q 356 -229 328 -200 q 424 -258 385 -258 q 447 -254 438 -258 l 447 -289 q 410 -331 447 -331 l 344 -331 l 344 -406 "},"ḷ":{"ha":850,"x_min":121,"x_max":729,"o":"m 121 0 l 729 0 l 729 100 l 479 100 l 479 972 l 129 972 l 129 872 l 371 872 l 371 100 l 121 100 l 121 0 m 425 -283 q 494 -254 465 -283 q 522 -186 522 -225 q 494 -117 522 -146 q 425 -89 465 -89 q 357 -117 386 -89 q 328 -186 328 -146 q 357 -254 328 -225 q 425 -283 386 -283 "},"ḹ":{"ha":850,"x_min":121,"x_max":729,"o":"m 129 1075 l 479 1075 l 479 1167 l 129 1167 l 129 1075 m 121 0 l 729 0 l 729 100 l 479 100 l 479 972 l 129 972 l 129 872 l 371 872 l 371 100 l 121 100 l 121 0 m 425 -283 q 494 -254 465 -283 q 522 -186 522 -225 q 494 -117 522 -146 q 425 -89 465 -89 q 357 -117 386 -89 q 328 -186 328 -146 q 357 -254 328 -225 q 425 -283 386 -283 "},"ḻ":{"ha":850,"x_min":121,"x_max":729,"o":"m 121 0 l 729 0 l 729 100 l 479 100 l 479 972 l 129 972 l 129 872 l 371 872 l 371 100 l 121 100 l 121 0 m 229 -181 l 621 -181 l 621 -89 l 229 -89 l 229 -181 "},"ł":{"ha":850,"x_min":121,"x_max":729,"o":"m 121 0 l 729 0 l 729 100 l 479 100 l 479 438 l 617 508 l 569 601 l 479 556 l 479 972 l 129 972 l 129 872 l 371 872 l 371 500 l 235 432 l 283 338 l 371 382 l 371 100 l 121 100 l 121 0 "},"m":{"ha":850,"x_min":67,"x_max":783,"o":"m 67 0 l 175 0 l 175 475 q 202 569 175 533 q 279 606 229 606 q 346 576 321 606 q 371 500 371 546 l 371 0 l 479 0 l 479 467 q 508 571 479 536 q 582 606 536 606 q 653 574 631 606 q 675 494 675 543 l 675 0 l 783 0 l 783 531 q 741 659 783 610 q 621 708 699 708 q 471 614 518 708 l 454 614 q 409 682 442 656 q 326 708 376 708 q 244 685 279 708 q 192 614 210 663 l 175 614 l 175 689 l 67 689 l 67 0 "},"ṃ":{"ha":850,"x_min":67,"x_max":783,"o":"m 67 0 l 175 0 l 175 475 q 202 569 175 533 q 279 606 229 606 q 346 576 321 606 q 371 500 371 546 l 371 0 l 479 0 l 479 467 q 508 571 479 536 q 582 606 536 606 q 653 574 631 606 q 675 494 675 543 l 675 0 l 783 0 l 783 531 q 741 659 783 610 q 621 708 699 708 q 471 614 518 708 l 454 614 q 409 682 442 656 q 326 708 376 708 q 244 685 279 708 q 192 614 210 663 l 175 614 l 175 689 l 67 689 l 67 0 m 425 -283 q 494 -254 465 -283 q 522 -186 522 -225 q 494 -117 522 -146 q 425 -89 465 -89 q 357 -117 386 -89 q 328 -186 328 -146 q 357 -254 328 -225 q 425 -283 386 -283 "},"ɯ":{"ha":850,"x_min":67,"x_max":783,"o":"m 783 689 l 675 689 l 675 214 q 648 119 675 156 q 571 83 621 83 q 504 113 529 83 q 479 189 479 143 l 479 689 l 371 689 l 371 222 q 342 118 371 153 q 268 83 314 83 q 198 115 221 83 q 175 194 175 147 l 175 689 l 67 689 l 67 158 q 110 30 67 79 q 229 -19 153 -19 q 379 75 332 -19 l 396 75 q 441 7 408 33 q 524 -19 474 -19 q 606 4 571 -19 q 658 75 640 28 l 675 75 l 675 0 l 783 0 l 783 689 "},"n":{"ha":850,"x_min":121,"x_max":729,"o":"m 121 0 l 229 0 l 229 358 q 286 538 229 471 q 440 606 343 606 q 572 551 524 606 q 621 389 621 497 l 621 0 l 729 0 l 729 411 q 658 634 729 560 q 468 708 588 708 q 246 572 310 708 l 229 572 l 229 689 l 121 689 l 121 0 "},"ń":{"ha":850,"x_min":121,"x_max":729,"o":"m 121 0 l 229 0 l 229 358 q 286 538 229 471 q 440 606 343 606 q 572 551 524 606 q 621 389 621 497 l 621 0 l 729 0 l 729 411 q 658 634 729 560 q 468 708 588 708 q 246 572 310 708 l 229 572 l 229 689 l 121 689 l 121 0 m 413 792 l 513 792 l 629 956 l 504 956 l 413 792 "},"ŉ":{"ha":850,"x_min":103,"x_max":729,"o":"m 121 0 l 229 0 l 229 358 q 286 538 229 471 q 440 606 343 606 q 572 551 524 606 q 621 389 621 497 l 621 0 l 729 0 l 729 411 q 658 634 729 560 q 468 708 588 708 q 246 572 310 708 l 229 572 l 229 689 l 121 689 l 121 0 m 119 797 l 190 797 q 267 828 238 797 q 297 906 297 858 l 297 1042 q 269 1110 297 1082 q 200 1139 240 1139 q 132 1110 161 1139 q 103 1042 103 1082 q 131 974 103 1003 q 199 944 160 944 q 222 949 213 944 l 222 914 q 185 872 222 872 l 119 872 l 119 797 "},"ň":{"ha":850,"x_min":121,"x_max":729,"o":"m 121 0 l 229 0 l 229 358 q 286 538 229 471 q 440 606 343 606 q 572 551 524 606 q 621 389 621 497 l 621 0 l 729 0 l 729 411 q 658 634 729 560 q 468 708 588 708 q 246 572 310 708 l 229 572 l 229 689 l 121 689 l 121 0 m 367 792 l 539 792 l 650 956 l 533 956 l 461 833 l 444 833 l 372 956 l 256 956 l 367 792 "},"ņ":{"ha":850,"x_min":121,"x_max":729,"o":"m 121 0 l 229 0 l 229 358 q 286 538 229 471 q 440 606 343 606 q 572 551 524 606 q 621 389 621 497 l 621 0 l 729 0 l 729 411 q 658 634 729 560 q 468 708 588 708 q 246 572 310 708 l 229 572 l 229 689 l 121 689 l 121 0 m 344 -406 l 415 -406 q 492 -375 463 -406 q 522 -297 522 -344 l 522 -161 q 494 -92 522 -121 q 425 -64 465 -64 q 357 -92 386 -64 q 328 -161 328 -121 q 356 -229 328 -200 q 424 -258 385 -258 q 447 -254 438 -258 l 447 -289 q 410 -331 447 -331 l 344 -331 l 344 -406 "},"ṅ":{"ha":850,"x_min":121,"x_max":729,"o":"m 121 0 l 229 0 l 229 358 q 286 538 229 471 q 440 606 343 606 q 572 551 524 606 q 621 389 621 497 l 621 0 l 729 0 l 729 411 q 658 634 729 560 q 468 708 588 708 q 246 572 310 708 l 229 572 l 229 689 l 121 689 l 121 0 m 453 797 q 522 826 493 797 q 550 894 550 856 q 522 963 550 935 q 453 992 493 992 q 385 963 414 992 q 356 894 356 935 q 385 826 356 856 q 453 797 414 797 "},"ṇ":{"ha":850,"x_min":121,"x_max":729,"o":"m 121 0 l 229 0 l 229 358 q 286 538 229 471 q 440 606 343 606 q 572 551 524 606 q 621 389 621 497 l 621 0 l 729 0 l 729 411 q 658 634 729 560 q 468 708 588 708 q 246 572 310 708 l 229 572 l 229 689 l 121 689 l 121 0 m 425 -283 q 494 -254 465 -283 q 522 -186 522 -225 q 494 -117 522 -146 q 425 -89 465 -89 q 357 -117 386 -89 q 328 -186 328 -146 q 357 -254 328 -225 q 425 -283 386 -283 "},"ṉ":{"ha":850,"x_min":121,"x_max":729,"o":"m 121 0 l 229 0 l 229 358 q 286 538 229 471 q 440 606 343 606 q 572 551 524 606 q 621 389 621 497 l 621 0 l 729 0 l 729 411 q 658 634 729 560 q 468 708 588 708 q 246 572 310 708 l 229 572 l 229 689 l 121 689 l 121 0 m 229 -181 l 621 -181 l 621 -89 l 229 -89 l 229 -181 "},"ñ":{"ha":850,"x_min":121,"x_max":729,"o":"m 121 0 l 229 0 l 229 358 q 286 538 229 471 q 440 606 343 606 q 572 551 524 606 q 621 389 621 497 l 621 0 l 729 0 l 729 411 q 658 634 729 560 q 468 708 588 708 q 246 572 310 708 l 229 572 l 229 689 l 121 689 l 121 0 m 524 765 q 584 782 557 765 q 632 824 611 799 l 689 892 l 621 950 l 561 881 q 544 864 551 868 q 529 860 536 860 q 509 869 519 860 q 482 906 499 879 q 443 954 464 936 q 382 972 422 972 q 319 955 344 972 q 274 914 293 938 l 215 846 l 283 788 l 340 856 q 361 874 353 871 q 376 878 369 878 q 422 831 397 878 q 465 782 442 799 q 524 765 489 765 "},"ŋ":{"ha":850,"x_min":121,"x_max":729,"o":"m 440 -278 l 622 -278 q 699 -247 669 -278 q 729 -169 729 -217 l 729 411 q 658 634 729 560 q 468 708 588 708 q 246 572 310 708 l 229 572 l 229 689 l 121 689 l 121 0 l 229 0 l 229 358 q 286 538 229 471 q 440 606 343 606 q 572 551 524 606 q 621 389 621 497 l 621 -136 q 583 -178 621 -178 l 440 -178 l 440 -278 "},"o":{"ha":850,"x_min":79,"x_max":771,"o":"m 425 -19 q 595 22 517 -19 q 722 143 674 64 q 771 336 771 222 l 771 353 q 722 545 771 465 q 595 667 674 625 q 425 708 517 708 q 255 667 333 708 q 128 545 176 625 q 79 353 79 465 l 79 336 q 128 143 79 222 q 255 22 176 64 q 425 -19 333 -19 m 425 83 q 306 114 360 83 q 222 201 253 144 q 190 336 190 258 l 190 353 q 222 485 190 428 q 306 574 253 542 q 425 606 360 606 q 544 574 490 606 q 628 485 597 542 q 660 353 660 428 l 660 336 q 628 201 660 258 q 544 114 597 144 q 425 83 492 83 "},"ó":{"ha":850,"x_min":79,"x_max":771,"o":"m 425 -19 q 595 22 517 -19 q 722 143 674 64 q 771 336 771 222 l 771 353 q 722 545 771 465 q 595 667 674 625 q 425 708 517 708 q 255 667 333 708 q 128 545 176 625 q 79 353 79 465 l 79 336 q 128 143 79 222 q 255 22 176 64 q 425 -19 333 -19 m 425 83 q 306 114 360 83 q 222 201 253 144 q 190 336 190 258 l 190 353 q 222 485 190 428 q 306 574 253 542 q 425 606 360 606 q 544 574 490 606 q 628 485 597 542 q 660 353 660 428 l 660 336 q 628 201 660 258 q 544 114 597 144 q 425 83 492 83 m 385 792 l 485 792 l 601 956 l 476 956 l 385 792 "},"ŏ":{"ha":850,"x_min":79,"x_max":771,"o":"m 425 -19 q 595 22 517 -19 q 722 143 674 64 q 771 336 771 222 l 771 353 q 722 545 771 465 q 595 667 674 625 q 425 708 517 708 q 255 667 333 708 q 128 545 176 625 q 79 353 79 465 l 79 336 q 128 143 79 222 q 255 22 176 64 q 425 -19 333 -19 m 425 83 q 306 114 360 83 q 222 201 253 144 q 190 336 190 258 l 190 353 q 222 485 190 428 q 306 574 253 542 q 425 606 360 606 q 544 574 490 606 q 628 485 597 542 q 660 353 660 428 l 660 336 q 628 201 660 258 q 544 114 597 144 q 425 83 492 83 m 425 792 q 535 833 494 792 q 575 942 575 875 l 575 956 l 479 956 l 479 939 q 465 901 479 917 q 425 885 451 885 q 385 901 399 885 q 371 939 371 917 l 371 956 l 275 956 l 275 942 q 316 833 275 875 q 425 792 357 792 "},"ǒ":{"ha":850,"x_min":79,"x_max":771,"o":"m 425 -19 q 595 22 517 -19 q 722 143 674 64 q 771 336 771 222 l 771 353 q 722 545 771 465 q 595 667 674 625 q 425 708 517 708 q 255 667 333 708 q 128 545 176 625 q 79 353 79 465 l 79 336 q 128 143 79 222 q 255 22 176 64 q 425 -19 333 -19 m 425 83 q 306 114 360 83 q 222 201 253 144 q 190 336 190 258 l 190 353 q 222 485 190 428 q 306 574 253 542 q 425 606 360 606 q 544 574 490 606 q 628 485 597 542 q 660 353 660 428 l 660 336 q 628 201 660 258 q 544 114 597 144 q 425 83 492 83 m 339 792 l 511 792 l 622 956 l 506 956 l 433 833 l 417 833 l 344 956 l 228 956 l 339 792 "},"ô":{"ha":850,"x_min":79,"x_max":771,"o":"m 425 -19 q 595 22 517 -19 q 722 143 674 64 q 771 336 771 222 l 771 353 q 722 545 771 465 q 595 667 674 625 q 425 708 517 708 q 255 667 333 708 q 128 545 176 625 q 79 353 79 465 l 79 336 q 128 143 79 222 q 255 22 176 64 q 425 -19 333 -19 m 425 83 q 306 114 360 83 q 222 201 253 144 q 190 336 190 258 l 190 353 q 222 485 190 428 q 306 574 253 542 q 425 606 360 606 q 544 574 490 606 q 628 485 597 542 q 660 353 660 428 l 660 336 q 628 201 660 258 q 544 114 597 144 q 425 83 492 83 m 228 792 l 344 792 l 417 914 l 433 914 l 506 792 l 622 792 l 511 956 l 339 956 l 228 792 "},"ố":{"ha":850,"x_min":79,"x_max":790,"o":"m 425 -19 q 595 22 517 -19 q 722 143 674 64 q 771 336 771 222 l 771 353 q 722 545 771 465 q 595 667 674 625 q 425 708 517 708 q 255 667 333 708 q 128 545 176 625 q 79 353 79 465 l 79 336 q 128 143 79 222 q 255 22 176 64 q 425 -19 333 -19 m 425 83 q 306 114 360 83 q 222 201 253 144 q 190 336 190 258 l 190 353 q 222 485 190 428 q 306 574 253 542 q 425 606 360 606 q 544 574 490 606 q 628 485 597 542 q 660 353 660 428 l 660 336 q 628 201 660 258 q 544 114 597 144 q 425 83 492 83 m 228 792 l 344 792 l 417 914 l 433 914 l 506 792 l 622 792 l 511 956 l 339 956 l 228 792 m 574 914 l 674 914 l 790 1078 l 665 1078 l 574 914 "},"ộ":{"ha":850,"x_min":79,"x_max":771,"o":"m 425 -19 q 595 22 517 -19 q 722 143 674 64 q 771 336 771 222 l 771 353 q 722 545 771 465 q 595 667 674 625 q 425 708 517 708 q 255 667 333 708 q 128 545 176 625 q 79 353 79 465 l 79 336 q 128 143 79 222 q 255 22 176 64 q 425 -19 333 -19 m 425 83 q 306 114 360 83 q 222 201 253 144 q 190 336 190 258 l 190 353 q 222 485 190 428 q 306 574 253 542 q 425 606 360 606 q 544 574 490 606 q 628 485 597 542 q 660 353 660 428 l 660 336 q 628 201 660 258 q 544 114 597 144 q 425 83 492 83 m 425 -283 q 494 -254 465 -283 q 522 -186 522 -225 q 494 -117 522 -146 q 425 -89 465 -89 q 357 -117 386 -89 q 328 -186 328 -146 q 357 -254 328 -225 q 425 -283 386 -283 m 228 792 l 344 792 l 417 914 l 433 914 l 506 792 l 622 792 l 511 956 l 339 956 l 228 792 "},"ồ":{"ha":850,"x_min":47,"x_max":771,"o":"m 425 -19 q 595 22 517 -19 q 722 143 674 64 q 771 336 771 222 l 771 353 q 722 545 771 465 q 595 667 674 625 q 425 708 517 708 q 255 667 333 708 q 128 545 176 625 q 79 353 79 465 l 79 336 q 128 143 79 222 q 255 22 176 64 q 425 -19 333 -19 m 425 83 q 306 114 360 83 q 222 201 253 144 q 190 336 190 258 l 190 353 q 222 485 190 428 q 306 574 253 542 q 425 606 360 606 q 544 574 490 606 q 628 485 597 542 q 660 353 660 428 l 660 336 q 628 201 660 258 q 544 114 597 144 q 425 83 492 83 m 228 792 l 344 792 l 417 914 l 433 914 l 506 792 l 622 792 l 511 956 l 339 956 l 228 792 m 164 914 l 264 914 l 172 1078 l 47 1078 l 164 914 "},"ổ":{"ha":850,"x_min":79,"x_max":826,"o":"m 425 -19 q 595 22 517 -19 q 722 143 674 64 q 771 336 771 222 l 771 353 q 722 545 771 465 q 595 667 674 625 q 425 708 517 708 q 255 667 333 708 q 128 545 176 625 q 79 353 79 465 l 79 336 q 128 143 79 222 q 255 22 176 64 q 425 -19 333 -19 m 425 83 q 306 114 360 83 q 222 201 253 144 q 190 336 190 258 l 190 353 q 222 485 190 428 q 306 574 253 542 q 425 606 360 606 q 544 574 490 606 q 628 485 597 542 q 660 353 660 428 l 660 336 q 628 201 660 258 q 544 114 597 144 q 425 83 492 83 m 228 792 l 344 792 l 417 914 l 433 914 l 506 792 l 622 792 l 511 956 l 339 956 l 228 792 m 590 908 l 658 908 l 638 1003 l 646 1003 q 721 958 664 958 q 798 994 769 958 q 826 1076 826 1029 q 789 1168 826 1133 q 697 1203 751 1203 q 606 1175 638 1203 q 563 1106 574 1147 l 629 1081 q 649 1119 633 1101 q 696 1136 665 1136 q 734 1122 717 1136 q 751 1078 751 1108 q 737 1039 751 1053 q 703 1025 722 1025 q 668 1044 678 1025 l 563 1044 l 563 1036 l 590 908 "},"ỗ":{"ha":850,"x_min":79,"x_max":771,"o":"m 425 -19 q 595 22 517 -19 q 722 143 674 64 q 771 336 771 222 l 771 353 q 722 545 771 465 q 595 667 674 625 q 425 708 517 708 q 255 667 333 708 q 128 545 176 625 q 79 353 79 465 l 79 336 q 128 143 79 222 q 255 22 176 64 q 425 -19 333 -19 m 425 83 q 306 114 360 83 q 222 201 253 144 q 190 336 190 258 l 190 353 q 222 485 190 428 q 306 574 253 542 q 425 606 360 606 q 544 574 490 606 q 628 485 597 542 q 660 353 660 428 l 660 336 q 628 201 660 258 q 544 114 597 144 q 425 83 492 83 m 228 792 l 344 792 l 417 914 l 433 914 l 506 792 l 622 792 l 511 956 l 339 956 l 228 792 m 501 990 q 562 1007 535 990 q 610 1049 589 1024 l 667 1117 l 599 1175 l 539 1106 q 522 1089 529 1093 q 507 1085 514 1085 q 487 1094 497 1085 q 460 1131 476 1104 q 421 1179 442 1161 q 360 1197 400 1197 q 297 1180 322 1197 q 251 1139 271 1163 l 193 1071 l 261 1013 l 318 1081 q 339 1099 331 1096 q 354 1103 347 1103 q 400 1056 375 1103 q 443 1007 419 1024 q 501 990 467 990 "},"ö":{"ha":850,"x_min":79,"x_max":771,"o":"m 425 -19 q 595 22 517 -19 q 722 143 674 64 q 771 336 771 222 l 771 353 q 722 545 771 465 q 595 667 674 625 q 425 708 517 708 q 255 667 333 708 q 128 545 176 625 q 79 353 79 465 l 79 336 q 128 143 79 222 q 255 22 176 64 q 425 -19 333 -19 m 425 83 q 306 114 360 83 q 222 201 253 144 q 190 336 190 258 l 190 353 q 222 485 190 428 q 306 574 253 542 q 425 606 360 606 q 544 574 490 606 q 628 485 597 542 q 660 353 660 428 l 660 336 q 628 201 660 258 q 544 114 597 144 q 425 83 492 83 m 564 797 q 633 826 604 797 q 661 894 661 856 q 633 963 661 935 q 564 992 604 992 q 496 963 525 992 q 467 894 467 935 q 496 826 467 856 q 564 797 525 797 m 286 797 q 355 826 326 797 q 383 894 383 856 q 355 963 383 935 q 286 992 326 992 q 218 963 247 992 q 189 894 189 935 q 218 826 189 856 q 286 797 247 797 "},"ọ":{"ha":850,"x_min":79,"x_max":771,"o":"m 425 -19 q 595 22 517 -19 q 722 143 674 64 q 771 336 771 222 l 771 353 q 722 545 771 465 q 595 667 674 625 q 425 708 517 708 q 255 667 333 708 q 128 545 176 625 q 79 353 79 465 l 79 336 q 128 143 79 222 q 255 22 176 64 q 425 -19 333 -19 m 425 83 q 306 114 360 83 q 222 201 253 144 q 190 336 190 258 l 190 353 q 222 485 190 428 q 306 574 253 542 q 425 606 360 606 q 544 574 490 606 q 628 485 597 542 q 660 353 660 428 l 660 336 q 628 201 660 258 q 544 114 597 144 q 425 83 492 83 m 425 -283 q 494 -254 465 -283 q 522 -186 522 -225 q 494 -117 522 -146 q 425 -89 465 -89 q 357 -117 386 -89 q 328 -186 328 -146 q 357 -254 328 -225 q 425 -283 386 -283 "},"ò":{"ha":850,"x_min":79,"x_max":771,"o":"m 425 -19 q 595 22 517 -19 q 722 143 674 64 q 771 336 771 222 l 771 353 q 722 545 771 465 q 595 667 674 625 q 425 708 517 708 q 255 667 333 708 q 128 545 176 625 q 79 353 79 465 l 79 336 q 128 143 79 222 q 255 22 176 64 q 425 -19 333 -19 m 425 83 q 306 114 360 83 q 222 201 253 144 q 190 336 190 258 l 190 353 q 222 485 190 428 q 306 574 253 542 q 425 606 360 606 q 544 574 490 606 q 628 485 597 542 q 660 353 660 428 l 660 336 q 628 201 660 258 q 544 114 597 144 q 425 83 492 83 m 378 792 l 478 792 l 386 956 l 261 956 l 378 792 "},"ỏ":{"ha":850,"x_min":79,"x_max":771,"o":"m 425 -19 q 595 22 517 -19 q 722 143 674 64 q 771 336 771 222 l 771 353 q 722 545 771 465 q 595 667 674 625 q 425 708 517 708 q 255 667 333 708 q 128 545 176 625 q 79 353 79 465 l 79 336 q 128 143 79 222 q 255 22 176 64 q 425 -19 333 -19 m 425 83 q 306 114 360 83 q 222 201 253 144 q 190 336 190 258 l 190 353 q 222 485 190 428 q 306 574 253 542 q 425 606 360 606 q 544 574 490 606 q 628 485 597 542 q 660 353 660 428 l 660 336 q 628 201 660 258 q 544 114 597 144 q 425 83 492 83 m 378 758 l 446 758 l 425 853 l 433 853 q 508 808 451 808 q 585 844 557 808 q 614 926 614 879 q 576 1018 614 983 q 485 1053 539 1053 q 393 1025 425 1053 q 350 956 361 997 l 417 931 q 437 969 421 951 q 483 986 453 986 q 522 972 504 986 q 539 928 539 958 q 524 889 539 903 q 490 875 510 875 q 456 894 465 875 l 350 894 l 350 886 l 378 758 "},"ơ":{"ha":850,"x_min":56,"x_max":842,"o":"m 351 -19 q 566 74 485 -19 q 647 336 647 168 l 647 347 l 735 347 q 812 378 782 347 q 842 456 842 408 l 842 592 q 813 660 842 632 q 744 689 785 689 q 676 660 706 689 q 647 592 647 632 q 676 524 647 553 q 743 494 704 494 q 767 499 757 494 l 767 464 q 729 422 767 422 l 643 422 q 548 633 626 558 q 351 708 469 708 q 197 666 264 708 q 93 544 131 624 q 56 353 56 464 l 56 336 q 137 74 56 168 q 351 -19 218 -19 m 351 83 q 213 151 258 83 q 167 336 167 219 l 167 353 q 213 535 167 465 q 351 606 260 606 q 490 535 443 606 q 536 353 536 465 l 536 336 q 490 151 536 219 q 351 83 444 83 "},"ớ":{"ha":850,"x_min":56,"x_max":842,"o":"m 351 -19 q 566 74 485 -19 q 647 336 647 168 l 647 347 l 735 347 q 812 378 782 347 q 842 456 842 408 l 842 592 q 813 660 842 632 q 744 689 785 689 q 676 660 706 689 q 647 592 647 632 q 676 524 647 553 q 743 494 704 494 q 767 499 757 494 l 767 464 q 729 422 767 422 l 643 422 q 548 633 626 558 q 351 708 469 708 q 197 666 264 708 q 93 544 131 624 q 56 353 56 464 l 56 336 q 137 74 56 168 q 351 -19 218 -19 m 351 83 q 213 151 258 83 q 167 336 167 219 l 167 353 q 213 535 167 465 q 351 606 260 606 q 490 535 443 606 q 536 353 536 465 l 536 336 q 490 151 536 219 q 351 83 444 83 m 300 792 l 400 792 l 517 956 l 392 956 l 300 792 "},"ợ":{"ha":850,"x_min":56,"x_max":842,"o":"m 351 -19 q 566 74 485 -19 q 647 336 647 168 l 647 347 l 735 347 q 812 378 782 347 q 842 456 842 408 l 842 592 q 813 660 842 632 q 744 689 785 689 q 676 660 706 689 q 647 592 647 632 q 676 524 647 553 q 743 494 704 494 q 767 499 757 494 l 767 464 q 729 422 767 422 l 643 422 q 548 633 626 558 q 351 708 469 708 q 197 666 264 708 q 93 544 131 624 q 56 353 56 464 l 56 336 q 137 74 56 168 q 351 -19 218 -19 m 351 83 q 213 151 258 83 q 167 336 167 219 l 167 353 q 213 535 167 465 q 351 606 260 606 q 490 535 443 606 q 536 353 536 465 l 536 336 q 490 151 536 219 q 351 83 444 83 m 350 -283 q 419 -254 390 -283 q 447 -186 447 -225 q 419 -117 447 -146 q 350 -89 390 -89 q 282 -117 311 -89 q 253 -186 253 -146 q 282 -254 253 -225 q 350 -283 311 -283 "},"ờ":{"ha":850,"x_min":56,"x_max":842,"o":"m 351 -19 q 566 74 485 -19 q 647 336 647 168 l 647 347 l 735 347 q 812 378 782 347 q 842 456 842 408 l 842 592 q 813 660 842 632 q 744 689 785 689 q 676 660 706 689 q 647 592 647 632 q 676 524 647 553 q 743 494 704 494 q 767 499 757 494 l 767 464 q 729 422 767 422 l 643 422 q 548 633 626 558 q 351 708 469 708 q 197 666 264 708 q 93 544 131 624 q 56 353 56 464 l 56 336 q 137 74 56 168 q 351 -19 218 -19 m 351 83 q 213 151 258 83 q 167 336 167 219 l 167 353 q 213 535 167 465 q 351 606 260 606 q 490 535 443 606 q 536 353 536 465 l 536 336 q 490 151 536 219 q 351 83 444 83 m 293 792 l 393 792 l 301 956 l 176 956 l 293 792 "},"ở":{"ha":850,"x_min":56,"x_max":842,"o":"m 351 -19 q 566 74 485 -19 q 647 336 647 168 l 647 347 l 735 347 q 812 378 782 347 q 842 456 842 408 l 842 592 q 813 660 842 632 q 744 689 785 689 q 676 660 706 689 q 647 592 647 632 q 676 524 647 553 q 743 494 704 494 q 767 499 757 494 l 767 464 q 729 422 767 422 l 643 422 q 548 633 626 558 q 351 708 469 708 q 197 666 264 708 q 93 544 131 624 q 56 353 56 464 l 56 336 q 137 74 56 168 q 351 -19 218 -19 m 351 83 q 213 151 258 83 q 167 336 167 219 l 167 353 q 213 535 167 465 q 351 606 260 606 q 490 535 443 606 q 536 353 536 465 l 536 336 q 490 151 536 219 q 351 83 444 83 m 293 758 l 361 758 l 340 853 l 349 853 q 424 808 367 808 q 501 844 472 808 q 529 926 529 879 q 492 1018 529 983 q 400 1053 454 1053 q 308 1025 340 1053 q 265 956 276 997 l 332 931 q 352 969 336 951 q 399 986 368 986 q 437 972 419 986 q 454 928 454 958 q 440 889 454 903 q 406 875 425 875 q 371 894 381 875 l 265 894 l 265 886 l 293 758 "},"ỡ":{"ha":850,"x_min":56,"x_max":842,"o":"m 351 -19 q 566 74 485 -19 q 647 336 647 168 l 647 347 l 735 347 q 812 378 782 347 q 842 456 842 408 l 842 592 q 813 660 842 632 q 744 689 785 689 q 676 660 706 689 q 647 592 647 632 q 676 524 647 553 q 743 494 704 494 q 767 499 757 494 l 767 464 q 729 422 767 422 l 643 422 q 548 633 626 558 q 351 708 469 708 q 197 666 264 708 q 93 544 131 624 q 56 353 56 464 l 56 336 q 137 74 56 168 q 351 -19 218 -19 m 351 83 q 213 151 258 83 q 167 336 167 219 l 167 353 q 213 535 167 465 q 351 606 260 606 q 490 535 443 606 q 536 353 536 465 l 536 336 q 490 151 536 219 q 351 83 444 83 m 411 765 q 472 782 444 765 q 519 824 499 799 l 576 892 l 508 950 l 449 881 q 431 864 439 868 q 417 860 424 860 q 397 869 407 860 q 369 906 386 879 q 331 954 351 936 q 269 972 310 972 q 206 955 232 972 q 161 914 181 938 l 103 846 l 171 788 l 228 856 q 249 874 240 871 q 264 878 257 878 q 310 831 285 878 q 353 782 329 799 q 411 765 376 765 "},"ő":{"ha":850,"x_min":79,"x_max":771,"o":"m 425 -19 q 595 22 517 -19 q 722 143 674 64 q 771 336 771 222 l 771 353 q 722 545 771 465 q 595 667 674 625 q 425 708 517 708 q 255 667 333 708 q 128 545 176 625 q 79 353 79 465 l 79 336 q 128 143 79 222 q 255 22 176 64 q 425 -19 333 -19 m 425 83 q 306 114 360 83 q 222 201 253 144 q 190 336 190 258 l 190 353 q 222 485 190 428 q 306 574 253 542 q 425 606 360 606 q 544 574 490 606 q 628 485 597 542 q 660 353 660 428 l 660 336 q 628 201 660 258 q 544 114 597 144 q 425 83 492 83 m 467 792 l 567 792 l 683 956 l 558 956 l 467 792 m 267 792 l 367 792 l 483 956 l 358 956 l 267 792 "},"ō":{"ha":850,"x_min":79,"x_max":771,"o":"m 425 -19 q 595 22 517 -19 q 722 143 674 64 q 771 336 771 222 l 771 353 q 722 545 771 465 q 595 667 674 625 q 425 708 517 708 q 255 667 333 708 q 128 545 176 625 q 79 353 79 465 l 79 336 q 128 143 79 222 q 255 22 176 64 q 425 -19 333 -19 m 425 83 q 306 114 360 83 q 222 201 253 144 q 190 336 190 258 l 190 353 q 222 485 190 428 q 306 574 253 542 q 425 606 360 606 q 544 574 490 606 q 628 485 597 542 q 660 353 660 428 l 660 336 q 628 201 660 258 q 544 114 597 144 q 425 83 492 83 m 243 792 l 607 792 l 607 883 l 243 883 l 243 792 "},"ǫ":{"ha":850,"x_min":79,"x_max":771,"o":"m 464 -228 l 542 -228 l 542 -136 l 483 -136 q 451 -106 451 -136 q 451 -102 451 -104 q 453 -94 451 -100 l 471 -17 q 621 37 553 -7 q 730 156 689 81 q 771 336 771 232 l 771 353 q 722 545 771 465 q 595 667 674 625 q 425 708 517 708 q 255 667 333 708 q 128 545 176 625 q 79 353 79 465 l 79 336 q 119 157 79 232 q 228 38 160 82 q 376 -17 296 -6 l 360 -92 q 356 -125 356 -112 q 390 -202 356 -176 q 464 -228 424 -228 m 425 83 q 306 114 360 83 q 222 201 253 144 q 190 336 190 258 l 190 353 q 222 485 190 428 q 306 574 253 542 q 425 606 360 606 q 544 574 490 606 q 628 485 597 542 q 660 353 660 428 l 660 336 q 628 201 660 258 q 544 114 597 144 q 425 83 492 83 "},"ɔ":{"ha":850,"x_min":82,"x_max":765,"o":"m 410 -19 q 587 22 506 -19 q 717 142 668 63 q 765 333 765 221 l 765 350 q 717 542 765 461 q 587 665 668 622 q 410 708 506 708 q 253 674 322 708 q 141 581 185 640 q 85 444 97 521 l 193 419 q 224 510 199 468 q 297 579 250 553 q 413 606 344 606 q 534 573 479 606 q 622 483 589 540 q 654 350 654 425 l 654 333 q 622 199 654 256 q 533 113 589 143 q 410 83 478 83 q 295 110 342 83 q 223 180 249 138 q 190 269 197 222 l 82 244 q 139 108 96 168 q 251 15 182 49 q 410 -19 319 -19 "},"ø":{"ha":850,"x_min":79,"x_max":771,"o":"m 336 -94 l 363 -14 q 393 -18 378 -17 q 425 -19 408 -19 q 595 22 517 -19 q 722 143 674 64 q 771 336 771 222 l 771 353 q 719 549 771 468 q 586 671 667 631 l 610 744 l 513 775 l 489 703 q 457 707 474 706 q 425 708 440 708 q 255 667 333 708 q 128 545 176 625 q 79 353 79 465 l 79 336 q 131 138 79 218 q 264 17 183 57 l 238 -64 l 336 -94 m 297 119 q 219 206 249 151 q 190 336 190 261 l 190 353 q 222 485 190 428 q 306 574 253 542 q 425 606 360 606 q 440 606 432 606 q 456 604 449 606 l 297 119 m 425 83 q 409 83 417 83 q 394 85 401 83 l 551 568 q 630 481 600 536 q 660 353 660 425 l 660 336 q 628 201 660 258 q 544 114 597 144 q 425 83 492 83 "},"õ":{"ha":850,"x_min":79,"x_max":771,"o":"m 425 -19 q 595 22 517 -19 q 722 143 674 64 q 771 336 771 222 l 771 353 q 722 545 771 465 q 595 667 674 625 q 425 708 517 708 q 255 667 333 708 q 128 545 176 625 q 79 353 79 465 l 79 336 q 128 143 79 222 q 255 22 176 64 q 425 -19 333 -19 m 425 83 q 306 114 360 83 q 222 201 253 144 q 190 336 190 258 l 190 353 q 222 485 190 428 q 306 574 253 542 q 425 606 360 606 q 544 574 490 606 q 628 485 597 542 q 660 353 660 428 l 660 336 q 628 201 660 258 q 544 114 597 144 q 425 83 492 83 m 496 765 q 556 782 529 765 q 604 824 583 799 l 661 892 l 593 950 l 533 881 q 516 864 524 868 q 501 860 508 860 q 481 869 492 860 q 454 906 471 879 q 415 954 436 936 q 354 972 394 972 q 291 955 317 972 q 246 914 265 938 l 188 846 l 256 788 l 313 856 q 333 874 325 871 q 349 878 342 878 q 394 831 369 878 q 438 782 414 799 q 496 765 461 765 "},"œ":{"ha":850,"x_min":94,"x_max":765,"o":"m 440 -19 q 650 41 572 -19 q 757 197 728 101 l 654 225 q 600 135 638 174 q 489 86 563 97 l 489 311 l 765 311 l 765 400 q 747 499 765 446 q 688 600 728 553 q 587 678 649 647 q 440 708 525 708 q 270 667 349 708 q 143 545 192 625 q 94 353 94 465 l 94 336 q 143 143 94 222 q 270 22 192 64 q 440 -19 349 -19 m 489 411 l 489 600 q 604 537 556 586 q 657 411 653 488 l 489 411 m 381 90 q 255 174 304 110 q 206 336 206 238 l 206 353 q 255 513 206 447 q 381 597 304 578 l 381 90 "},"p":{"ha":850,"x_min":96,"x_max":776,"o":"m 96 -278 l 204 -278 l 204 106 l 221 106 q 324 12 257 43 q 457 -19 390 -19 q 617 22 544 -19 q 733 140 690 63 q 776 331 776 218 l 776 358 q 733 548 776 469 q 617 667 689 626 q 460 708 544 708 q 321 676 385 708 q 221 581 257 643 l 204 581 l 204 689 l 96 689 l 96 -278 m 435 83 q 318 115 371 83 q 235 203 265 146 q 204 336 204 260 l 204 353 q 235 483 204 426 q 319 573 267 540 q 435 606 371 606 q 552 574 500 606 q 635 488 604 543 q 665 358 665 432 l 665 331 q 599 150 665 217 q 435 83 533 83 "},"þ":{"ha":850,"x_min":96,"x_max":776,"o":"m 96 -278 l 204 -278 l 204 106 l 221 106 q 324 12 257 43 q 457 -19 390 -19 q 617 22 544 -19 q 733 140 690 63 q 776 331 776 218 l 776 358 q 733 548 776 469 q 617 667 689 626 q 460 708 544 708 q 321 676 385 708 q 221 581 257 643 l 204 581 l 204 972 l 96 972 l 96 -278 m 435 83 q 318 115 371 83 q 235 203 265 146 q 204 336 204 260 l 204 353 q 235 483 204 426 q 319 573 267 540 q 435 606 371 606 q 552 574 500 606 q 635 488 604 543 q 665 358 665 432 l 665 331 q 599 150 665 217 q 435 83 533 83 "},"q":{"ha":850,"x_min":76,"x_max":757,"o":"m 649 -278 l 757 -278 l 757 689 l 649 689 l 649 581 l 632 581 q 536 676 597 643 q 404 708 475 708 q 241 667 315 708 q 122 547 167 625 q 76 356 76 468 l 76 333 q 121 142 76 221 q 240 22 165 63 q 407 -19 315 -19 q 533 12 469 -19 q 632 106 597 43 l 649 106 l 649 -278 m 418 83 q 299 114 351 83 q 217 201 247 144 q 188 333 188 257 l 188 356 q 218 487 188 431 q 301 574 249 543 q 418 606 353 606 q 534 573 482 606 q 617 483 586 540 q 649 353 649 426 l 649 336 q 618 203 649 260 q 535 115 588 146 q 418 83 483 83 "},"r":{"ha":850,"x_min":65,"x_max":771,"o":"m 65 0 l 507 0 l 507 100 l 332 100 l 332 392 q 373 544 332 482 q 499 606 414 606 q 611 563 565 606 q 657 425 657 521 l 771 442 q 702 640 767 572 q 535 708 638 708 q 424 681 474 708 q 349 597 375 654 l 332 597 l 332 689 l 82 689 l 82 589 l 224 589 l 224 100 l 65 100 l 65 0 "},"ŕ":{"ha":850,"x_min":65,"x_max":771,"o":"m 65 0 l 507 0 l 507 100 l 332 100 l 332 392 q 373 544 332 482 q 499 606 414 606 q 611 563 565 606 q 657 425 657 521 l 771 442 q 702 640 767 572 q 535 708 638 708 q 424 681 474 708 q 349 597 375 654 l 332 597 l 332 689 l 82 689 l 82 589 l 224 589 l 224 100 l 65 100 l 65 0 m 401 792 l 501 792 l 618 956 l 493 956 l 401 792 "},"ř":{"ha":850,"x_min":65,"x_max":771,"o":"m 65 0 l 507 0 l 507 100 l 332 100 l 332 392 q 373 544 332 482 q 499 606 414 606 q 611 563 565 606 q 657 425 657 521 l 771 442 q 702 640 767 572 q 535 708 638 708 q 424 681 474 708 q 349 597 375 654 l 332 597 l 332 689 l 82 689 l 82 589 l 224 589 l 224 100 l 65 100 l 65 0 m 356 792 l 528 792 l 639 956 l 522 956 l 450 833 l 433 833 l 361 956 l 244 956 l 356 792 "},"ŗ":{"ha":850,"x_min":65,"x_max":771,"o":"m 65 0 l 507 0 l 507 100 l 332 100 l 332 392 q 373 544 332 482 q 499 606 414 606 q 611 563 565 606 q 657 425 657 521 l 771 442 q 702 640 767 572 q 535 708 638 708 q 424 681 474 708 q 349 597 375 654 l 332 597 l 332 689 l 82 689 l 82 589 l 224 589 l 224 100 l 65 100 l 65 0 m 197 -406 l 268 -406 q 345 -375 315 -406 q 375 -297 375 -344 l 375 -161 q 347 -92 375 -121 q 278 -64 318 -64 q 210 -92 239 -64 q 181 -161 181 -121 q 209 -229 181 -200 q 276 -258 238 -258 q 300 -254 290 -258 l 300 -289 q 263 -331 300 -331 l 197 -331 l 197 -406 "},"ṛ":{"ha":850,"x_min":65,"x_max":771,"o":"m 65 0 l 507 0 l 507 100 l 332 100 l 332 392 q 373 544 332 482 q 499 606 414 606 q 611 563 565 606 q 657 425 657 521 l 771 442 q 702 640 767 572 q 535 708 638 708 q 424 681 474 708 q 349 597 375 654 l 332 597 l 332 689 l 82 689 l 82 589 l 224 589 l 224 100 l 65 100 l 65 0 m 278 -283 q 347 -254 318 -283 q 375 -186 375 -225 q 347 -117 375 -146 q 278 -89 318 -89 q 210 -117 239 -89 q 181 -186 181 -146 q 210 -254 181 -225 q 278 -283 239 -283 "},"ṝ":{"ha":850,"x_min":65,"x_max":771,"o":"m 65 0 l 507 0 l 507 100 l 332 100 l 332 392 q 373 544 332 482 q 499 606 414 606 q 611 563 565 606 q 657 425 657 521 l 771 442 q 702 640 767 572 q 535 708 638 708 q 424 681 474 708 q 349 597 375 654 l 332 597 l 332 689 l 82 689 l 82 589 l 224 589 l 224 100 l 65 100 l 65 0 m 278 -283 q 347 -254 318 -283 q 375 -186 375 -225 q 347 -117 375 -146 q 278 -89 318 -89 q 210 -117 239 -89 q 181 -186 181 -146 q 210 -254 181 -225 q 278 -283 239 -283 m 260 792 l 624 792 l 624 883 l 260 883 l 260 792 "},"ṟ":{"ha":850,"x_min":65,"x_max":771,"o":"m 65 0 l 507 0 l 507 100 l 332 100 l 332 392 q 373 544 332 482 q 499 606 414 606 q 611 563 565 606 q 657 425 657 521 l 771 442 q 702 640 767 572 q 535 708 638 708 q 424 681 474 708 q 349 597 375 654 l 332 597 l 332 689 l 82 689 l 82 589 l 224 589 l 224 100 l 65 100 l 65 0 m 82 -181 l 474 -181 l 474 -89 l 82 -89 l 82 -181 "},"ɹ":{"ha":850,"x_min":79,"x_max":785,"o":"m 785 689 l 343 689 l 343 589 l 518 589 l 518 297 q 478 146 518 208 q 351 83 438 83 q 239 126 285 83 q 193 264 193 168 l 79 247 q 148 49 83 117 q 315 -19 213 -19 q 426 8 376 -19 q 501 92 475 36 l 518 92 l 518 0 l 768 0 l 768 100 l 626 100 l 626 589 l 785 589 l 785 689 "},"s":{"ha":850,"x_min":122,"x_max":708,"o":"m 436 -19 q 633 38 557 -19 q 708 194 708 94 l 708 203 q 644 342 708 294 q 461 400 581 390 q 306 435 349 408 q 264 511 264 461 q 310 586 264 561 q 414 611 356 611 q 536 574 489 611 q 589 469 583 536 l 692 494 q 653 597 685 547 q 560 677 621 646 q 408 708 500 708 q 288 686 344 708 q 194 620 231 664 q 158 511 158 576 l 158 503 q 223 366 158 414 q 406 310 288 318 q 554 278 508 303 q 600 194 600 253 q 553 110 600 140 q 431 81 507 81 q 287 128 342 81 q 225 256 232 176 l 122 231 q 160 112 126 169 q 261 17 193 54 q 436 -19 329 -19 "},"ś":{"ha":850,"x_min":122,"x_max":708,"o":"m 436 -19 q 633 38 557 -19 q 708 194 708 94 l 708 203 q 644 342 708 294 q 461 400 581 390 q 306 435 349 408 q 264 511 264 461 q 310 586 264 561 q 414 611 356 611 q 536 574 489 611 q 589 469 583 536 l 692 494 q 653 597 685 547 q 560 677 621 646 q 408 708 500 708 q 288 686 344 708 q 194 620 231 664 q 158 511 158 576 l 158 503 q 223 366 158 414 q 406 310 288 318 q 554 278 508 303 q 600 194 600 253 q 553 110 600 140 q 431 81 507 81 q 287 128 342 81 q 225 256 232 176 l 122 231 q 160 112 126 169 q 261 17 193 54 q 436 -19 329 -19 m 369 792 l 469 792 l 586 956 l 461 956 l 369 792 "},"š":{"ha":850,"x_min":122,"x_max":708,"o":"m 436 -19 q 633 38 557 -19 q 708 194 708 94 l 708 203 q 644 342 708 294 q 461 400 581 390 q 306 435 349 408 q 264 511 264 461 q 310 586 264 561 q 414 611 356 611 q 536 574 489 611 q 589 469 583 536 l 692 494 q 653 597 685 547 q 560 677 621 646 q 408 708 500 708 q 288 686 344 708 q 194 620 231 664 q 158 511 158 576 l 158 503 q 223 366 158 414 q 406 310 288 318 q 554 278 508 303 q 600 194 600 253 q 553 110 600 140 q 431 81 507 81 q 287 128 342 81 q 225 256 232 176 l 122 231 q 160 112 126 169 q 261 17 193 54 q 436 -19 329 -19 m 324 792 l 496 792 l 607 956 l 490 956 l 418 833 l 401 833 l 329 956 l 213 956 l 324 792 "},"ş":{"ha":850,"x_min":122,"x_max":708,"o":"m 468 -294 q 560 -260 522 -294 q 597 -168 597 -225 q 569 -85 597 -119 q 492 -50 540 -50 q 417 -94 435 -50 l 408 -94 l 425 -19 l 436 -19 q 633 38 557 -19 q 708 194 708 94 l 708 203 q 644 342 708 294 q 461 400 581 390 q 306 435 349 408 q 264 511 264 461 q 310 586 264 561 q 414 611 356 611 q 536 574 489 611 q 589 469 583 536 l 692 494 q 653 597 685 547 q 560 677 621 646 q 408 708 500 708 q 288 686 344 708 q 194 620 231 664 q 158 511 158 576 l 158 503 q 223 366 158 414 q 406 310 288 318 q 554 278 508 303 q 600 194 600 253 q 553 110 600 140 q 431 81 507 81 q 287 128 342 81 q 225 256 232 176 l 122 231 q 152 126 126 178 q 228 38 178 75 q 358 -12 279 1 l 333 -128 l 333 -136 l 439 -136 q 474 -117 449 -117 q 508 -131 493 -117 q 522 -169 522 -144 q 505 -214 522 -200 q 467 -228 488 -228 q 420 -210 436 -228 q 400 -172 404 -193 l 333 -197 q 376 -267 344 -239 q 468 -294 408 -294 "},"ŝ":{"ha":850,"x_min":122,"x_max":708,"o":"m 436 -19 q 633 38 557 -19 q 708 194 708 94 l 708 203 q 644 342 708 294 q 461 400 581 390 q 306 435 349 408 q 264 511 264 461 q 310 586 264 561 q 414 611 356 611 q 536 574 489 611 q 589 469 583 536 l 692 494 q 653 597 685 547 q 560 677 621 646 q 408 708 500 708 q 288 686 344 708 q 194 620 231 664 q 158 511 158 576 l 158 503 q 223 366 158 414 q 406 310 288 318 q 554 278 508 303 q 600 194 600 253 q 553 110 600 140 q 431 81 507 81 q 287 128 342 81 q 225 256 232 176 l 122 231 q 160 112 126 169 q 261 17 193 54 q 436 -19 329 -19 m 213 792 l 329 792 l 401 914 l 418 914 l 490 792 l 607 792 l 496 956 l 324 956 l 213 792 "},"ș":{"ha":850,"x_min":122,"x_max":708,"o":"m 436 -19 q 633 38 557 -19 q 708 194 708 94 l 708 203 q 644 342 708 294 q 461 400 581 390 q 306 435 349 408 q 264 511 264 461 q 310 586 264 561 q 414 611 356 611 q 536 574 489 611 q 589 469 583 536 l 692 494 q 653 597 685 547 q 560 677 621 646 q 408 708 500 708 q 288 686 344 708 q 194 620 231 664 q 158 511 158 576 l 158 503 q 223 366 158 414 q 406 310 288 318 q 554 278 508 303 q 600 194 600 253 q 553 110 600 140 q 431 81 507 81 q 287 128 342 81 q 225 256 232 176 l 122 231 q 160 112 126 169 q 261 17 193 54 q 436 -19 329 -19 m 344 -406 l 415 -406 q 492 -375 463 -406 q 522 -297 522 -344 l 522 -161 q 494 -92 522 -121 q 425 -64 465 -64 q 357 -92 386 -64 q 328 -161 328 -121 q 356 -229 328 -200 q 424 -258 385 -258 q 447 -254 438 -258 l 447 -289 q 410 -331 447 -331 l 344 -331 l 344 -406 "},"ṡ":{"ha":850,"x_min":122,"x_max":708,"o":"m 436 -19 q 633 38 557 -19 q 708 194 708 94 l 708 203 q 644 342 708 294 q 461 400 581 390 q 306 435 349 408 q 264 511 264 461 q 310 586 264 561 q 414 611 356 611 q 536 574 489 611 q 589 469 583 536 l 692 494 q 653 597 685 547 q 560 677 621 646 q 408 708 500 708 q 288 686 344 708 q 194 620 231 664 q 158 511 158 576 l 158 503 q 223 366 158 414 q 406 310 288 318 q 554 278 508 303 q 600 194 600 253 q 553 110 600 140 q 431 81 507 81 q 287 128 342 81 q 225 256 232 176 l 122 231 q 160 112 126 169 q 261 17 193 54 q 436 -19 329 -19 m 410 797 q 478 826 450 797 q 507 894 507 856 q 478 963 507 935 q 410 992 450 992 q 342 963 371 992 q 313 894 313 935 q 342 826 313 856 q 410 797 371 797 "},"ṣ":{"ha":850,"x_min":122,"x_max":708,"o":"m 436 -19 q 633 38 557 -19 q 708 194 708 94 l 708 203 q 644 342 708 294 q 461 400 581 390 q 306 435 349 408 q 264 511 264 461 q 310 586 264 561 q 414 611 356 611 q 536 574 489 611 q 589 469 583 536 l 692 494 q 653 597 685 547 q 560 677 621 646 q 408 708 500 708 q 288 686 344 708 q 194 620 231 664 q 158 511 158 576 l 158 503 q 223 366 158 414 q 406 310 288 318 q 554 278 508 303 q 600 194 600 253 q 553 110 600 140 q 431 81 507 81 q 287 128 342 81 q 225 256 232 176 l 122 231 q 160 112 126 169 q 261 17 193 54 q 436 -19 329 -19 m 425 -283 q 494 -254 465 -283 q 522 -186 522 -225 q 494 -117 522 -146 q 425 -89 465 -89 q 357 -117 386 -89 q 328 -186 328 -146 q 357 -254 328 -225 q 425 -283 386 -283 "},"ß":{"ha":850,"x_min":53,"x_max":782,"o":"m 536 -19 q 664 12 608 -19 q 751 99 719 43 q 782 228 782 154 l 782 236 q 744 377 782 319 q 644 464 706 435 q 511 493 582 493 l 476 493 l 476 510 q 576 542 528 517 q 654 617 624 568 q 685 738 685 665 l 685 746 q 650 877 685 822 q 554 962 615 932 q 415 992 493 992 q 272 958 335 992 q 172 860 208 924 q 136 708 136 797 l 136 689 l 53 689 l 53 589 l 136 589 l 136 0 l 244 0 l 244 697 q 292 840 244 789 q 415 892 339 892 q 529 851 482 892 q 576 746 576 811 l 576 739 q 535 635 576 674 q 425 597 494 597 l 394 597 l 394 393 l 469 393 q 615 356 556 393 q 674 232 674 319 q 633 117 674 153 q 531 81 592 81 q 434 118 471 81 q 397 219 397 156 l 294 203 q 322 97 296 149 q 401 13 349 46 q 536 -19 454 -19 "},"ſ":{"ha":850,"x_min":250,"x_max":713,"o":"m 333 0 l 442 0 l 442 831 q 479 872 442 872 l 713 872 l 713 972 l 440 972 q 363 942 393 972 q 333 864 333 911 l 333 689 l 250 689 l 250 589 l 333 589 l 333 0 "},"t":{"ha":850,"x_min":97,"x_max":689,"o":"m 421 0 l 656 0 l 656 100 l 460 100 q 422 142 422 100 l 422 589 l 689 589 l 689 689 l 422 689 l 422 972 l 314 972 l 314 689 l 97 689 l 97 589 l 314 589 l 314 108 q 344 31 314 61 q 421 0 374 0 "},"ŧ":{"ha":850,"x_min":97,"x_max":689,"o":"m 421 0 l 656 0 l 656 100 l 460 100 q 422 142 422 100 l 422 386 l 639 386 l 639 486 l 422 486 l 422 589 l 689 589 l 689 689 l 422 689 l 422 972 l 314 972 l 314 689 l 97 689 l 97 589 l 314 589 l 314 486 l 147 486 l 147 386 l 314 386 l 314 108 q 344 31 314 61 q 421 0 374 0 "},"ť":{"ha":850,"x_min":97,"x_max":742,"o":"m 421 0 l 656 0 l 656 100 l 460 100 q 422 142 422 100 l 422 589 l 522 589 l 522 689 l 422 689 l 422 972 l 314 972 l 314 689 l 97 689 l 97 589 l 314 589 l 314 108 q 344 31 314 61 q 421 0 374 0 m 564 589 l 635 589 q 712 619 682 589 q 742 697 742 650 l 742 875 q 713 944 742 915 q 644 972 685 972 q 576 944 606 972 q 547 875 547 915 q 576 807 547 836 q 643 778 604 778 q 667 782 657 778 l 667 706 q 629 664 667 664 l 564 664 l 564 589 "},"ţ":{"ha":850,"x_min":97,"x_max":689,"o":"m 528 -294 q 619 -260 582 -294 q 657 -168 657 -225 q 628 -85 657 -119 q 551 -50 600 -50 q 476 -94 494 -50 l 468 -94 l 489 0 l 656 0 l 656 100 l 460 100 q 422 142 422 100 l 422 589 l 689 589 l 689 689 l 422 689 l 422 972 l 314 972 l 314 689 l 97 689 l 97 589 l 314 589 l 314 108 q 344 31 314 61 q 421 0 374 0 l 393 -128 l 393 -136 l 499 -136 q 533 -117 508 -117 q 567 -131 553 -117 q 582 -169 582 -144 q 565 -214 582 -200 q 526 -228 547 -228 q 480 -210 496 -228 q 460 -172 464 -193 l 393 -197 q 436 -267 404 -239 q 528 -294 468 -294 "},"ț":{"ha":850,"x_min":97,"x_max":689,"o":"m 421 0 l 656 0 l 656 100 l 460 100 q 422 142 422 100 l 422 589 l 689 589 l 689 689 l 422 689 l 422 972 l 314 972 l 314 689 l 97 689 l 97 589 l 314 589 l 314 108 q 344 31 314 61 q 421 0 374 0 m 306 -406 l 376 -406 q 453 -375 424 -406 q 483 -297 483 -344 l 483 -161 q 455 -92 483 -121 q 386 -64 426 -64 q 318 -92 347 -64 q 289 -161 289 -121 q 317 -229 289 -200 q 385 -258 346 -258 q 408 -254 399 -258 l 408 -289 q 371 -331 408 -331 l 306 -331 l 306 -406 "},"ẗ":{"ha":850,"x_min":97,"x_max":689,"o":"m 421 0 l 656 0 l 656 100 l 460 100 q 422 142 422 100 l 422 589 l 689 589 l 689 689 l 422 689 l 422 972 l 314 972 l 314 689 l 97 689 l 97 589 l 314 589 l 314 108 q 344 31 314 61 q 421 0 374 0 m 508 1081 q 577 1110 549 1081 q 606 1178 606 1139 q 577 1247 606 1218 q 508 1275 549 1275 q 440 1247 469 1275 q 411 1178 411 1218 q 440 1110 411 1139 q 508 1081 469 1081 m 231 1081 q 299 1110 271 1081 q 328 1178 328 1139 q 299 1247 328 1218 q 231 1275 271 1275 q 163 1247 192 1275 q 133 1178 133 1218 q 163 1110 133 1139 q 231 1081 192 1081 "},"ṭ":{"ha":850,"x_min":97,"x_max":689,"o":"m 421 0 l 656 0 l 656 100 l 460 100 q 422 142 422 100 l 422 589 l 689 589 l 689 689 l 422 689 l 422 972 l 314 972 l 314 689 l 97 689 l 97 589 l 314 589 l 314 108 q 344 31 314 61 q 421 0 374 0 m 386 -283 q 455 -254 426 -283 q 483 -186 483 -225 q 455 -117 483 -146 q 386 -89 426 -89 q 318 -117 347 -89 q 289 -186 289 -146 q 318 -254 289 -225 q 386 -283 347 -283 "},"ṯ":{"ha":850,"x_min":97,"x_max":708,"o":"m 421 0 l 656 0 l 656 100 l 460 100 q 422 142 422 100 l 422 589 l 689 589 l 689 689 l 422 689 l 422 972 l 314 972 l 314 689 l 97 689 l 97 589 l 314 589 l 314 108 q 344 31 314 61 q 421 0 374 0 m 317 -181 l 708 -181 l 708 -89 l 317 -89 l 317 -181 "},"ʇ":{"ha":850,"x_min":142,"x_max":733,"o":"m 408 -278 l 517 -278 l 517 0 l 733 0 l 733 100 l 517 100 l 517 581 q 487 658 517 628 q 410 689 457 689 l 175 689 l 175 589 l 371 589 q 408 547 408 589 l 408 100 l 142 100 l 142 0 l 408 0 l 408 -278 "},"u":{"ha":850,"x_min":113,"x_max":721,"o":"m 371 -19 q 508 19 454 -19 q 596 125 563 58 l 613 125 l 613 0 l 721 0 l 721 689 l 613 689 l 613 331 q 556 151 613 218 q 401 83 500 83 q 265 133 310 83 q 221 292 221 183 l 221 689 l 113 689 l 113 278 q 185 56 113 131 q 371 -19 257 -19 "},"ú":{"ha":850,"x_min":113,"x_max":721,"o":"m 371 -19 q 508 19 454 -19 q 596 125 563 58 l 613 125 l 613 0 l 721 0 l 721 689 l 613 689 l 613 331 q 556 151 613 218 q 401 83 500 83 q 265 133 310 83 q 221 292 221 183 l 221 689 l 113 689 l 113 278 q 185 56 113 131 q 371 -19 257 -19 m 371 792 l 471 792 l 588 956 l 463 956 l 371 792 "},"ŭ":{"ha":850,"x_min":113,"x_max":721,"o":"m 371 -19 q 508 19 454 -19 q 596 125 563 58 l 613 125 l 613 0 l 721 0 l 721 689 l 613 689 l 613 331 q 556 151 613 218 q 401 83 500 83 q 265 133 310 83 q 221 292 221 183 l 221 689 l 113 689 l 113 278 q 185 56 113 131 q 371 -19 257 -19 m 411 792 q 521 833 481 792 q 561 942 561 875 l 561 956 l 465 956 l 465 939 q 451 901 465 917 q 411 885 438 885 q 371 901 385 885 q 357 939 357 917 l 357 956 l 261 956 l 261 942 q 302 833 261 875 q 411 792 343 792 "},"ǔ":{"ha":850,"x_min":113,"x_max":721,"o":"m 371 -19 q 508 19 454 -19 q 596 125 563 58 l 613 125 l 613 0 l 721 0 l 721 689 l 613 689 l 613 331 q 556 151 613 218 q 401 83 500 83 q 265 133 310 83 q 221 292 221 183 l 221 689 l 113 689 l 113 278 q 185 56 113 131 q 371 -19 257 -19 m 325 792 l 497 792 l 608 956 l 492 956 l 419 833 l 403 833 l 331 956 l 214 956 l 325 792 "},"û":{"ha":850,"x_min":113,"x_max":721,"o":"m 371 -19 q 508 19 454 -19 q 596 125 563 58 l 613 125 l 613 0 l 721 0 l 721 689 l 613 689 l 613 331 q 556 151 613 218 q 401 83 500 83 q 265 133 310 83 q 221 292 221 183 l 221 689 l 113 689 l 113 278 q 185 56 113 131 q 371 -19 257 -19 m 214 792 l 331 792 l 403 914 l 419 914 l 492 792 l 608 792 l 497 956 l 325 956 l 214 792 "},"ü":{"ha":850,"x_min":113,"x_max":721,"o":"m 371 -19 q 508 19 454 -19 q 596 125 563 58 l 613 125 l 613 0 l 721 0 l 721 689 l 613 689 l 613 331 q 556 151 613 218 q 401 83 500 83 q 265 133 310 83 q 221 292 221 183 l 221 689 l 113 689 l 113 278 q 185 56 113 131 q 371 -19 257 -19 m 550 797 q 619 826 590 797 q 647 894 647 856 q 619 963 647 935 q 550 992 590 992 q 482 963 511 992 q 453 894 453 935 q 482 826 453 856 q 550 797 511 797 m 272 797 q 341 826 313 797 q 369 894 369 856 q 341 963 369 935 q 272 992 313 992 q 204 963 233 992 q 175 894 175 935 q 204 826 175 856 q 272 797 233 797 "}}}
